DaiBannaSILMaster-Regular.ufo
<glyph name="exclam" format="2">
  <advance width="412"/>
  <unicode hex="0021"/>
  <outline>
    <contour>
      <point x="260" y="924" type="line" smooth="yes"/>
      <point x="260" y="888"/>
      <point x="259" y="783"/>
      <point x="257" y="762" type="curve" smooth="yes"/>
      <point x="206" y="251" type="line" smooth="yes"/>
      <point x="204" y="232"/>
      <point x="169" y="232"/>
      <point x="167" y="251" type="curve" smooth="yes"/>
      <point x="119" y="762" type="line" smooth="yes"/>
      <point x="116" y="799"/>
      <point x="114" y="888"/>
      <point x="114" y="924" type="curve" smooth="yes"/>
      <point x="114" y="957"/>
      <point x="135" y="967"/>
      <point x="188" y="967" type="curve" smooth="yes"/>
      <point x="242" y="967"/>
      <point x="260" y="955"/>
      <point x="260" y="924" type="curve" smooth="yes"/>
    </contour>
    <contour>
      <point x="268" y="86" type="line" smooth="yes" name="hr01"/>
      <point x="268" y="21"/>
      <point x="231" y="-21"/>
      <point x="188" y="-21" type="curve" smooth="yes"/>
      <point x="143" y="-21"/>
      <point x="110" y="23"/>
      <point x="110" y="86" type="curve" smooth="yes"/>
      <point x="110" y="154"/>
      <point x="150" y="190"/>
      <point x="188" y="190" type="curve" smooth="yes"/>
      <point x="226" y="190"/>
      <point x="268" y="151"/>
      <point x="268" y="86" type="curve" smooth="yes"/>
    </contour>
  </outline>
</glyph>
<glyph name="numbersign" format="2">
  <advance width="884"/>
  <unicode hex="0023"/>
  <outline>
    <contour>
      <point x="897" y="834"/>
      <point x="903" y="861" type="curve"/>
      <point x="880" y="884" type="line"/>
      <point x="206" y="884" type="line"/>
      <point x="196" y="859"/>
      <point x="183" y="827"/>
      <point x="177" y="800" type="curve"/>
      <point x="200" y="778" type="line"/>
      <point x="874" y="778" type="line"/>
      <point x="884" y="798"/>
    </contour>
    <contour>
      <point x="533" y="156" type="curve"/>
      <point x="822" y="1168" type="line"/>
      <point x="797" y="1188" type="line"/>
      <point x="769" y="1177"/>
      <point x="741" y="1170"/>
      <point x="714" y="1150" type="curve"/>
      <point x="425" y="135" type="line"/>
      <point x="448" y="116" type="line"/>
      <point x="481" y="127"/>
      <point x="511" y="139"/>
    </contour>
    <contour>
      <point x="256" y="156" type="curve"/>
      <point x="547" y="1168" type="line"/>
      <point x="520" y="1188" type="line"/>
      <point x="494" y="1177"/>
      <point x="466" y="1170"/>
      <point x="439" y="1150" type="curve"/>
      <point x="149" y="135" type="line"/>
      <point x="173" y="116" type="line"/>
      <point x="206" y="127"/>
      <point x="234" y="139"/>
    </contour>
    <contour>
      <point x="797" y="494"/>
      <point x="803" y="517" type="curve"/>
      <point x="782" y="542" type="line"/>
      <point x="107" y="542" type="line"/>
      <point x="96" y="517"/>
      <point x="85" y="483"/>
      <point x="80" y="460" type="curve"/>
      <point x="100" y="437" type="line"/>
      <point x="777" y="437" type="line"/>
      <point x="786" y="458"/>
    </contour>
  </outline>
</glyph>
<glyph name="dollar" format="2">
  <advance width="998"/>
  <unicode hex="0024"/>
  <outline>
    <contour>
      <point x="889" y="354" type="line" smooth="yes"/>
      <point x="889" y="156"/>
      <point x="759" y="9"/>
      <point x="554" y="-14" type="curve"/>
      <point x="555" y="-65"/>
      <point x="555" y="-111"/>
      <point x="555" y="-150" type="curve" smooth="yes"/>
      <point x="555" y="-169"/>
      <point x="534" y="-171"/>
      <point x="498" y="-171" type="curve" smooth="yes"/>
      <point x="461" y="-171"/>
      <point x="441" y="-169"/>
      <point x="441" y="-150" type="curve" smooth="yes"/>
      <point x="441" y="-112"/>
      <point x="441" y="-65"/>
      <point x="442" y="-14" type="curve"/>
      <point x="299" y="0"/>
      <point x="196" y="71"/>
      <point x="138" y="142" type="curve" smooth="yes"/>
      <point x="123" y="160"/>
      <point x="128" y="170"/>
      <point x="159" y="210" type="curve" smooth="yes"/>
      <point x="183" y="242"/>
      <point x="206" y="258"/>
      <point x="211" y="247" type="curve" smooth="yes"/>
      <point x="250" y="168"/>
      <point x="351" y="84"/>
      <point x="443" y="67" type="curve"/>
      <point x="446" y="289"/>
      <point x="451" y="511"/>
      <point x="451" y="734" type="curve"/>
      <point x="291" y="858"/>
      <point x="148" y="956"/>
      <point x="148" y="1174" type="curve" smooth="yes"/>
      <point x="148" y="1313"/>
      <point x="238" y="1473"/>
      <point x="442" y="1495" type="curve"/>
      <point x="441" y="1534"/>
      <point x="441" y="1568"/>
      <point x="441" y="1595" type="curve" smooth="yes"/>
      <point x="441" y="1614"/>
      <point x="460" y="1615"/>
      <point x="498" y="1615" type="curve" smooth="yes"/>
      <point x="535" y="1615"/>
      <point x="555" y="1614"/>
      <point x="555" y="1595" type="curve" smooth="yes"/>
      <point x="555" y="1568"/>
      <point x="555" y="1534"/>
      <point x="554" y="1495" type="curve"/>
      <point x="686" y="1480"/>
      <point x="764" y="1420"/>
      <point x="820" y="1350" type="curve" smooth="yes"/>
      <point x="835" y="1332"/>
      <point x="822" y="1322"/>
      <point x="789" y="1291" type="curve" smooth="yes"/>
      <point x="753" y="1258"/>
      <point x="733" y="1256"/>
      <point x="728" y="1267" type="curve" smooth="yes"/>
      <point x="691" y="1342"/>
      <point x="632" y="1399"/>
      <point x="554" y="1413" type="curve"/>
      <point x="551" y="1229"/>
      <point x="547" y="985"/>
      <point x="546" y="823" type="curve" name="hr01"/>
      <point x="709" y="699"/>
      <point x="889" y="582"/>
      <point x="889" y="354" type="curve" smooth="yes"/>
    </contour>
    <contour>
      <point x="450" y="901" type="line"/>
      <point x="448" y="1057"/>
      <point x="444" y="1255"/>
      <point x="443" y="1411" type="curve"/>
      <point x="320" y="1388"/>
      <point x="278" y="1304"/>
      <point x="278" y="1218" type="curve" smooth="yes"/>
      <point x="278" y="1122"/>
      <point x="300" y="1035"/>
      <point x="450" y="901" type="curve"/>
    </contour>
    <contour>
      <point x="757" y="321" type="line" smooth="yes"/>
      <point x="757" y="409"/>
      <point x="709" y="510"/>
      <point x="545" y="655" type="curve"/>
      <point x="546" y="500"/>
      <point x="551" y="266"/>
      <point x="553" y="72" type="curve"/>
      <point x="701" y="102"/>
      <point x="757" y="219"/>
      <point x="757" y="321" type="curve" smooth="yes"/>
    </contour>
  </outline>
</glyph>
<glyph name="percent" format="2">
  <advance width="1386"/>
  <unicode hex="0025"/>
  <outline>
    <contour>
      <point x="676" y="1155" type="line" smooth="yes"/>
      <point x="676" y="990"/>
      <point x="582" y="813"/>
      <point x="388" y="813" type="curve" smooth="yes"/>
      <point x="191" y="813"/>
      <point x="100" y="998"/>
      <point x="100" y="1155" type="curve" smooth="yes"/>
      <point x="100" y="1303"/>
      <point x="191" y="1498"/>
      <point x="388" y="1498" type="curve" smooth="yes"/>
      <point x="596" y="1498"/>
      <point x="676" y="1309"/>
      <point x="676" y="1155" type="curve" smooth="yes"/>
    </contour>
    <contour>
      <point x="543" y="1155" type="line" smooth="yes"/>
      <point x="543" y="1311"/>
      <point x="487" y="1417"/>
      <point x="388" y="1417" type="curve" smooth="yes"/>
      <point x="287" y="1417"/>
      <point x="235" y="1292"/>
      <point x="235" y="1155" type="curve" smooth="yes"/>
      <point x="235" y="994"/>
      <point x="299" y="894"/>
      <point x="388" y="894" type="curve" smooth="yes"/>
      <point x="493" y="894"/>
      <point x="543" y="1000"/>
      <point x="543" y="1155" type="curve" smooth="yes"/>
    </contour>
    <contour>
      <point x="1286" y="325" type="line" smooth="yes"/>
      <point x="1286" y="160"/>
      <point x="1192" y="-17"/>
      <point x="998" y="-17" type="curve" smooth="yes"/>
      <point x="801" y="-17"/>
      <point x="710" y="168"/>
      <point x="710" y="325" type="curve" smooth="yes"/>
      <point x="710" y="473"/>
      <point x="801" y="668"/>
      <point x="998" y="668" type="curve" smooth="yes"/>
      <point x="1206" y="668"/>
      <point x="1286" y="479"/>
      <point x="1286" y="325" type="curve" smooth="yes"/>
    </contour>
    <contour>
      <point x="1153" y="325" type="line" smooth="yes"/>
      <point x="1153" y="481"/>
      <point x="1097" y="587"/>
      <point x="998" y="587" type="curve" smooth="yes"/>
      <point x="897" y="587"/>
      <point x="845" y="462"/>
      <point x="845" y="325" type="curve" smooth="yes"/>
      <point x="845" y="164"/>
      <point x="909" y="64"/>
      <point x="998" y="64" type="curve" smooth="yes"/>
      <point x="1103" y="64"/>
      <point x="1153" y="170"/>
      <point x="1153" y="325" type="curve" smooth="yes"/>
    </contour>
    <contour>
      <point x="1124" y="1478" type="line"/>
      <point x="402" y="3" type="line" smooth="yes"/>
      <point x="393" y="-16"/>
      <point x="383" y="-17"/>
      <point x="330" y="-17" type="curve" smooth="yes"/>
      <point x="275" y="-17"/>
      <point x="269" y="-16"/>
      <point x="278" y="3" type="curve" smooth="yes"/>
      <point x="1005" y="1478" type="line" smooth="yes"/>
      <point x="1014" y="1497"/>
      <point x="1025" y="1498"/>
      <point x="1071" y="1498" type="curve" smooth="yes"/>
      <point x="1120" y="1498"/>
      <point x="1133" y="1496"/>
      <point x="1124" y="1478" type="curve" smooth="yes"/>
    </contour>
  </outline>
</glyph>
<glyph name="ampersand" format="2">
  <advance width="1267"/>
  <unicode hex="0026"/>
  <outline>
    <contour>
      <point x="1007" y="-28" type="curve" smooth="yes"/>
      <point x="1024" y="-41"/>
      <point x="1039" y="-37"/>
      <point x="1097" y="-10" type="curve" smooth="yes"/>
      <point x="1159" y="19"/>
      <point x="1176" y="37"/>
      <point x="1163" y="44" type="curve" smooth="yes"/>
      <point x="1070" y="94"/>
      <point x="975" y="169"/>
      <point x="885" y="258" type="curve"/>
      <point x="1016" y="440"/>
      <point x="1107" y="678"/>
      <point x="1150" y="860" type="curve" smooth="yes"/>
      <point x="1152" y="870"/>
      <point x="1137" y="875"/>
      <point x="1074" y="895" type="curve" smooth="yes"/>
      <point x="1004" y="917"/>
      <point x="979" y="920"/>
      <point x="982" y="910" type="curve" smooth="yes"/>
      <point x="1009" y="805"/>
      <point x="940" y="539"/>
      <point x="813" y="334" type="curve"/>
      <point x="697" y="464"/>
      <point x="595" y="615"/>
      <point x="524" y="763" type="curve"/>
      <point x="696" y="925"/>
      <point x="883" y="1075"/>
      <point x="883" y="1227" type="curve" smooth="yes"/>
      <point x="883" y="1400"/>
      <point x="776" y="1498"/>
      <point x="596" y="1498" type="curve" smooth="yes"/>
      <point x="445" y="1498"/>
      <point x="286" y="1384"/>
      <point x="286" y="1122" type="curve" smooth="yes"/>
      <point x="286" y="1020"/>
      <point x="323" y="898"/>
      <point x="382" y="770" type="curve"/>
      <point x="235" y="643"/>
      <point x="100" y="498"/>
      <point x="100" y="301" type="curve" smooth="yes"/>
      <point x="100" y="48"/>
      <point x="260" y="-17"/>
      <point x="462" y="-17" type="curve" smooth="yes" name="hr01"/>
      <point x="591" y="-17"/>
      <point x="706" y="53"/>
      <point x="805" y="159" type="curve"/>
      <point x="874" y="85"/>
      <point x="943" y="21"/>
    </contour>
    <contour>
      <point x="458" y="70" type="curve" smooth="yes"/>
      <point x="309" y="70"/>
      <point x="240" y="174"/>
      <point x="240" y="313" type="curve" smooth="yes"/>
      <point x="240" y="442"/>
      <point x="324" y="560"/>
      <point x="432" y="672" type="curve"/>
      <point x="515" y="520"/>
      <point x="625" y="365"/>
      <point x="739" y="232" type="curve"/>
      <point x="659" y="136"/>
      <point x="563" y="70"/>
    </contour>
    <contour>
      <point x="484" y="855" type="curve"/>
      <point x="444" y="956"/>
      <point x="422" y="1052"/>
      <point x="422" y="1137" type="curve" smooth="yes"/>
      <point x="422" y="1265"/>
      <point x="505" y="1417"/>
      <point x="596" y="1417" type="curve" smooth="yes"/>
      <point x="687" y="1417"/>
      <point x="749" y="1330"/>
      <point x="749" y="1208" type="curve" smooth="yes"/>
      <point x="749" y="1079"/>
      <point x="624" y="972"/>
    </contour>
  </outline>
</glyph>
<glyph name="quotesingle" format="2">
  <advance width="412"/>
  <unicode hex="0027"/>
  <outline>
    <contour>
      <point x="308" y="1339" type="line" smooth="yes"/>
      <point x="308" y="1308"/>
      <point x="301" y="1264"/>
      <point x="284" y="1154" type="curve" smooth="yes"/>
      <point x="233" y="830" type="line" smooth="yes"/>
      <point x="230" y="814"/>
      <point x="180" y="816"/>
      <point x="178" y="830" type="curve" smooth="yes"/>
      <point x="130" y="1154" type="line" smooth="yes"/>
      <point x="116" y="1248"/>
      <point x="104" y="1288"/>
      <point x="104" y="1323" type="curve" smooth="yes"/>
      <point x="104" y="1417"/>
      <point x="135" y="1457"/>
      <point x="207" y="1457" type="curve" smooth="yes"/>
      <point x="277" y="1457"/>
      <point x="308" y="1403"/>
      <point x="308" y="1339" type="curve" smooth="yes"/>
    </contour>
  </outline>
</glyph>
<glyph name="parenright" format="2">
  <advance width="705"/>
  <unicode hex="0029"/>
  <outline>
    <contour>
      <point x="-103" y="-581" type="curve" smooth="yes"/>
      <point x="-86" y="-591"/>
      <point x="-32" y="-581"/>
      <point x="24" y="-550" type="curve" smooth="yes"/>
      <point x="260" y="-418"/>
      <point x="544" y="-129"/>
      <point x="544" y="548" type="curve" smooth="yes"/>
      <point x="544" y="1189"/>
      <point x="272" y="1515"/>
      <point x="24" y="1622" type="curve" smooth="yes"/>
      <point x="-34" y="1647"/>
      <point x="-88" y="1648"/>
      <point x="-104" y="1636" type="curve" smooth="yes"/>
      <point x="-114" y="1628"/>
      <point x="-103" y="1610"/>
      <point x="-29" y="1581" type="curve" smooth="yes"/>
      <point x="135" y="1517"/>
      <point x="401" y="1161"/>
      <point x="401" y="538" type="curve" smooth="yes"/>
      <point x="401" y="-86"/>
      <point x="126" y="-438"/>
      <point x="-30" y="-519" type="curve" smooth="yes"/>
      <point x="-101" y="-556"/>
      <point x="-114" y="-575"/>
    </contour>
  </outline>
</glyph>
<glyph name="asterisk" format="2">
  <advance width="1025"/>
  <unicode hex="002A"/>
  <outline>
    <contour>
      <point x="693" y="747" type="curve" smooth="yes"/>
      <point x="711" y="722"/>
      <point x="721" y="728"/>
      <point x="772" y="765" type="curve" smooth="yes"/>
      <point x="817" y="798"/>
      <point x="826" y="806"/>
      <point x="808" y="831" type="curve" smooth="yes"/>
      <point x="735" y="930"/>
      <point x="642" y="992"/>
      <point x="577" y="1099" type="curve"/>
      <point x="692" y="1149"/>
      <point x="804" y="1139"/>
      <point x="922" y="1177" type="curve" smooth="yes"/>
      <point x="952" y="1186"/>
      <point x="949" y="1197"/>
      <point x="930" y="1257" type="curve" smooth="yes"/>
      <point x="912" y="1311"/>
      <point x="908" y="1322"/>
      <point x="878" y="1312" type="curve" smooth="yes"/>
      <point x="761" y="1274"/>
      <point x="674" y="1205"/>
      <point x="552" y="1175" type="curve"/>
      <point x="540" y="1300"/>
      <point x="585" y="1404"/>
      <point x="585" y="1528" type="curve" smooth="yes"/>
      <point x="585" y="1559"/>
      <point x="574" y="1560"/>
      <point x="511" y="1560" type="curve" smooth="yes"/>
      <point x="454" y="1560"/>
      <point x="443" y="1559"/>
      <point x="443" y="1528" type="curve" smooth="yes" name="hr02"/>
      <point x="443" y="1405"/>
      <point x="482" y="1300"/>
      <point x="472" y="1175" type="curve" name="hr01"/>
      <point x="349" y="1202"/>
      <point x="264" y="1277"/>
      <point x="146" y="1315" type="curve" smooth="yes"/>
      <point x="117" y="1325"/>
      <point x="112" y="1315"/>
      <point x="93" y="1255" type="curve" smooth="yes"/>
      <point x="75" y="1201"/>
      <point x="73" y="1190"/>
      <point x="102" y="1180" type="curve" smooth="yes"/>
      <point x="219" y="1142"/>
      <point x="331" y="1147"/>
      <point x="447" y="1099" type="curve"/>
      <point x="384" y="991"/>
      <point x="286" y="933"/>
      <point x="213" y="833" type="curve" smooth="yes"/>
      <point x="195" y="808"/>
      <point x="203" y="800"/>
      <point x="254" y="763" type="curve" smooth="yes"/>
      <point x="300" y="730"/>
      <point x="310" y="724"/>
      <point x="328" y="749" type="curve" smooth="yes"/>
      <point x="400" y="849"/>
      <point x="430" y="956"/>
      <point x="512" y="1052" type="curve"/>
      <point x="595" y="958"/>
      <point x="620" y="847"/>
    </contour>
  </outline>
</glyph>
<glyph name="comma" format="2">
  <advance width="407"/>
  <unicode hex="002C"/>
  <outline>
    <contour>
      <point x="316" y="3" type="line" smooth="yes"/>
      <point x="316" y="-250"/>
      <point x="109" y="-423"/>
      <point x="102" y="-397" type="curve" smooth="yes"/>
      <point x="96" y="-378"/>
      <point x="259" y="-244"/>
      <point x="259" y="-35" type="curve" smooth="yes"/>
      <point x="259" y="-12"/>
      <point x="247" y="12"/>
      <point x="239" y="12" type="curve" smooth="yes"/>
      <point x="229" y="12"/>
      <point x="206" y="-17"/>
      <point x="181" y="-17" type="curve" smooth="yes"/>
      <point x="136" y="-17"/>
      <point x="96" y="41"/>
      <point x="96" y="107" type="curve" smooth="yes" name="hr01"/>
      <point x="96" y="183"/>
      <point x="150" y="225"/>
      <point x="192" y="225" type="curve" smooth="yes"/>
      <point x="282" y="225"/>
      <point x="316" y="115"/>
      <point x="316" y="3" type="curve" smooth="yes"/>
    </contour>
  </outline>
</glyph>
<glyph name="hyphen" format="2">
  <advance width="635"/>
  <unicode hex="002D"/>
  <outline>
    <contour>
      <point x="517" y="551" type="line" smooth="yes"/>
      <point x="517" y="507"/>
      <point x="510" y="505"/>
      <point x="490" y="505" type="curve" smooth="yes"/>
      <point x="144" y="505" type="line" smooth="yes"/>
      <point x="123" y="505"/>
      <point x="118" y="508"/>
      <point x="118" y="551" type="curve" smooth="yes"/>
      <point x="118" y="591"/>
      <point x="124" y="594"/>
      <point x="147" y="594" type="curve" smooth="yes"/>
      <point x="488" y="594" type="line" smooth="yes"/>
      <point x="509" y="594"/>
      <point x="517" y="591"/>
      <point x="517" y="551" type="curve" smooth="yes"/>
    </contour>
  </outline>
</glyph>
<glyph name="period" format="2">
  <advance width="377"/>
  <unicode hex="002E"/>
  <outline>
    <contour>
      <point x="281" y="108" type="line" smooth="yes"/>
      <point x="281" y="32"/>
      <point x="239" y="-18"/>
      <point x="188" y="-18" type="curve" smooth="yes"/>
      <point x="136" y="-18"/>
      <point x="96" y="34"/>
      <point x="96" y="108" type="curve" smooth="yes"/>
      <point x="96" y="188"/>
      <point x="143" y="230"/>
      <point x="188" y="230" type="curve" smooth="yes"/>
      <point x="233" y="230"/>
      <point x="281" y="184"/>
      <point x="281" y="108" type="curve" smooth="yes"/>
    </contour>
  </outline>
</glyph>
<glyph name="slash" format="2">
  <advance width="633"/>
  <unicode hex="002F"/>
  <outline>
    <contour>
      <point x="59" y="-35" type="curve" smooth="yes"/>
      <point x="105" y="-35"/>
      <point x="118" y="-28"/>
      <point x="122" y="-16" type="curve" smooth="yes"/>
      <point x="653" y="1564" type="line" smooth="yes"/>
      <point x="658" y="1579"/>
      <point x="648" y="1584"/>
      <point x="605" y="1584" type="curve" smooth="yes"/>
      <point x="561" y="1584"/>
      <point x="549" y="1579"/>
      <point x="544" y="1564" type="curve" smooth="yes"/>
      <point x="8" y="-16" type="line" smooth="yes"/>
      <point x="4" y="-28"/>
      <point x="12" y="-35"/>
    </contour>
  </outline>
</glyph>
<glyph name="zero" format="2">
  <advance width="956"/>
  <unicode hex="0030"/>
  <outline>
    <contour>
      <point x="478" y="-17" type="curve" smooth="yes"/>
      <point x="811" y="-17"/>
      <point x="876" y="393"/>
      <point x="876" y="740" type="curve" smooth="yes"/>
      <point x="876" y="1127"/>
      <point x="798" y="1498"/>
      <point x="478" y="1498" type="curve" smooth="yes"/>
      <point x="187" y="1498"/>
      <point x="80" y="1124"/>
      <point x="80" y="740" type="curve" smooth="yes"/>
      <point x="80" y="391"/>
      <point x="179" y="-17"/>
    </contour>
    <contour>
      <point x="478" y="64" type="curve" smooth="yes"/>
      <point x="311" y="64"/>
      <point x="215" y="320"/>
      <point x="215" y="740" type="curve" smooth="yes"/>
      <point x="215" y="1160"/>
      <point x="309" y="1417"/>
      <point x="478" y="1417" type="curve" smooth="yes"/>
      <point x="651" y="1417"/>
      <point x="743" y="1160"/>
      <point x="743" y="740" type="curve" smooth="yes"/>
      <point x="743" y="331"/>
      <point x="657" y="64"/>
    </contour>
  </outline>
</glyph>
<glyph name="one" format="2">
  <advance width="956"/>
  <unicode hex="0031"/>
  <outline>
    <contour>
      <point x="660" y="24" type="line" smooth="yes"/>
      <point x="660" y="-17"/>
      <point x="640" y="-17"/>
      <point x="588" y="-17" type="curve" smooth="yes"/>
      <point x="536" y="-17"/>
      <point x="516" y="-17"/>
      <point x="516" y="24" type="curve" smooth="yes"/>
      <point x="516" y="76"/>
      <point x="526" y="510"/>
      <point x="526" y="774" type="curve" smooth="yes" name="hr01"/>
      <point x="526" y="919"/>
      <point x="521" y="1129"/>
      <point x="518" y="1263" type="curve"/>
      <point x="433" y="1150"/>
      <point x="334" y="987"/>
      <point x="302" y="922" type="curve" smooth="yes"/>
      <point x="292" y="902"/>
      <point x="270" y="916"/>
      <point x="239" y="941" type="curve" smooth="yes"/>
      <point x="206" y="968"/>
      <point x="191" y="986"/>
      <point x="204" y="1000" type="curve" smooth="yes"/>
      <point x="255" y="1054"/>
      <point x="516" y="1402"/>
      <point x="516" y="1447" type="curve" smooth="yes" name="hr02"/>
      <point x="516" y="1488"/>
      <point x="538" y="1488"/>
      <point x="588" y="1488" type="curve" smooth="yes"/>
      <point x="638" y="1488"/>
      <point x="660" y="1488"/>
      <point x="660" y="1447" type="curve" smooth="yes"/>
      <point x="658" y="1223"/>
      <point x="650" y="998"/>
      <point x="650" y="774" type="curve" smooth="yes" name="hr03"/>
      <point x="650" y="510"/>
      <point x="660" y="76"/>
      <point x="660" y="24" type="curve" smooth="yes" name="hr04"/>
    </contour>
  </outline>
</glyph>
<glyph name="two" format="2">
  <advance width="956"/>
  <unicode hex="0032"/>
  <outline>
    <contour>
      <point x="171" y="-16" type="curve" smooth="yes"/>
      <point x="550" y="-16" type="line" smooth="yes"/>
      <point x="690" y="-16"/>
      <point x="775" y="-16"/>
      <point x="854" y="0" type="curve" smooth="yes"/>
      <point x="866" y="2"/>
      <point x="865" y="22"/>
      <point x="857" y="69" type="curve" smooth="yes"/>
      <point x="850" y="111"/>
      <point x="838" y="116"/>
      <point x="829" y="113" type="curve" smooth="yes"/>
      <point x="774" y="92"/>
      <point x="729" y="76"/>
      <point x="580" y="76" type="curve" smooth="yes"/>
      <point x="262" y="76" type="line" smooth="yes"/>
      <point x="238" y="76"/>
      <point x="236" y="118"/>
      <point x="236" y="150" type="curve" smooth="yes"/>
      <point x="236" y="301"/>
      <point x="259" y="392"/>
      <point x="484" y="622" type="curve" smooth="yes"/>
      <point x="800" y="945"/>
      <point x="849" y="1034"/>
      <point x="849" y="1196" type="curve" smooth="yes"/>
      <point x="849" y="1386"/>
      <point x="697" y="1498"/>
      <point x="511" y="1498" type="curve" smooth="yes"/>
      <point x="308" y="1498"/>
      <point x="198" y="1418"/>
      <point x="130" y="1330" type="curve" smooth="yes"/>
      <point x="119" y="1316"/>
      <point x="121" y="1293"/>
      <point x="149" y="1261" type="curve" smooth="yes"/>
      <point x="177" y="1229"/>
      <point x="206" y="1212"/>
      <point x="211" y="1227" type="curve" smooth="yes"/>
      <point x="241" y="1317"/>
      <point x="351" y="1418"/>
      <point x="481" y="1418" type="curve" smooth="yes"/>
      <point x="628" y="1418"/>
      <point x="715" y="1295"/>
      <point x="715" y="1172" type="curve" smooth="yes"/>
      <point x="715" y="1057"/>
      <point x="673" y="949"/>
      <point x="403" y="672" type="curve" smooth="yes"/>
      <point x="184" y="447"/>
      <point x="102" y="375"/>
      <point x="102" y="106" type="curve" smooth="yes"/>
      <point x="102" y="0"/>
      <point x="125" y="-16"/>
    </contour>
  </outline>
</glyph>
<glyph name="three" format="2">
  <advance width="956"/>
  <unicode hex="0033"/>
  <outline>
    <contour>
      <point x="866" y="448" type="line" smooth="yes"/>
      <point x="866" y="197"/>
      <point x="744" y="-17"/>
      <point x="456" y="-17" type="curve" smooth="yes"/>
      <point x="290" y="-17"/>
      <point x="165" y="52"/>
      <point x="105" y="115" type="curve" smooth="yes"/>
      <point x="93" y="127"/>
      <point x="98" y="138"/>
      <point x="119" y="170" type="curve" smooth="yes"/>
      <point x="140" y="201"/>
      <point x="174" y="227"/>
      <point x="181" y="217" type="curve" smooth="yes"/>
      <point x="226" y="150"/>
      <point x="326" y="64"/>
      <point x="424" y="64" type="curve" smooth="yes"/>
      <point x="617" y="64"/>
      <point x="732" y="233"/>
      <point x="732" y="450" type="curve" smooth="yes"/>
      <point x="732" y="683"/>
      <point x="617" y="825"/>
      <point x="428" y="811" type="curve" smooth="yes"/>
      <point x="423" y="811"/>
      <point x="418" y="835"/>
      <point x="420" y="854" type="curve" smooth="yes"/>
      <point x="423" y="884"/>
      <point x="427" y="889"/>
      <point x="437" y="889" type="curve" smooth="yes"/>
      <point x="612" y="889"/>
      <point x="691" y="991"/>
      <point x="691" y="1142" type="curve" smooth="yes" name="hr01"/>
      <point x="691" y="1300"/>
      <point x="603" y="1418"/>
      <point x="451" y="1418" type="curve" smooth="yes"/>
      <point x="351" y="1418"/>
      <point x="273" y="1366"/>
      <point x="223" y="1262" type="curve" smooth="yes"/>
      <point x="219" y="1254"/>
      <point x="198" y="1270"/>
      <point x="169" y="1301" type="curve" smooth="yes"/>
      <point x="151" y="1320"/>
      <point x="133" y="1340"/>
      <point x="140" y="1350" type="curve" smooth="yes"/>
      <point x="199" y="1441"/>
      <point x="337" y="1498"/>
      <point x="471" y="1498" type="curve" smooth="yes"/>
      <point x="705" y="1498"/>
      <point x="809" y="1347"/>
      <point x="809" y="1166" type="curve" smooth="yes"/>
      <point x="809" y="1016"/>
      <point x="736" y="905"/>
      <point x="625" y="857" type="curve"/>
      <point x="765" y="805"/>
      <point x="866" y="677"/>
      <point x="866" y="448" type="curve" smooth="yes" name="hr02"/>
    </contour>
  </outline>
</glyph>
<glyph name="five" format="2">
  <advance width="956"/>
  <unicode hex="0035"/>
  <outline>
    <contour>
      <point x="466" y="-17" type="curve" smooth="yes"/>
      <point x="704" y="-17"/>
      <point x="876" y="150"/>
      <point x="876" y="468" type="curve" smooth="yes"/>
      <point x="876" y="815"/>
      <point x="707" y="969"/>
      <point x="497" y="969" type="curve" smooth="yes" name="hr02"/>
      <point x="363" y="969"/>
      <point x="320" y="926"/>
      <point x="285" y="926" type="curve" smooth="yes"/>
      <point x="283" y="926"/>
      <point x="278" y="931"/>
      <point x="280" y="948" type="curve" smooth="yes"/>
      <point x="292" y="1043"/>
      <point x="342" y="1363"/>
      <point x="346" y="1382" type="curve" smooth="yes"/>
      <point x="350" y="1402"/>
      <point x="360" y="1401"/>
      <point x="381" y="1401" type="curve" smooth="yes"/>
      <point x="634" y="1401" type="line" smooth="yes"/>
      <point x="690" y="1401"/>
      <point x="744" y="1373"/>
      <point x="787" y="1350" type="curve" smooth="yes"/>
      <point x="796" y="1346"/>
      <point x="808" y="1367"/>
      <point x="815" y="1409" type="curve" smooth="yes"/>
      <point x="823" y="1456"/>
      <point x="824" y="1474"/>
      <point x="812" y="1478" type="curve" smooth="yes"/>
      <point x="786" y="1488"/>
      <point x="731" y="1491"/>
      <point x="628" y="1491" type="curve" smooth="yes"/>
      <point x="275" y="1491" type="line" smooth="yes"/>
      <point x="242" y="1491"/>
      <point x="232" y="1481"/>
      <point x="232" y="1462" type="curve" smooth="yes"/>
      <point x="232" y="1420"/>
      <point x="167" y="959"/>
      <point x="145" y="890" type="curve" smooth="yes"/>
      <point x="139" y="871"/>
      <point x="156" y="864"/>
      <point x="194" y="839" type="curve" smooth="yes"/>
      <point x="230" y="816"/>
      <point x="249" y="806"/>
      <point x="263" y="806" type="curve" smooth="yes" name="hr01"/>
      <point x="326" y="806"/>
      <point x="336" y="891"/>
      <point x="488" y="891" type="curve" smooth="yes"/>
      <point x="611" y="891"/>
      <point x="742" y="758"/>
      <point x="742" y="490" type="curve" smooth="yes"/>
      <point x="742" y="209"/>
      <point x="641" y="64"/>
      <point x="434" y="64" type="curve" smooth="yes"/>
      <point x="336" y="64"/>
      <point x="224" y="159"/>
      <point x="181" y="247" type="curve" smooth="yes"/>
      <point x="176" y="258"/>
      <point x="154" y="242"/>
      <point x="129" y="210" type="curve" smooth="yes"/>
      <point x="98" y="170"/>
      <point x="93" y="160"/>
      <point x="108" y="142" type="curve" smooth="yes"/>
      <point x="173" y="62"/>
      <point x="295" y="-17"/>
    </contour>
  </outline>
</glyph>
<glyph name="six" format="2">
  <advance width="956"/>
  <unicode hex="0036"/>
  <outline>
    <contour>
      <point x="876" y="496" type="line" smooth="yes"/>
      <point x="876" y="262"/>
      <point x="767" y="-17"/>
      <point x="478" y="-17" type="curve" smooth="yes"/>
      <point x="233" y="-17"/>
      <point x="80" y="215"/>
      <point x="80" y="674" type="curve" smooth="yes"/>
      <point x="80" y="1251"/>
      <point x="272" y="1499"/>
      <point x="538" y="1499" type="curve" smooth="yes"/>
      <point x="646" y="1499"/>
      <point x="756" y="1459"/>
      <point x="819" y="1364" type="curve" smooth="yes"/>
      <point x="831" y="1346"/>
      <point x="823" y="1335"/>
      <point x="792" y="1301" type="curve" smooth="yes"/>
      <point x="765" y="1271"/>
      <point x="744" y="1253"/>
      <point x="736" y="1266" type="curve" smooth="yes"/>
      <point x="676" y="1367"/>
      <point x="631" y="1418"/>
      <point x="526" y="1418" type="curve" smooth="yes"/>
      <point x="370" y="1418"/>
      <point x="235" y="1227"/>
      <point x="217" y="803" type="curve"/>
      <point x="272" y="885"/>
      <point x="371" y="968"/>
      <point x="478" y="968" type="curve" smooth="yes"/>
      <point x="775" y="968"/>
      <point x="876" y="711"/>
      <point x="876" y="496" type="curve" smooth="yes"/>
    </contour>
    <contour>
      <point x="743" y="496" type="line" smooth="yes"/>
      <point x="743" y="670"/>
      <point x="651" y="887"/>
      <point x="478" y="887" type="curve" smooth="yes"/>
      <point x="368" y="887"/>
      <point x="258" y="751"/>
      <point x="221" y="545" type="curve"/>
      <point x="248" y="224"/>
      <point x="355" y="64"/>
      <point x="478" y="64" type="curve" smooth="yes"/>
      <point x="657" y="64"/>
      <point x="743" y="298"/>
      <point x="743" y="496" type="curve" smooth="yes"/>
    </contour>
  </outline>
</glyph>
<glyph name="seven" format="2">
  <advance width="956"/>
  <unicode hex="0037"/>
  <outline>
    <contour>
      <point x="876" y="1381" type="line" smooth="yes"/>
      <point x="876" y="1309"/>
      <point x="821" y="1230"/>
      <point x="590" y="733" type="curve" smooth="yes"/>
      <point x="431" y="390"/>
      <point x="379" y="83"/>
      <point x="379" y="0" type="curve" smooth="yes"/>
      <point x="379" y="-22"/>
      <point x="370" y="-22"/>
      <point x="301" y="-4" type="curve" smooth="yes"/>
      <point x="244" y="11"/>
      <point x="228" y="20"/>
      <point x="231" y="44" type="curve" smooth="yes"/>
      <point x="241" y="128"/>
      <point x="362" y="471"/>
      <point x="506" y="780" type="curve" smooth="yes"/>
      <point x="721" y="1242"/>
      <point x="732" y="1317"/>
      <point x="732" y="1371" type="curve" smooth="yes"/>
      <point x="732" y="1389"/>
      <point x="728" y="1401"/>
      <point x="706" y="1401" type="curve" smooth="yes"/>
      <point x="378" y="1401" type="line" smooth="yes"/>
      <point x="286" y="1401"/>
      <point x="207" y="1382"/>
      <point x="129" y="1351" type="curve" smooth="yes"/>
      <point x="120" y="1348"/>
      <point x="108" y="1363"/>
      <point x="101" y="1405" type="curve" smooth="yes"/>
      <point x="93" y="1452"/>
      <point x="92" y="1472"/>
      <point x="104" y="1474" type="curve" smooth="yes"/>
      <point x="183" y="1490"/>
      <point x="268" y="1491"/>
      <point x="408" y="1491" type="curve" smooth="yes"/>
      <point x="833" y="1491" type="line" smooth="yes"/>
      <point x="850" y="1491"/>
      <point x="856" y="1485"/>
      <point x="869" y="1433" type="curve" smooth="yes"/>
      <point x="874" y="1414"/>
      <point x="876" y="1404"/>
      <point x="876" y="1381" type="curve" smooth="yes"/>
    </contour>
  </outline>
</glyph>
<glyph name="eight" format="2">
  <advance width="956"/>
  <unicode hex="0038"/>
  <outline>
    <contour>
      <point x="478" y="-17" type="curve" smooth="yes"/>
      <point x="811" y="-17"/>
      <point x="876" y="251"/>
      <point x="876" y="416" type="curve" smooth="yes"/>
      <point x="876" y="602"/>
      <point x="831" y="780"/>
      <point x="672" y="856" type="curve"/>
      <point x="785" y="917"/>
      <point x="826" y="1035"/>
      <point x="826" y="1150" type="curve" smooth="yes"/>
      <point x="826" y="1304"/>
      <point x="739" y="1498"/>
      <point x="478" y="1498" type="curve" smooth="yes"/>
      <point x="244" y="1498"/>
      <point x="130" y="1298"/>
      <point x="130" y="1150" type="curve" smooth="yes" name="hr01"/>
      <point x="130" y="1038"/>
      <point x="171" y="914"/>
      <point x="292" y="853" type="curve"/>
      <point x="140" y="774"/>
      <point x="80" y="596"/>
      <point x="80" y="416" type="curve" smooth="yes"/>
      <point x="80" y="259"/>
      <point x="145" y="-17"/>
    </contour>
    <contour>
      <point x="478" y="64" type="curve" smooth="yes"/>
      <point x="311" y="64"/>
      <point x="215" y="215"/>
      <point x="215" y="416" type="curve" smooth="yes"/>
      <point x="215" y="640"/>
      <point x="309" y="813"/>
      <point x="478" y="813" type="curve" smooth="yes"/>
      <point x="651" y="813"/>
      <point x="743" y="651"/>
      <point x="743" y="416" type="curve" smooth="yes" name="hr04"/>
      <point x="743" y="218"/>
      <point x="657" y="64"/>
    </contour>
    <contour>
      <point x="478" y="894" type="curve" smooth="yes"/>
      <point x="333" y="894"/>
      <point x="265" y="1008"/>
      <point x="265" y="1150" type="curve" smooth="yes"/>
      <point x="265" y="1276"/>
      <point x="338" y="1417"/>
      <point x="478" y="1417" type="curve" smooth="yes"/>
      <point x="617" y="1417"/>
      <point x="693" y="1289"/>
      <point x="693" y="1150" type="curve" smooth="yes" name="hr03"/>
      <point x="693" y="1008"/>
      <point x="639" y="894"/>
    </contour>
  </outline>
</glyph>
<glyph name="nine" format="2">
  <advance width="956"/>
  <unicode hex="0039"/>
  <outline>
    <contour>
      <point x="876" y="808" type="line" smooth="yes"/>
      <point x="876" y="316"/>
      <point x="720" y="-17"/>
      <point x="456" y="-17" type="curve" smooth="yes"/>
      <point x="275" y="-17"/>
      <point x="177" y="53"/>
      <point x="115" y="115" type="curve" smooth="yes"/>
      <point x="96" y="134"/>
      <point x="100" y="142"/>
      <point x="129" y="190" type="curve" smooth="yes"/>
      <point x="154" y="231"/>
      <point x="174" y="237"/>
      <point x="181" y="227" type="curve" smooth="yes"/>
      <point x="226" y="160"/>
      <point x="326" y="64"/>
      <point x="424" y="64" type="curve" smooth="yes"/>
      <point x="621" y="64"/>
      <point x="730" y="305"/>
      <point x="740" y="712" type="curve"/>
      <point x="692" y="644"/>
      <point x="607" y="574"/>
      <point x="488" y="574" type="curve" smooth="yes"/>
      <point x="224" y="574"/>
      <point x="80" y="745"/>
      <point x="80" y="1026" type="curve" smooth="yes"/>
      <point x="80" y="1292"/>
      <point x="236" y="1499"/>
      <point x="478" y="1499" type="curve" smooth="yes"/>
      <point x="723" y="1499"/>
      <point x="876" y="1267"/>
      <point x="876" y="808" type="curve" smooth="yes"/>
    </contour>
    <contour>
      <point x="733" y="957" type="line"/>
      <point x="704" y="1264"/>
      <point x="598" y="1418"/>
      <point x="478" y="1418" type="curve" smooth="yes"/>
      <point x="326" y="1418"/>
      <point x="213" y="1245"/>
      <point x="213" y="1026" type="curve" smooth="yes"/>
      <point x="213" y="799"/>
      <point x="328" y="655"/>
      <point x="478" y="655" type="curve" smooth="yes"/>
      <point x="601" y="655"/>
      <point x="695" y="781"/>
      <point x="733" y="957" type="curve"/>
    </contour>
  </outline>
</glyph>
<glyph name="semicolon" format="2">
  <advance width="407"/>
  <unicode hex="003B"/>
  <outline>
    <contour>
      <point x="293" y="709" type="line" smooth="yes"/>
      <point x="293" y="633"/>
      <point x="251" y="583"/>
      <point x="200" y="583" type="curve" smooth="yes"/>
      <point x="148" y="583"/>
      <point x="108" y="635"/>
      <point x="108" y="709" type="curve" smooth="yes"/>
      <point x="108" y="789"/>
      <point x="155" y="831"/>
      <point x="200" y="831" type="curve" smooth="yes"/>
      <point x="245" y="831"/>
      <point x="293" y="785"/>
      <point x="293" y="709" type="curve" smooth="yes"/>
    </contour>
    <contour>
      <point x="316" y="3" type="line" smooth="yes" name="hr01"/>
      <point x="316" y="-250"/>
      <point x="109" y="-423"/>
      <point x="102" y="-397" type="curve" smooth="yes"/>
      <point x="96" y="-378"/>
      <point x="259" y="-244"/>
      <point x="259" y="-35" type="curve" smooth="yes"/>
      <point x="259" y="-12"/>
      <point x="247" y="12"/>
      <point x="239" y="12" type="curve" smooth="yes"/>
      <point x="229" y="12"/>
      <point x="206" y="-17"/>
      <point x="181" y="-17" type="curve" smooth="yes"/>
      <point x="136" y="-17"/>
      <point x="96" y="41"/>
      <point x="96" y="107" type="curve" smooth="yes" name="hr02"/>
      <point x="96" y="183"/>
      <point x="150" y="225"/>
      <point x="192" y="225" type="curve" smooth="yes"/>
      <point x="282" y="225"/>
      <point x="316" y="115"/>
      <point x="316" y="3" type="curve" smooth="yes"/>
    </contour>
  </outline>
</glyph>
<glyph name="equal" format="2">
  <advance width="1970"/>
  <unicode hex="003D"/>
  <outline>
    <contour>
      <point x="1576" y="709" type="line"/>
      <point x="394" y="709" type="line"/>
      <point x="394" y="831" type="line"/>
      <point x="1576" y="831" type="line"/>
    </contour>
    <contour>
      <point x="1576" y="351" type="line"/>
      <point x="394" y="351" type="line"/>
      <point x="394" y="473" type="line"/>
      <point x="1576" y="473" type="line"/>
    </contour>
  </outline>
</glyph>
<glyph name="greater" format="2">
  <advance width="827"/>
  <unicode hex="003E"/>
  <outline>
    <contour>
      <point x="770" y="575" type="curve"/>
      <point x="749" y="597" type="line"/>
      <point x="133" y="827" type="line"/>
      <point x="111" y="808"/>
      <point x="84" y="789"/>
      <point x="56" y="767" type="curve"/>
      <point x="71" y="731" type="line"/>
      <point x="591" y="538" type="line"/>
      <point x="84" y="348" type="line"/>
      <point x="75" y="327"/>
      <point x="64" y="282"/>
      <point x="56" y="258" type="curve"/>
      <point x="79" y="235" type="line"/>
      <point x="742" y="482" type="line"/>
      <point x="753" y="509"/>
      <point x="765" y="552"/>
    </contour>
  </outline>
</glyph>
<glyph name="question" format="2">
  <advance width="720"/>
  <unicode hex="003F"/>
  <outline>
    <contour>
      <point x="624" y="722" type="line" smooth="yes"/>
      <point x="621" y="495"/>
      <point x="422" y="452"/>
      <point x="412" y="441" type="curve" smooth="yes"/>
      <point x="400" y="428"/>
      <point x="404" y="242"/>
      <point x="406" y="221" type="curve" smooth="yes"/>
      <point x="407" y="212"/>
      <point x="403" y="203"/>
      <point x="367" y="203" type="curve" smooth="yes"/>
      <point x="327" y="203"/>
      <point x="321" y="207"/>
      <point x="318" y="220" type="curve" smooth="yes"/>
      <point x="314" y="242"/>
      <point x="321" y="471"/>
      <point x="332" y="486" type="curve" smooth="yes"/>
      <point x="341" y="498"/>
      <point x="520" y="543"/>
      <point x="520" y="717" type="curve" smooth="yes"/>
      <point x="520" y="830"/>
      <point x="445" y="901"/>
      <point x="379" y="901" type="curve" smooth="yes"/>
      <point x="287" y="901"/>
      <point x="228" y="822"/>
      <point x="203" y="747" type="curve" smooth="yes"/>
      <point x="197" y="730"/>
      <point x="187" y="727"/>
      <point x="143" y="753" type="curve" smooth="yes"/>
      <point x="99" y="779"/>
      <point x="92" y="794"/>
      <point x="101" y="807" type="curve" smooth="yes"/>
      <point x="140" y="866"/>
      <point x="216" y="968"/>
      <point x="382" y="968" type="curve" smooth="yes"/>
      <point x="503" y="968"/>
      <point x="626" y="879"/>
      <point x="624" y="722" type="curve" smooth="yes"/>
    </contour>
    <contour>
      <point x="434" y="52" type="line" smooth="yes"/>
      <point x="434" y="15"/>
      <point x="404" y="-17"/>
      <point x="367" y="-17" type="curve" smooth="yes"/>
      <point x="330" y="-17"/>
      <point x="302" y="15"/>
      <point x="302" y="52" type="curve" smooth="yes"/>
      <point x="302" y="89"/>
      <point x="326" y="128"/>
      <point x="363" y="128" type="curve" smooth="yes"/>
      <point x="403" y="128"/>
      <point x="434" y="102"/>
      <point x="434" y="52" type="curve" smooth="yes"/>
    </contour>
  </outline>
</glyph>
<glyph name="A" format="2">
  <advance width="1472"/>
  <unicode hex="0041"/>
  <outline>
    <contour>
      <point x="1456" y="0" type="line"/>
      <point x="922" y="0" type="line"/>
      <point x="922" y="37" type="line"/>
      <point x="1109" y="41"/>
      <point x="1065" y="149"/>
      <point x="1019" y="260" type="curve" smooth="yes"/>
      <point x="938" y="455" type="line"/>
      <point x="412" y="455" type="line"/>
      <point x="319" y="238" type="line" smooth="yes"/>
      <point x="267" y="117"/>
      <point x="254" y="53"/>
      <point x="443" y="37" type="curve"/>
      <point x="443" y="0" type="line"/>
      <point x="16" y="0" type="line"/>
      <point x="16" y="37" type="line"/>
      <point x="130" y="45"/>
      <point x="177" y="122"/>
      <point x="240" y="270" type="curve" smooth="yes"/>
      <point x="717" y="1387" type="line"/>
      <point x="753" y="1387" type="line"/>
      <point x="1223" y="260" type="line" smooth="yes"/>
      <point x="1303" y="70"/>
      <point x="1344" y="45"/>
      <point x="1456" y="37" type="curve"/>
    </contour>
    <contour>
      <point x="910" y="528" type="line"/>
      <point x="680" y="1078" type="line"/>
      <point x="443" y="528" type="line"/>
    </contour>
  </outline>
</glyph>
<glyph name="B" format="2">
  <advance width="1332"/>
  <unicode hex="0042"/>
  <outline>
    <contour>
      <point x="35" y="0" type="line"/>
      <point x="674" y="0" type="line" smooth="yes"/>
      <point x="906" y="0"/>
      <point x="1030" y="30"/>
      <point x="1117" y="99" type="curve" smooth="yes"/>
      <point x="1205" y="168"/>
      <point x="1253" y="276"/>
      <point x="1253" y="370" type="curve" smooth="yes"/>
      <point x="1253" y="524"/>
      <point x="1158" y="652"/>
      <point x="946" y="694" type="curve"/>
      <point x="1109" y="745"/>
      <point x="1192" y="861"/>
      <point x="1192" y="993" type="curve" smooth="yes"/>
      <point x="1192" y="1155"/>
      <point x="1099" y="1355"/>
      <point x="621" y="1355" type="curve" smooth="yes"/>
      <point x="35" y="1355" type="line"/>
      <point x="35" y="1320" type="line"/>
      <point x="85" y="1320" type="line" smooth="yes"/>
      <point x="138" y="1320"/>
      <point x="176" y="1305"/>
      <point x="201" y="1277" type="curve" smooth="yes"/>
      <point x="221" y="1254"/>
      <point x="229" y="1200"/>
      <point x="229" y="1117" type="curve" smooth="yes"/>
      <point x="229" y="240" type="line" smooth="yes"/>
      <point x="229" y="164"/>
      <point x="221" y="114"/>
      <point x="207" y="93" type="curve" smooth="yes"/>
      <point x="182" y="55"/>
      <point x="142" y="37"/>
      <point x="85" y="37" type="curve" smooth="yes"/>
      <point x="35" y="37" type="line" name="hr01"/>
    </contour>
    <contour>
      <point x="652" y="71" type="curve" smooth="yes"/>
      <point x="575" y="71"/>
      <point x="500" y="81"/>
      <point x="422" y="99" type="curve"/>
      <point x="422" y="654" type="line"/>
      <point x="459" y="662"/>
      <point x="514" y="664"/>
      <point x="599" y="664" type="curve" smooth="yes"/>
      <point x="875" y="664"/>
      <point x="1023" y="536"/>
      <point x="1023" y="355" type="curve" smooth="yes" name="hr04"/>
      <point x="1023" y="189"/>
      <point x="892" y="71"/>
    </contour>
    <contour>
      <point x="613" y="733" type="curve" smooth="yes"/>
      <point x="534" y="733"/>
      <point x="473" y="735"/>
      <point x="422" y="747" type="curve"/>
      <point x="422" y="1269" type="line"/>
      <point x="475" y="1283"/>
      <point x="536" y="1289"/>
      <point x="603" y="1289" type="curve" smooth="yes"/>
      <point x="859" y="1289"/>
      <point x="981" y="1157"/>
      <point x="981" y="1003" type="curve" smooth="yes" name="hr03"/>
      <point x="981" y="833"/>
      <point x="877" y="733"/>
    </contour>
  </outline>
</glyph>
<glyph name="C" format="2">
  <advance width="1367"/>
  <unicode hex="0043"/>
  <outline>
    <contour>
      <point x="733" y="-32" type="curve" smooth="yes"/>
      <point x="989" y="-32"/>
      <point x="1160" y="81"/>
      <point x="1294" y="317" type="curve"/>
      <point x="1265" y="339" type="line"/>
      <point x="1105" y="112"/>
      <point x="989" y="57"/>
      <point x="810" y="57" type="curve" smooth="yes"/>
      <point x="504" y="57"/>
      <point x="301" y="268"/>
      <point x="301" y="656" type="curve" smooth="yes"/>
      <point x="301" y="1107"/>
      <point x="502" y="1316"/>
      <point x="780" y="1316" type="curve" smooth="yes"/>
      <point x="991" y="1316"/>
      <point x="1151" y="1204"/>
      <point x="1233" y="926" type="curve"/>
      <point x="1265" y="926" type="line"/>
      <point x="1233" y="1387" type="line"/>
      <point x="1198" y="1387" type="line"/>
      <point x="1182" y="1324"/>
      <point x="1151" y="1292"/>
      <point x="1115" y="1292" type="curve" smooth="yes"/>
      <point x="1074" y="1292"/>
      <point x="969" y="1387"/>
      <point x="764" y="1387" type="curve" smooth="yes"/>
      <point x="349" y="1387"/>
      <point x="73" y="1052"/>
      <point x="73" y="658" type="curve" smooth="yes"/>
      <point x="73" y="288"/>
      <point x="317" y="-32"/>
    </contour>
  </outline>
</glyph>
<glyph name="D" format="2">
  <advance width="1480"/>
  <unicode hex="0044"/>
  <outline>
    <contour>
      <point x="1401" y="686" type="line" smooth="yes"/>
      <point x="1401" y="305"/>
      <point x="1164" y="0"/>
      <point x="642" y="0" type="curve" smooth="yes"/>
      <point x="35" y="0" type="line"/>
      <point x="35" y="37" type="line" name="hr01"/>
      <point x="87" y="37" type="line" smooth="yes"/>
      <point x="144" y="37"/>
      <point x="185" y="56"/>
      <point x="207" y="93" type="curve" smooth="yes"/>
      <point x="220" y="115"/>
      <point x="229" y="164"/>
      <point x="229" y="240" type="curve" smooth="yes"/>
      <point x="229" y="1117" type="line" smooth="yes"/>
      <point x="229" y="1200"/>
      <point x="221" y="1253"/>
      <point x="203" y="1277" type="curve"/>
      <point x="175" y="1304"/>
      <point x="138" y="1320"/>
      <point x="87" y="1320" type="curve" smooth="yes"/>
      <point x="35" y="1320" type="line"/>
      <point x="35" y="1355" type="line"/>
      <point x="587" y="1355" type="line" smooth="yes"/>
      <point x="887" y="1355"/>
      <point x="1064" y="1309"/>
      <point x="1192" y="1196" type="curve" smooth="yes"/>
      <point x="1319" y="1084"/>
      <point x="1401" y="898"/>
      <point x="1401" y="686" type="curve" smooth="yes"/>
    </contour>
    <contour>
      <point x="1174" y="676" type="line" smooth="yes"/>
      <point x="1174" y="1050"/>
      <point x="946" y="1281"/>
      <point x="627" y="1281" type="curve" smooth="yes" name="hr02"/>
      <point x="567" y="1281"/>
      <point x="500" y="1273"/>
      <point x="422" y="1251" type="curve"/>
      <point x="422" y="99" type="line"/>
      <point x="506" y="81"/>
      <point x="577" y="69"/>
      <point x="634" y="69" type="curve" smooth="yes"/>
      <point x="940" y="67"/>
      <point x="1174" y="297"/>
      <point x="1174" y="676" type="curve" smooth="yes"/>
    </contour>
  </outline>
</glyph>
<glyph name="E" format="2">
  <advance width="1251"/>
  <unicode hex="0045"/>
  <outline>
    <contour>
      <point x="43" y="0" type="line"/>
      <point x="1088" y="0" type="line"/>
      <point x="1206" y="341" type="line"/>
      <point x="1164" y="341" type="line"/>
      <point x="1038" y="118"/>
      <point x="993" y="73"/>
      <point x="770" y="73" type="curve" smooth="yes"/>
      <point x="542" y="73" type="line" smooth="yes"/>
      <point x="414" y="73"/>
      <point x="428" y="138"/>
      <point x="428" y="225" type="curve" smooth="yes"/>
      <point x="428" y="672" type="line"/>
      <point x="725" y="672" type="line" smooth="yes"/>
      <point x="908" y="672"/>
      <point x="920" y="613"/>
      <point x="940" y="471" type="curve"/>
      <point x="977" y="471" type="line"/>
      <point x="977" y="942" type="line"/>
      <point x="940" y="942" type="line"/>
      <point x="920" y="804"/>
      <point x="910" y="747"/>
      <point x="725" y="747" type="curve" smooth="yes"/>
      <point x="428" y="747" type="line"/>
      <point x="428" y="1283" type="line"/>
      <point x="802" y="1283" type="line" smooth="yes" name="hr03"/>
      <point x="1042" y="1283"/>
      <point x="1034" y="1176"/>
      <point x="1064" y="1060" type="curve"/>
      <point x="1103" y="1060" type="line" name="hr02"/>
      <point x="1088" y="1355" type="line"/>
      <point x="43" y="1355" type="line"/>
      <point x="43" y="1320" type="line"/>
      <point x="91" y="1320" type="line" smooth="yes"/>
      <point x="146" y="1320"/>
      <point x="187" y="1304"/>
      <point x="211" y="1279" type="curve" smooth="yes"/>
      <point x="227" y="1261"/>
      <point x="236" y="1208"/>
      <point x="236" y="1121" type="curve" smooth="yes"/>
      <point x="236" y="240" type="line" smooth="yes"/>
      <point x="236" y="122"/>
      <point x="225" y="93"/>
      <point x="197" y="69" type="curve" smooth="yes"/>
      <point x="169" y="45"/>
      <point x="112" y="37"/>
      <point x="91" y="37" type="curve" smooth="yes"/>
      <point x="43" y="37" type="line" name="hr01"/>
    </contour>
  </outline>
</glyph>
<glyph name="F" format="2">
  <advance width="1139"/>
  <unicode hex="0046"/>
  <outline>
    <contour>
      <point x="33" y="0" type="line"/>
      <point x="615" y="0" type="line"/>
      <point x="615" y="37" type="line"/>
      <point x="565" y="37" type="line" smooth="yes"/>
      <point x="518" y="37"/>
      <point x="469" y="55"/>
      <point x="441" y="89" type="curve"/>
      <point x="422" y="108"/>
      <point x="420" y="154"/>
      <point x="420" y="240" type="curve" smooth="yes"/>
      <point x="420" y="666" type="line"/>
      <point x="666" y="666" type="line" smooth="yes"/>
      <point x="802" y="666"/>
      <point x="843" y="603"/>
      <point x="843" y="475" type="curve"/>
      <point x="881" y="475" type="line"/>
      <point x="881" y="934" type="line"/>
      <point x="843" y="934" type="line"/>
      <point x="824" y="794"/>
      <point x="784" y="751"/>
      <point x="666" y="751" type="curve" smooth="yes"/>
      <point x="420" y="751" type="line"/>
      <point x="420" y="1283" type="line"/>
      <point x="719" y="1283" type="line" smooth="yes" name="hr01"/>
      <point x="918" y="1283"/>
      <point x="971" y="1225"/>
      <point x="1021" y="1060" type="curve"/>
      <point x="1056" y="1060" type="line"/>
      <point x="1042" y="1355" type="line"/>
      <point x="33" y="1355" type="line" name="hr03"/>
      <point x="33" y="1320" type="line"/>
      <point x="83" y="1320" type="line" smooth="yes" name="hr02"/>
      <point x="126" y="1320"/>
      <point x="171" y="1302"/>
      <point x="199" y="1275" type="curve" smooth="yes"/>
      <point x="219" y="1255"/>
      <point x="227" y="1214"/>
      <point x="227" y="1117" type="curve" smooth="yes"/>
      <point x="227" y="240" type="line" smooth="yes"/>
      <point x="227" y="158"/>
      <point x="219" y="106"/>
      <point x="203" y="87" type="curve" smooth="yes"/>
      <point x="176" y="53"/>
      <point x="138" y="37"/>
      <point x="83" y="37" type="curve" smooth="yes"/>
      <point x="33" y="37" type="line"/>
    </contour>
  </outline>
</glyph>
<glyph name="G" format="2">
  <advance width="1480"/>
  <unicode hex="0047"/>
  <outline>
    <contour>
      <point x="822" y="-32" type="curve" smooth="yes"/>
      <point x="991" y="-32"/>
      <point x="1149" y="4"/>
      <point x="1298" y="91" type="curve"/>
      <point x="1298" y="504" type="line" smooth="yes" name="hr01"/>
      <point x="1298" y="577"/>
      <point x="1304" y="627"/>
      <point x="1320" y="650" type="curve"/>
      <point x="1338" y="686"/>
      <point x="1373" y="703"/>
      <point x="1426" y="703" type="curve" smooth="yes"/>
      <point x="1450" y="703" type="line"/>
      <point x="1450" y="739" type="line"/>
      <point x="926" y="739" type="line"/>
      <point x="926" y="703" type="line" name="hr02"/>
      <point x="1074" y="697"/>
      <point x="1103" y="674"/>
      <point x="1103" y="504" type="curve" smooth="yes"/>
      <point x="1103" y="112" type="line"/>
      <point x="1015" y="59"/>
      <point x="920" y="37"/>
      <point x="824" y="37" type="curve" smooth="yes"/>
      <point x="524" y="37"/>
      <point x="299" y="313"/>
      <point x="301" y="701" type="curve" smooth="yes"/>
      <point x="303" y="1050"/>
      <point x="481" y="1318"/>
      <point x="810" y="1318" type="curve" smooth="yes"/>
      <point x="1013" y="1318"/>
      <point x="1172" y="1218"/>
      <point x="1259" y="959" type="curve"/>
      <point x="1292" y="959" type="line"/>
      <point x="1259" y="1387" type="line"/>
      <point x="1222" y="1387" type="line"/>
      <point x="1214" y="1316"/>
      <point x="1190" y="1300"/>
      <point x="1172" y="1300" type="curve" smooth="yes"/>
      <point x="1123" y="1300"/>
      <point x="1017" y="1387"/>
      <point x="790" y="1387" type="curve" smooth="yes"/>
      <point x="319" y="1387"/>
      <point x="71" y="991"/>
      <point x="71" y="658" type="curve" smooth="yes"/>
      <point x="71" y="272"/>
      <point x="351" y="-32"/>
    </contour>
  </outline>
</glyph>
<glyph name="H" format="2">
  <advance width="1480"/>
  <unicode hex="0048"/>
  <outline>
    <contour>
      <point x="1438" y="0" type="line"/>
      <point x="857" y="0" type="line"/>
      <point x="857" y="37" type="line"/>
      <point x="906" y="37" type="line" smooth="yes"/>
      <point x="961" y="37"/>
      <point x="1001" y="53"/>
      <point x="1026" y="87" type="curve" smooth="yes"/>
      <point x="1042" y="107"/>
      <point x="1052" y="158"/>
      <point x="1052" y="240" type="curve" smooth="yes"/>
      <point x="1052" y="654" type="line"/>
      <point x="420" y="654" type="line"/>
      <point x="420" y="240" type="line" smooth="yes"/>
      <point x="420" y="150"/>
      <point x="427" y="106"/>
      <point x="445" y="85" type="curve" smooth="yes"/>
      <point x="469" y="57"/>
      <point x="520" y="37"/>
      <point x="567" y="37" type="curve" smooth="yes"/>
      <point x="617" y="37" type="line"/>
      <point x="617" y="0" type="line"/>
      <point x="35" y="0" type="line"/>
      <point x="35" y="37" type="line"/>
      <point x="85" y="37" type="line" smooth="yes"/>
      <point x="140" y="37"/>
      <point x="177" y="53"/>
      <point x="205" y="87" type="curve" smooth="yes"/>
      <point x="221" y="106"/>
      <point x="229" y="158"/>
      <point x="229" y="240" type="curve" smooth="yes"/>
      <point x="229" y="1117" type="line" smooth="yes"/>
      <point x="229" y="1212"/>
      <point x="222" y="1247"/>
      <point x="201" y="1275" type="curve" smooth="yes"/>
      <point x="183" y="1298"/>
      <point x="124" y="1320"/>
      <point x="85" y="1320" type="curve" smooth="yes"/>
      <point x="35" y="1320" type="line"/>
      <point x="35" y="1355" type="line"/>
      <point x="617" y="1355" type="line"/>
      <point x="617" y="1320" type="line"/>
      <point x="567" y="1320" type="line" smooth="yes"/>
      <point x="522" y="1320"/>
      <point x="479" y="1308"/>
      <point x="451" y="1277" type="curve" smooth="yes"/>
      <point x="432" y="1255"/>
      <point x="420" y="1220"/>
      <point x="420" y="1117" type="curve" smooth="yes"/>
      <point x="420" y="727" type="line"/>
      <point x="1052" y="727" type="line"/>
      <point x="1052" y="1117" type="line" smooth="yes"/>
      <point x="1052" y="1216"/>
      <point x="1042" y="1257"/>
      <point x="1023" y="1277" type="curve" smooth="yes"/>
      <point x="997" y="1302"/>
      <point x="952" y="1320"/>
      <point x="906" y="1320" type="curve" smooth="yes"/>
      <point x="857" y="1320" type="line"/>
      <point x="857" y="1355" type="line"/>
      <point x="1438" y="1355" type="line"/>
      <point x="1438" y="1320" type="line"/>
      <point x="1389" y="1320" type="line" smooth="yes"/>
      <point x="1350" y="1320"/>
      <point x="1300" y="1305"/>
      <point x="1273" y="1277" type="curve" smooth="yes"/>
      <point x="1243" y="1246"/>
      <point x="1243" y="1224"/>
      <point x="1243" y="1117" type="curve" smooth="yes"/>
      <point x="1243" y="240" type="line" smooth="yes"/>
      <point x="1243" y="154"/>
      <point x="1246" y="116"/>
      <point x="1267" y="87" type="curve" smooth="yes"/>
      <point x="1291" y="52"/>
      <point x="1342" y="37"/>
      <point x="1389" y="37" type="curve" smooth="yes"/>
      <point x="1438" y="37" type="line"/>
    </contour>
  </outline>
</glyph>
<glyph name="I" format="2">
  <advance width="682"/>
  <unicode hex="0049"/>
  <outline>
    <contour>
      <point x="51" y="0" type="line"/>
      <point x="632" y="0" type="line"/>
      <point x="632" y="37" type="line"/>
      <point x="583" y="37" type="line" smooth="yes"/>
      <point x="536" y="37"/>
      <point x="475" y="63"/>
      <point x="461" y="85" type="curve" smooth="yes"/>
      <point x="446" y="109"/>
      <point x="437" y="154"/>
      <point x="437" y="240" type="curve" smooth="yes"/>
      <point x="437" y="1117" type="line" smooth="yes"/>
      <point x="437" y="1198"/>
      <point x="447" y="1250"/>
      <point x="463" y="1271" type="curve" smooth="yes"/>
      <point x="488" y="1303"/>
      <point x="528" y="1320"/>
      <point x="583" y="1320" type="curve" smooth="yes"/>
      <point x="632" y="1320" type="line"/>
      <point x="632" y="1355" type="line"/>
      <point x="51" y="1355" type="line"/>
      <point x="51" y="1320" type="line"/>
      <point x="100" y="1320" type="line" smooth="yes"/>
      <point x="146" y="1320"/>
      <point x="197" y="1300"/>
      <point x="223" y="1269" type="curve" smooth="yes"/>
      <point x="242" y="1245"/>
      <point x="244" y="1210"/>
      <point x="244" y="1117" type="curve" smooth="yes"/>
      <point x="244" y="240" type="line" smooth="yes"/>
      <point x="244" y="158"/>
      <point x="237" y="107"/>
      <point x="221" y="87" type="curve" smooth="yes"/>
      <point x="194" y="54"/>
      <point x="156" y="37"/>
      <point x="100" y="37" type="curve" smooth="yes"/>
      <point x="51" y="37" type="line"/>
    </contour>
  </outline>
</glyph>
<glyph name="J" format="2">
  <advance width="575"/>
  <unicode hex="004A"/>
  <anchor x="303" y="-552" name="L"/>
  <anchor x="303" y="1260" name="U"/>
  <outline>
    <contour>
      <point x="510" y="1119" type="curve"/>
      <point x="510" y="1159" type="line"/>
      <point x="50" y="1159" type="line"/>
      <point x="50" y="1119" type="line"/>
      <point x="197" y="1098"/>
      <point x="230" y="1077"/>
      <point x="230" y="1062" type="curve" smooth="yes"/>
      <point x="230" y="122" type="line" smooth="yes"/>
      <point x="230" y="-165"/>
      <point x="141" y="-236"/>
      <point x="77" y="-236" type="curve" smooth="yes"/>
      <point x="30" y="-236"/>
      <point x="0" y="-229"/>
      <point x="-68" y="-184" type="curve"/>
      <point x="-102" y="-196"/>
      <point x="-174" y="-255"/>
      <point x="-174" y="-276" type="curve" smooth="yes"/>
      <point x="-174" y="-297"/>
      <point x="-97" y="-349"/>
      <point x="-23" y="-349" type="curve" smooth="yes"/>
      <point x="24" y="-349"/>
      <point x="128" y="-318"/>
      <point x="194" y="-264" type="curve" smooth="yes"/>
      <point x="290" y="-186"/>
      <point x="377" y="-102"/>
      <point x="377" y="188" type="curve" smooth="yes"/>
      <point x="377" y="1062" type="line" smooth="yes"/>
      <point x="377" y="1080"/>
      <point x="427" y="1102"/>
    </contour>
  </outline>
</glyph>
<glyph name="K" format="2">
  <advance width="1480"/>
  <unicode hex="004B"/>
  <outline>
    <contour>
      <point x="35" y="0" type="line"/>
      <point x="613" y="0" type="line"/>
      <point x="613" y="37" type="line"/>
      <point x="565" y="37" type="line" smooth="yes"/>
      <point x="516" y="37"/>
      <point x="466" y="55"/>
      <point x="443" y="87" type="curve" smooth="yes"/>
      <point x="423" y="116"/>
      <point x="420" y="154"/>
      <point x="420" y="240" type="curve" smooth="yes"/>
      <point x="420" y="560" type="line"/>
      <point x="479" y="619" type="line"/>
      <point x="887" y="213" type="line" smooth="yes"/>
      <point x="946" y="154"/>
      <point x="965" y="128"/>
      <point x="961" y="100" type="curve" smooth="yes"/>
      <point x="957" y="65"/>
      <point x="928" y="37"/>
      <point x="851" y="37" type="curve"/>
      <point x="851" y="0" type="line"/>
      <point x="1497" y="0" type="line"/>
      <point x="1497" y="37" type="line" name="hr02"/>
      <point x="1438" y="43"/>
      <point x="1381" y="58"/>
      <point x="1324" y="87" type="curve" smooth="yes"/>
      <point x="1265" y="117"/>
      <point x="1194" y="174"/>
      <point x="1113" y="254" type="curve" smooth="yes"/>
      <point x="613" y="753" type="line"/>
      <point x="820" y="959" type="line" smooth="yes"/>
      <point x="1078" y="1218"/>
      <point x="1062" y="1210"/>
      <point x="1151" y="1265" type="curve" smooth="yes"/>
      <point x="1223" y="1310"/>
      <point x="1263" y="1320"/>
      <point x="1320" y="1320" type="curve"/>
      <point x="1320" y="1355" type="line"/>
      <point x="820" y="1355" type="line"/>
      <point x="820" y="1320" type="line" name="hr01"/>
      <point x="851" y="1320" type="line" smooth="yes"/>
      <point x="918" y="1320"/>
      <point x="942" y="1290"/>
      <point x="942" y="1263" type="curve" smooth="yes"/>
      <point x="942" y="1239"/>
      <point x="934" y="1218"/>
      <point x="916" y="1192" type="curve" smooth="yes"/>
      <point x="875" y="1131"/>
      <point x="755" y="1001"/>
      <point x="558" y="818" type="curve" smooth="yes"/>
      <point x="479" y="745"/>
      <point x="433" y="703"/>
      <point x="420" y="692" type="curve"/>
      <point x="420" y="1117" type="line" smooth="yes"/>
      <point x="420" y="1231"/>
      <point x="431" y="1259"/>
      <point x="453" y="1281" type="curve" smooth="yes"/>
      <point x="481" y="1308"/>
      <point x="526" y="1320"/>
      <point x="565" y="1320" type="curve" smooth="yes"/>
      <point x="613" y="1320" type="line"/>
      <point x="613" y="1355" type="line"/>
      <point x="35" y="1355" type="line"/>
      <point x="35" y="1320" type="line"/>
      <point x="83" y="1320" type="line" smooth="yes"/>
      <point x="126" y="1320"/>
      <point x="186" y="1295"/>
      <point x="201" y="1277" type="curve" smooth="yes"/>
      <point x="219" y="1255"/>
      <point x="227" y="1208"/>
      <point x="227" y="1117" type="curve" smooth="yes"/>
      <point x="227" y="240" type="line" smooth="yes"/>
      <point x="227" y="158"/>
      <point x="221" y="106"/>
      <point x="205" y="87" type="curve" smooth="yes"/>
      <point x="177" y="53"/>
      <point x="138" y="37"/>
      <point x="83" y="37" type="curve" smooth="yes"/>
      <point x="35" y="37" type="line"/>
    </contour>
  </outline>
</glyph>
<glyph name="L" format="2">
  <advance width="1251"/>
  <unicode hex="004C"/>
  <outline>
    <contour>
      <point x="1210" y="368" type="line"/>
      <point x="1091" y="0" type="line"/>
      <point x="37" y="0" type="line"/>
      <point x="37" y="37" type="line"/>
      <point x="156" y="37"/>
      <point x="236" y="53"/>
      <point x="236" y="207" type="curve" smooth="yes"/>
      <point x="236" y="1149" type="line" smooth="yes"/>
      <point x="236" y="1302"/>
      <point x="156" y="1318"/>
      <point x="37" y="1318" type="curve"/>
      <point x="37" y="1355" type="line"/>
      <point x="627" y="1355" type="line"/>
      <point x="627" y="1318" type="line"/>
      <point x="508" y="1318"/>
      <point x="428" y="1302"/>
      <point x="428" y="1149" type="curve" smooth="yes"/>
      <point x="428" y="256" type="line" smooth="yes"/>
      <point x="428" y="102"/>
      <point x="479" y="87"/>
      <point x="597" y="87" type="curve" smooth="yes"/>
      <point x="735" y="87" type="line" smooth="yes"/>
      <point x="898" y="87"/>
      <point x="965" y="97"/>
      <point x="1023" y="146" type="curve" smooth="yes"/>
      <point x="1091" y="205"/>
      <point x="1123" y="254"/>
      <point x="1174" y="374" type="curve"/>
    </contour>
  </outline>
</glyph>
<glyph name="M" format="2">
  <advance width="1822"/>
  <unicode hex="004D"/>
  <outline>
    <contour>
      <point x="35" y="0" type="line"/>
      <point x="506" y="0" type="line"/>
      <point x="506" y="37" type="line"/>
      <point x="459" y="37" type="line" smooth="yes"/>
      <point x="404" y="37"/>
      <point x="365" y="52"/>
      <point x="343" y="79" type="curve" smooth="yes"/>
      <point x="324" y="101"/>
      <point x="313" y="152"/>
      <point x="313" y="236" type="curve" smooth="yes"/>
      <point x="313" y="1141" type="line"/>
      <point x="837" y="0" type="line"/>
      <point x="871" y="0" type="line"/>
      <point x="1395" y="1141" type="line"/>
      <point x="1395" y="236" type="line" smooth="yes"/>
      <point x="1395" y="158"/>
      <point x="1387" y="110"/>
      <point x="1373" y="91" type="curve" smooth="yes"/>
      <point x="1347" y="53"/>
      <point x="1310" y="37"/>
      <point x="1249" y="37" type="curve" smooth="yes"/>
      <point x="1202" y="37" type="line"/>
      <point x="1202" y="0" type="line"/>
      <point x="1779" y="0" type="line"/>
      <point x="1779" y="37" type="line"/>
      <point x="1732" y="37" type="line" smooth="yes"/>
      <point x="1679" y="37"/>
      <point x="1640" y="52"/>
      <point x="1616" y="79" type="curve" smooth="yes"/>
      <point x="1596" y="101"/>
      <point x="1586" y="152"/>
      <point x="1586" y="236" type="curve" smooth="yes"/>
      <point x="1586" y="1121" type="line" smooth="yes"/>
      <point x="1586" y="1198"/>
      <point x="1594" y="1245"/>
      <point x="1608" y="1269" type="curve"/>
      <point x="1633" y="1302"/>
      <point x="1675" y="1320"/>
      <point x="1732" y="1320" type="curve" smooth="yes"/>
      <point x="1779" y="1320" type="line"/>
      <point x="1779" y="1355" type="line"/>
      <point x="1395" y="1355" type="line"/>
      <point x="910" y="296" type="line"/>
      <point x="418" y="1355" type="line"/>
      <point x="35" y="1355" type="line"/>
      <point x="35" y="1320" type="line"/>
      <point x="116" y="1320"/>
      <point x="152" y="1305"/>
      <point x="181" y="1283" type="curve" smooth="yes"/>
      <point x="217" y="1255"/>
      <point x="225" y="1206"/>
      <point x="225" y="1121" type="curve" smooth="yes"/>
      <point x="225" y="236" type="line" smooth="yes"/>
      <point x="225" y="158"/>
      <point x="217" y="110"/>
      <point x="205" y="91" type="curve" smooth="yes"/>
      <point x="177" y="53"/>
      <point x="140" y="37"/>
      <point x="83" y="37" type="curve" smooth="yes"/>
      <point x="35" y="37" type="line"/>
    </contour>
  </outline>
</glyph>
<glyph name="N" format="2">
  <advance width="1480"/>
  <unicode hex="004E"/>
  <outline>
    <contour>
      <point x="1223" y="-22" type="line"/>
      <point x="1259" y="-22" type="line"/>
      <point x="1259" y="1121" type="line" smooth="yes"/>
      <point x="1259" y="1198"/>
      <point x="1266" y="1246"/>
      <point x="1281" y="1269" type="curve" smooth="yes"/>
      <point x="1303" y="1303"/>
      <point x="1346" y="1320"/>
      <point x="1403" y="1320" type="curve" smooth="yes"/>
      <point x="1450" y="1320" type="line"/>
      <point x="1450" y="1355" type="line"/>
      <point x="979" y="1355" type="line"/>
      <point x="979" y="1320" type="line"/>
      <point x="1024" y="1320" type="line" smooth="yes"/>
      <point x="1080" y="1320"/>
      <point x="1118" y="1303"/>
      <point x="1143" y="1277" type="curve" smooth="yes"/>
      <point x="1162" y="1256"/>
      <point x="1170" y="1206"/>
      <point x="1170" y="1121" type="curve" smooth="yes"/>
      <point x="1170" y="339" type="line"/>
      <point x="343" y="1355" type="line"/>
      <point x="12" y="1355" type="line"/>
      <point x="12" y="1320" type="line"/>
      <point x="171" y="1320"/>
      <point x="215" y="1208"/>
      <point x="240" y="1178" type="curve"/>
      <point x="240" y="236" type="line" smooth="yes"/>
      <point x="240" y="158"/>
      <point x="232" y="110"/>
      <point x="217" y="91" type="curve"/>
      <point x="195" y="53"/>
      <point x="154" y="37"/>
      <point x="95" y="37" type="curve" smooth="yes"/>
      <point x="47" y="37" type="line"/>
      <point x="47" y="0" type="line"/>
      <point x="520" y="0" type="line"/>
      <point x="520" y="37" type="line"/>
      <point x="473" y="37" type="line" smooth="yes" name="hr01"/>
      <point x="420" y="37"/>
      <point x="380" y="51"/>
      <point x="355" y="79" type="curve" smooth="yes"/>
      <point x="336" y="100"/>
      <point x="327" y="152"/>
      <point x="327" y="236" type="curve" smooth="yes"/>
      <point x="327" y="1070" type="line"/>
    </contour>
  </outline>
</glyph>
<glyph name="O" format="2">
  <advance width="1480"/>
  <unicode hex="004F"/>
  <outline>
    <contour>
      <point x="1399" y="686" type="line" smooth="yes"/>
      <point x="1399" y="276"/>
      <point x="1111" y="-32"/>
      <point x="733" y="-32" type="curve" smooth="yes"/>
      <point x="364" y="-32"/>
      <point x="71" y="256"/>
      <point x="71" y="682" type="curve" smooth="yes"/>
      <point x="71" y="1088"/>
      <point x="364" y="1387"/>
      <point x="751" y="1387" type="curve" smooth="yes"/>
      <point x="1105" y="1387"/>
      <point x="1399" y="1092"/>
      <point x="1399" y="686" type="curve" smooth="yes"/>
    </contour>
    <contour>
      <point x="1172" y="660" type="line" smooth="yes"/>
      <point x="1174" y="1074"/>
      <point x="1028" y="1314"/>
      <point x="729" y="1316" type="curve" smooth="yes"/>
      <point x="457" y="1318"/>
      <point x="301" y="1076"/>
      <point x="301" y="688" type="curve" smooth="yes"/>
      <point x="301" y="305"/>
      <point x="451" y="41"/>
      <point x="731" y="39" type="curve" smooth="yes"/>
      <point x="989" y="38"/>
      <point x="1170" y="232"/>
      <point x="1172" y="660" type="curve" smooth="yes"/>
    </contour>
  </outline>
</glyph>
<glyph name="P" format="2">
  <advance width="1139"/>
  <unicode hex="0050"/>
  <outline>
    <contour>
      <point x="1068" y="981" type="line" smooth="yes"/>
      <point x="1068" y="774"/>
      <point x="950" y="605"/>
      <point x="593" y="607" type="curve" smooth="yes"/>
      <point x="542" y="607"/>
      <point x="522" y="605"/>
      <point x="420" y="617" type="curve"/>
      <point x="420" y="240" type="line" smooth="yes"/>
      <point x="420" y="156"/>
      <point x="428" y="102"/>
      <point x="449" y="83" type="curve"/>
      <point x="473" y="53"/>
      <point x="512" y="37"/>
      <point x="563" y="37" type="curve" smooth="yes"/>
      <point x="615" y="37" type="line"/>
      <point x="615" y="0" type="line"/>
      <point x="35" y="0" type="line"/>
      <point x="35" y="37" type="line"/>
      <point x="85" y="37" type="line" smooth="yes"/>
      <point x="142" y="37"/>
      <point x="184" y="56"/>
      <point x="207" y="93" type="curve" smooth="yes"/>
      <point x="220" y="113"/>
      <point x="227" y="162"/>
      <point x="227" y="240" type="curve" smooth="yes"/>
      <point x="227" y="1117" type="line" smooth="yes"/>
      <point x="227" y="1200"/>
      <point x="219" y="1253"/>
      <point x="201" y="1277" type="curve"/>
      <point x="175" y="1304"/>
      <point x="138" y="1320"/>
      <point x="85" y="1320" type="curve" smooth="yes" name="hr01"/>
      <point x="35" y="1320" type="line"/>
      <point x="35" y="1355" type="line"/>
      <point x="530" y="1355" type="line" smooth="yes"/>
      <point x="668" y="1355"/>
      <point x="818" y="1342"/>
      <point x="912" y="1271" type="curve" smooth="yes"/>
      <point x="999" y="1206"/>
      <point x="1068" y="1123"/>
      <point x="1068" y="981" type="curve" smooth="yes"/>
    </contour>
    <contour>
      <point x="839" y="961" type="line" smooth="yes"/>
      <point x="841" y="1127"/>
      <point x="743" y="1277"/>
      <point x="552" y="1277" type="curve" smooth="yes" name="hr02"/>
      <point x="518" y="1277"/>
      <point x="473" y="1269"/>
      <point x="420" y="1257" type="curve"/>
      <point x="420" y="684" type="line"/>
      <point x="489" y="674"/>
      <point x="544" y="672"/>
      <point x="583" y="672" type="curve" smooth="yes"/>
      <point x="721" y="672"/>
      <point x="837" y="786"/>
      <point x="839" y="961" type="curve" smooth="yes"/>
    </contour>
  </outline>
</glyph>
<glyph name="Q" format="2">
  <advance width="1130"/>
  <unicode hex="0051"/>
  <anchor x="555" y="-239" name="L"/>
  <anchor x="555" y="1260" name="U"/>
  <outline>
    <contour>
      <point x="1046" y="262"/>
      <point x="1046" y="595" type="curve"/>
      <point x="1046" y="895"/>
      <point x="885" y="1186"/>
      <point x="582" y="1186" type="curve" smooth="yes"/>
      <point x="293" y="1186"/>
      <point x="64" y="897"/>
      <point x="64" y="563" type="curve" smooth="yes"/>
      <point x="64" y="239"/>
      <point x="258" y="-27"/>
      <point x="529" y="-27" type="curve" smooth="yes"/>
      <point x="808" y="-27"/>
    </contour>
    <contour>
      <point x="1121" y="-214"/>
      <point x="1179" y="-107" type="curve"/>
      <point x="1154" y="-75" type="line"/>
      <point x="1081" y="-129"/>
      <point x="1049" y="-147"/>
      <point x="1019" y="-147" type="curve" smooth="yes"/>
      <point x="906" y="-147"/>
      <point x="760" y="7"/>
      <point x="620" y="45" type="curve" smooth="yes"/>
      <point x="587" y="54"/>
      <point x="460" y="18"/>
      <point x="460" y="18" type="curve"/>
      <point x="645" y="-14"/>
      <point x="823" y="-280"/>
      <point x="1013" y="-280" type="curve" smooth="yes"/>
      <point x="1051" y="-280"/>
    </contour>
    <contour>
      <point x="904" y="832"/>
      <point x="904" y="578" type="curve"/>
      <point x="904" y="253"/>
      <point x="759" y="82"/>
      <point x="555" y="82" type="curve" smooth="yes"/>
      <point x="367" y="82"/>
      <point x="207" y="314"/>
      <point x="207" y="589" type="curve" smooth="yes"/>
      <point x="207" y="889"/>
      <point x="337" y="1081"/>
      <point x="555" y="1081" type="curve" smooth="yes"/>
      <point x="764" y="1081"/>
    </contour>
  </outline>
</glyph>
<glyph name="R" format="2">
  <advance width="1057"/>
  <unicode hex="0052"/>
  <anchor x="253" y="0" name="H"/>
  <anchor x="478" y="-92" name="L"/>
  <anchor x="478" y="1260" name="U"/>
  <outline>
    <contour>
      <point x="852" y="672"/>
      <point x="852" y="908" type="curve"/>
      <point x="852" y="1066"/>
      <point x="715" y="1186"/>
      <point x="431" y="1186" type="curve" smooth="yes"/>
      <point x="269" y="1186"/>
      <point x="152" y="1160"/>
      <point x="37" y="1131" type="curve"/>
      <point x="46" y="1074" type="line"/>
      <point x="172" y="1093"/>
      <point x="289" y="1109"/>
      <point x="397" y="1109" type="curve" smooth="yes"/>
      <point x="616" y="1109"/>
      <point x="710" y="1013"/>
      <point x="710" y="879" type="curve" smooth="yes"/>
      <point x="710" y="717"/>
      <point x="601" y="629"/>
      <point x="408" y="629" type="curve" smooth="yes"/>
      <point x="377" y="629"/>
      <point x="353" y="631"/>
      <point x="310" y="638" type="curve"/>
      <point x="315" y="564" type="line"/>
      <point x="353" y="555"/>
      <point x="390" y="552"/>
      <point x="424" y="552" type="curve" smooth="yes"/>
      <point x="661" y="552"/>
    </contour>
    <contour>
      <point x="966" y="7"/>
      <point x="1047" y="34" type="curve"/>
      <point x="1037" y="73" type="line"/>
      <point x="954" y="66"/>
      <point x="908" y="74"/>
      <point x="872" y="127" type="curve" smooth="yes"/>
      <point x="563" y="623" type="line"/>
      <point x="468" y="563" type="line"/>
      <point x="751" y="37" type="line" smooth="yes"/>
      <point x="768" y="10"/>
      <point x="806" y="-12"/>
      <point x="841" y="-12" type="curve" smooth="yes"/>
      <point x="889" y="-12"/>
    </contour>
    <contour>
      <point x="46" y="0" type="line"/>
      <point x="460" y="0" type="line"/>
      <point x="460" y="39" type="line"/>
      <point x="370" y="56"/>
      <point x="326" y="80"/>
      <point x="326" y="95" type="curve" smooth="yes"/>
      <point x="326" y="1123" type="line"/>
      <point x="179" y="1123" type="line"/>
      <point x="179" y="95" type="line" smooth="yes"/>
      <point x="179" y="79"/>
      <point x="128" y="56"/>
      <point x="46" y="39" type="curve"/>
    </contour>
  </outline>
</glyph>
<glyph name="S" format="2">
  <advance width="897"/>
  <unicode hex="0053"/>
  <anchor x="441" y="0" name="H"/>
  <anchor x="460" y="-92" name="L"/>
  <anchor x="460" y="1260" name="U"/>
  <outline>
    <contour>
      <point x="685" y="979" type="line"/>
      <point x="715" y="1006"/>
      <point x="774" y="1087"/>
      <point x="757" y="1102" type="curve"/>
      <point x="712" y="1150"/>
      <point x="595" y="1186"/>
      <point x="483" y="1186" type="curve" smooth="yes"/>
      <point x="214" y="1186"/>
      <point x="116" y="1004"/>
      <point x="116" y="889" type="curve" smooth="yes"/>
      <point x="116" y="533"/>
      <point x="690" y="597"/>
      <point x="690" y="298" type="curve" smooth="yes"/>
      <point x="690" y="181"/>
      <point x="566" y="82"/>
      <point x="456" y="82" type="curve" smooth="yes"/>
      <point x="331" y="82"/>
      <point x="214" y="149"/>
      <point x="158" y="293" type="curve"/>
      <point x="120" y="298" type="line"/>
      <point x="102" y="231"/>
      <point x="103" y="71"/>
      <point x="120" y="62" type="curve" smooth="yes"/>
      <point x="207" y="7"/>
      <point x="323" y="-27"/>
      <point x="404" y="-27" type="curve" smooth="yes"/>
      <point x="681" y="-27"/>
      <point x="814" y="183"/>
      <point x="814" y="346" type="curve" smooth="yes"/>
      <point x="814" y="710"/>
      <point x="236" y="701"/>
      <point x="236" y="932" type="curve" smooth="yes"/>
      <point x="236" y="1002"/>
      <point x="293" y="1093"/>
      <point x="429" y="1093" type="curve" smooth="yes"/>
      <point x="499" y="1093"/>
      <point x="584" y="1066"/>
      <point x="652" y="985" type="curve"/>
    </contour>
  </outline>
</glyph>
<glyph name="T" format="2">
  <advance width="1247"/>
  <unicode hex="0054"/>
  <outline>
    <contour>
      <point x="1200" y="1038" type="line"/>
      <point x="1156" y="1038" type="line"/>
      <point x="1147" y="1135"/>
      <point x="1125" y="1174"/>
      <point x="1093" y="1206" type="curve" smooth="yes"/>
      <point x="1050" y="1251"/>
      <point x="999" y="1273"/>
      <point x="908" y="1273" type="curve" smooth="yes" name="hr01"/>
      <point x="717" y="1273" type="line"/>
      <point x="717" y="236" type="line" smooth="yes"/>
      <point x="717" y="152"/>
      <point x="727" y="100"/>
      <point x="745" y="79" type="curve" smooth="yes"/>
      <point x="768" y="51"/>
      <point x="808" y="37"/>
      <point x="861" y="37" type="curve" smooth="yes"/>
      <point x="908" y="37" type="line"/>
      <point x="908" y="0" type="line"/>
      <point x="333" y="0" type="line"/>
      <point x="333" y="37" type="line"/>
      <point x="382" y="37" type="line" smooth="yes"/>
      <point x="439" y="37"/>
      <point x="477" y="53"/>
      <point x="504" y="91" type="curve"/>
      <point x="516" y="110"/>
      <point x="524" y="158"/>
      <point x="524" y="236" type="curve" smooth="yes"/>
      <point x="524" y="1273" type="line"/>
      <point x="363" y="1273" type="line" smooth="yes"/>
      <point x="254" y="1273"/>
      <point x="217" y="1263"/>
      <point x="179" y="1229" type="curve"/>
      <point x="130" y="1194"/>
      <point x="102" y="1129"/>
      <point x="95" y="1038" type="curve" name="hr02"/>
      <point x="49" y="1038" type="line"/>
      <point x="63" y="1355" type="line"/>
      <point x="1188" y="1355" type="line"/>
    </contour>
  </outline>
</glyph>
<glyph name="U" format="2">
  <advance width="1480"/>
  <unicode hex="0055"/>
  <outline>
    <contour>
      <point x="739" y="-32" type="curve" smooth="yes"/>
      <point x="940" y="-32"/>
      <point x="1046" y="16"/>
      <point x="1145" y="118" type="curve" smooth="yes"/>
      <point x="1241" y="219"/>
      <point x="1263" y="370"/>
      <point x="1263" y="558" type="curve" smooth="yes"/>
      <point x="1263" y="1109" type="line" smooth="yes"/>
      <point x="1263" y="1184"/>
      <point x="1269" y="1231"/>
      <point x="1285" y="1251" type="curve"/>
      <point x="1314" y="1296"/>
      <point x="1352" y="1320"/>
      <point x="1407" y="1320" type="curve" smooth="yes"/>
      <point x="1458" y="1320" type="line"/>
      <point x="1458" y="1355" type="line"/>
      <point x="977" y="1355" type="line"/>
      <point x="977" y="1320" type="line"/>
      <point x="1028" y="1320" type="line" smooth="yes"/>
      <point x="1080" y="1320"/>
      <point x="1120" y="1305"/>
      <point x="1145" y="1277" type="curve" smooth="yes"/>
      <point x="1165" y="1254"/>
      <point x="1172" y="1200"/>
      <point x="1172" y="1117" type="curve" smooth="yes"/>
      <point x="1172" y="567" type="line" smooth="yes"/>
      <point x="1172" y="493"/>
      <point x="1181" y="271"/>
      <point x="1078" y="175" type="curve" smooth="yes"/>
      <point x="1029" y="130"/>
      <point x="916" y="53"/>
      <point x="753" y="53" type="curve" smooth="yes"/>
      <point x="408" y="53"/>
      <point x="400" y="349"/>
      <point x="400" y="524" type="curve" smooth="yes"/>
      <point x="400" y="1117" type="line" smooth="yes"/>
      <point x="400" y="1192"/>
      <point x="409" y="1242"/>
      <point x="426" y="1267" type="curve" smooth="yes"/>
      <point x="449" y="1303"/>
      <point x="471" y="1320"/>
      <point x="526" y="1320" type="curve" smooth="yes"/>
      <point x="577" y="1320" type="line"/>
      <point x="577" y="1355" type="line"/>
      <point x="30" y="1355" type="line"/>
      <point x="30" y="1320" type="line"/>
      <point x="61" y="1320" type="line" smooth="yes"/>
      <point x="114" y="1320"/>
      <point x="151" y="1308"/>
      <point x="173" y="1281" type="curve" smooth="yes"/>
      <point x="196" y="1253"/>
      <point x="207" y="1200"/>
      <point x="207" y="1117" type="curve" smooth="yes"/>
      <point x="207" y="585" type="line" smooth="yes"/>
      <point x="207" y="370"/>
      <point x="183" y="-32"/>
    </contour>
  </outline>
</glyph>
<glyph name="V" format="2">
  <advance width="1224"/>
  <unicode hex="0056"/>
  <anchor x="596" y="0" name="H"/>
  <anchor x="602" y="-92" name="L"/>
  <anchor x="566" y="0" name="O"/>
  <anchor x="611" y="1260" name="U"/>
  <outline>
    <contour>
      <point x="1104" y="1104"/>
      <point x="1186" y="1119" type="curve"/>
      <point x="1186" y="1159" type="line"/>
      <point x="804" y="1159" type="line"/>
      <point x="804" y="1119" type="line"/>
      <point x="904" y="1107"/>
      <point x="947" y="1094"/>
      <point x="934" y="1058" type="curve" smooth="yes"/>
      <point x="625" y="186" type="line"/>
      <point x="300" y="1060" type="line" smooth="yes"/>
      <point x="287" y="1095"/>
      <point x="321" y="1112"/>
      <point x="418" y="1119" type="curve"/>
      <point x="418" y="1159" type="line"/>
      <point x="18" y="1159" type="line"/>
      <point x="18" y="1119" type="line"/>
      <point x="95" y="1109"/>
      <point x="137" y="1091"/>
      <point x="149" y="1058" type="curve" smooth="yes"/>
      <point x="553" y="-27" type="line"/>
      <point x="586" y="-20"/>
      <point x="672" y="0"/>
      <point x="691" y="54" type="curve" smooth="yes"/>
      <point x="1044" y="1058" type="line"/>
      <point x="1056" y="1092"/>
    </contour>
  </outline>
</glyph>
<glyph name="W" format="2">
  <advance width="1601"/>
  <unicode hex="0057"/>
  <anchor x="792" y="-92" name="L"/>
  <anchor x="792" y="1260" name="U"/>
  <outline>
    <contour>
      <point x="1457" y="1097"/>
      <point x="1565" y="1119" type="curve"/>
      <point x="1565" y="1159" type="line"/>
      <point x="1175" y="1159" type="line"/>
      <point x="1175" y="1119" type="line"/>
      <point x="1258" y="1105"/>
      <point x="1322" y="1091"/>
      <point x="1317" y="1062" type="curve"/>
      <point x="1145" y="230" type="line"/>
      <point x="819" y="1159" type="line"/>
      <point x="769" y="1159" type="line"/>
      <point x="471" y="230" type="line"/>
      <point x="287" y="1055" type="line" smooth="yes"/>
      <point x="282" y="1081"/>
      <point x="293" y="1107"/>
      <point x="413" y="1119" type="curve"/>
      <point x="413" y="1159" type="line"/>
      <point x="18" y="1159" type="line"/>
      <point x="18" y="1119" type="line"/>
      <point x="105" y="1104"/>
      <point x="138" y="1085"/>
      <point x="145" y="1055" type="curve" smooth="yes"/>
      <point x="384" y="-27" type="line"/>
      <point x="434" y="-16"/>
      <point x="506" y="1"/>
      <point x="523" y="54" type="curve" smooth="yes"/>
      <point x="787" y="868" type="line"/>
      <point x="1087" y="-27" type="line"/>
      <point x="1125" y="-19"/>
      <point x="1204" y="1"/>
      <point x="1215" y="54" type="curve" smooth="yes"/>
      <point x="1426" y="1062" type="line" smooth="yes"/>
      <point x="1429" y="1081"/>
    </contour>
  </outline>
</glyph>
<glyph name="X" format="2">
  <advance width="1480"/>
  <unicode hex="0058"/>
  <outline>
    <contour>
      <point x="1454" y="0" type="line"/>
      <point x="873" y="0" type="line"/>
      <point x="873" y="37" type="line"/>
      <point x="940" y="37"/>
      <point x="973" y="47"/>
      <point x="993" y="75" type="curve" smooth="yes"/>
      <point x="1021" y="114"/>
      <point x="1017" y="134"/>
      <point x="942" y="248" type="curve" smooth="yes" name="hr01"/>
      <point x="713" y="597" type="line"/>
      <point x="428" y="232" type="line" smooth="yes"/>
      <point x="374" y="164"/>
      <point x="366" y="148"/>
      <point x="366" y="114" type="curve" smooth="yes"/>
      <point x="366" y="73"/>
      <point x="390" y="41"/>
      <point x="496" y="37" type="curve"/>
      <point x="496" y="0" type="line"/>
      <point x="14" y="0" type="line"/>
      <point x="14" y="37" type="line"/>
      <point x="132" y="41"/>
      <point x="258" y="148"/>
      <point x="349" y="262" type="curve" smooth="yes"/>
      <point x="670" y="668" type="line" name="hr02"/>
      <point x="402" y="1060" type="line" smooth="yes"/>
      <point x="261" y="1266"/>
      <point x="177" y="1312"/>
      <point x="43" y="1320" type="curve"/>
      <point x="43" y="1355" type="line"/>
      <point x="670" y="1355" type="line"/>
      <point x="670" y="1320" type="line"/>
      <point x="617" y="1318"/>
      <point x="581" y="1309"/>
      <point x="560" y="1292" type="curve" smooth="yes"/>
      <point x="518" y="1261"/>
      <point x="515" y="1227"/>
      <point x="577" y="1135" type="curve" smooth="yes"/>
      <point x="786" y="824" type="line"/>
      <point x="1026" y="1129" type="line" smooth="yes"/>
      <point x="1084" y="1202"/>
      <point x="1103" y="1247"/>
      <point x="1078" y="1281" type="curve" smooth="yes"/>
      <point x="1058" y="1306"/>
      <point x="1040" y="1318"/>
      <point x="942" y="1320" type="curve"/>
      <point x="942" y="1355" type="line"/>
      <point x="1424" y="1355" type="line"/>
      <point x="1424" y="1320" type="line"/>
      <point x="1277" y="1310"/>
      <point x="1226" y="1245"/>
      <point x="1107" y="1095" type="curve" smooth="yes"/>
      <point x="835" y="753" type="line"/>
      <point x="1127" y="317" type="line" smooth="yes"/>
      <point x="1288" y="77"/>
      <point x="1336" y="45"/>
      <point x="1454" y="37" type="curve" name="hr03"/>
    </contour>
  </outline>
</glyph>
<glyph name="Y" format="2">
  <advance width="1480"/>
  <unicode hex="0059"/>
  <outline>
    <contour>
      <point x="1450" y="1320" type="line"/>
      <point x="1424" y="1320" type="line" smooth="yes"/>
      <point x="1391" y="1320"/>
      <point x="1314" y="1294"/>
      <point x="1257" y="1231" type="curve" smooth="yes"/>
      <point x="1230" y="1202"/>
      <point x="1198" y="1155"/>
      <point x="1156" y="1090" type="curve" smooth="yes"/>
      <point x="827" y="575" type="line"/>
      <point x="827" y="236" type="line" smooth="yes"/>
      <point x="827" y="152"/>
      <point x="838" y="101"/>
      <point x="857" y="79" type="curve" smooth="yes"/>
      <point x="881" y="52"/>
      <point x="922" y="37"/>
      <point x="977" y="37" type="curve" smooth="yes"/>
      <point x="1021" y="37" type="line"/>
      <point x="1021" y="0" type="line"/>
      <point x="445" y="0" type="line"/>
      <point x="445" y="37" type="line"/>
      <point x="493" y="37" type="line" smooth="yes"/>
      <point x="550" y="37"/>
      <point x="587" y="53"/>
      <point x="615" y="91" type="curve"/>
      <point x="627" y="110"/>
      <point x="634" y="158"/>
      <point x="634" y="236" type="curve" smooth="yes"/>
      <point x="634" y="558" type="line"/>
      <point x="264" y="1125" type="line" smooth="yes"/>
      <point x="221" y="1190"/>
      <point x="193" y="1236"/>
      <point x="156" y="1265" type="curve" smooth="yes"/>
      <point x="122" y="1291"/>
      <point x="71" y="1320"/>
      <point x="18" y="1320" type="curve"/>
      <point x="18" y="1355" type="line"/>
      <point x="599" y="1355" type="line"/>
      <point x="599" y="1320" type="line"/>
      <point x="569" y="1320" type="line" smooth="yes"/>
      <point x="532" y="1320"/>
      <point x="443" y="1304"/>
      <point x="443" y="1231" type="curve" smooth="yes"/>
      <point x="443" y="1210"/>
      <point x="463" y="1164"/>
      <point x="504" y="1099" type="curve" smooth="yes"/>
      <point x="786" y="664" type="line"/>
      <point x="1054" y="1082" type="line" smooth="yes"/>
      <point x="1113" y="1173"/>
      <point x="1135" y="1223"/>
      <point x="1097" y="1273" type="curve"/>
      <point x="1082" y="1298"/>
      <point x="1052" y="1320"/>
      <point x="977" y="1320" type="curve"/>
      <point x="977" y="1355" type="line"/>
      <point x="1450" y="1355" type="line"/>
    </contour>
  </outline>
</glyph>
<glyph name="Z" format="2">
  <advance width="1251"/>
  <unicode hex="005A"/>
  <outline>
    <contour>
      <point x="28" y="0" type="line"/>
      <point x="1131" y="0" type="line"/>
      <point x="1194" y="359" type="line"/>
      <point x="1162" y="364" type="line"/>
      <point x="1125" y="250"/>
      <point x="1085" y="176"/>
      <point x="1038" y="138" type="curve" smooth="yes"/>
      <point x="993" y="101"/>
      <point x="928" y="83"/>
      <point x="843" y="83" type="curve" smooth="yes"/>
      <point x="288" y="83" type="line"/>
      <point x="1178" y="1355" type="line"/>
      <point x="175" y="1355" type="line"/>
      <point x="148" y="1017" type="line"/>
      <point x="185" y="1017" type="line"/>
      <point x="207" y="1149"/>
      <point x="230" y="1196"/>
      <point x="266" y="1227" type="curve" smooth="yes"/>
      <point x="305" y="1261"/>
      <point x="359" y="1277"/>
      <point x="463" y="1277" type="curve" smooth="yes"/>
      <point x="894" y="1277" type="line"/>
      <point x="28" y="37" type="line"/>
    </contour>
  </outline>
</glyph>
<glyph name="bracketleft" format="2">
  <advance width="677"/>
  <unicode hex="005B"/>
  <outline>
    <contour>
      <point x="245" y="-441" type="line"/>
      <point x="613" y="-441" type="line"/>
      <point x="613" y="-355" type="line" name="hr03"/>
      <point x="370" y="-355" type="line"/>
      <point x="370" y="1448" type="line" name="hr02"/>
      <point x="613" y="1448" type="line"/>
      <point x="613" y="1533" type="line" name="hr01"/>
      <point x="245" y="1533" type="line"/>
    </contour>
  </outline>
</glyph>
<glyph name="backslash" format="2">
  <advance width="556"/>
  <unicode hex="005C"/>
  <outline>
    <contour>
      <point x="544" y="-25" type="curve" smooth="yes"/>
      <point x="587" y="-25"/>
      <point x="597" y="-22"/>
      <point x="593" y="-5" type="curve" smooth="yes"/>
      <point x="197" y="1554" type="line" smooth="yes"/>
      <point x="193" y="1571"/>
      <point x="184" y="1574"/>
      <point x="140" y="1574" type="curve" smooth="yes"/>
      <point x="90" y="1574"/>
      <point x="83" y="1569"/>
      <point x="87" y="1554" type="curve" smooth="yes"/>
      <point x="487" y="-5" type="line" smooth="yes"/>
      <point x="491" y="-21"/>
      <point x="503" y="-25"/>
    </contour>
  </outline>
</glyph>
<glyph name="bracketright" format="2">
  <advance width="677"/>
  <unicode hex="005D"/>
  <outline>
    <contour>
      <point x="430" y="-444" type="line"/>
      <point x="64" y="-444" type="line"/>
      <point x="64" y="-355" type="line"/>
      <point x="305" y="-355" type="line" name="hr01"/>
      <point x="305" y="1448" type="line"/>
      <point x="64" y="1448" type="line" name="hr02"/>
      <point x="64" y="1533" type="line"/>
      <point x="430" y="1533" type="line"/>
    </contour>
  </outline>
</glyph>
<glyph name="grave" format="2">
  <advance width="768"/>
  <unicode hex="0060"/>
  <outline>
    <contour>
      <point x="467" y="1042" type="line"/>
      <point x="384" y="1042" type="line"/>
      <point x="89" y="1229" type="line" smooth="yes"/>
      <point x="55" y="1251"/>
      <point x="0" y="1283"/>
      <point x="0" y="1318" type="curve" smooth="yes"/>
      <point x="0" y="1365"/>
      <point x="24" y="1395"/>
      <point x="63" y="1395" type="curve" smooth="yes"/>
      <point x="99" y="1395"/>
      <point x="146" y="1365"/>
      <point x="183" y="1328" type="curve" smooth="yes"/>
    </contour>
  </outline>
</glyph>
<glyph name="a" format="2">
  <advance width="910"/>
  <unicode hex="0061"/>
  <outline>
    <contour>
      <point x="292" y="-18" type="curve" smooth="yes"/>
      <point x="388" y="-18"/>
      <point x="422" y="6"/>
      <point x="583" y="132" type="curve"/>
      <point x="583" y="16"/>
      <point x="632" y="-18"/>
      <point x="690" y="-18" type="curve" smooth="yes"/>
      <point x="760" y="-18"/>
      <point x="833" y="32"/>
      <point x="908" y="132" type="curve"/>
      <point x="908" y="189" type="line"/>
      <point x="835" y="116"/>
      <point x="824" y="108"/>
      <point x="800" y="108" type="curve" smooth="yes"/>
      <point x="774" y="108"/>
      <point x="762" y="122"/>
      <point x="757" y="158" type="curve" smooth="yes"/>
      <point x="754" y="178"/>
      <point x="751" y="232"/>
      <point x="751" y="317" type="curve" smooth="yes"/>
      <point x="751" y="630" type="line" smooth="yes"/>
      <point x="751" y="822"/>
      <point x="709" y="942"/>
      <point x="443" y="942" type="curve" smooth="yes"/>
      <point x="268" y="942"/>
      <point x="108" y="857"/>
      <point x="108" y="713" type="curve" smooth="yes"/>
      <point x="108" y="652"/>
      <point x="140" y="617"/>
      <point x="193" y="617" type="curve" smooth="yes"/>
      <point x="242" y="617"/>
      <point x="278" y="654"/>
      <point x="276" y="711" type="curve" smooth="yes" name="hr01"/>
      <point x="274" y="770" type="line"/>
      <point x="278" y="833"/>
      <point x="329" y="883"/>
      <point x="412" y="883" type="curve" smooth="yes"/>
      <point x="528" y="883"/>
      <point x="583" y="820"/>
      <point x="583" y="644" type="curve" smooth="yes"/>
      <point x="583" y="607" type="line"/>
      <point x="148" y="457"/>
      <point x="73" y="353"/>
      <point x="73" y="217" type="curve" smooth="yes"/>
      <point x="73" y="75"/>
      <point x="162" y="-18"/>
    </contour>
    <contour>
      <point x="382" y="97" type="curve" smooth="yes"/>
      <point x="305" y="99"/>
      <point x="242" y="169"/>
      <point x="242" y="264" type="curve" smooth="yes" name="hr02"/>
      <point x="242" y="353"/>
      <point x="274" y="428"/>
      <point x="583" y="548" type="curve"/>
      <point x="583" y="197" type="line"/>
      <point x="500" y="130"/>
      <point x="433" y="95"/>
    </contour>
  </outline>
</glyph>
<glyph name="b" format="2">
  <advance width="1024"/>
  <unicode hex="0062"/>
  <outline>
    <contour>
      <point x="481" y="-30" type="curve" smooth="yes"/>
      <point x="733" y="-30"/>
      <point x="954" y="193"/>
      <point x="954" y="495" type="curve" smooth="yes"/>
      <point x="954" y="774"/>
      <point x="790" y="942"/>
      <point x="603" y="942" type="curve" smooth="yes"/>
      <point x="498" y="942"/>
      <point x="404" y="881"/>
      <point x="315" y="759" type="curve"/>
      <point x="315" y="1422" type="line"/>
      <point x="268" y="1422" type="line"/>
      <point x="-8" y="1312" type="line"/>
      <point x="6" y="1277" type="line"/>
      <point x="69" y="1296"/>
      <point x="95" y="1296"/>
      <point x="116" y="1279" type="curve" smooth="yes"/>
      <point x="140" y="1259"/>
      <point x="148" y="1243"/>
      <point x="148" y="1036" type="curve" smooth="yes"/>
      <point x="148" y="89" type="line"/>
      <point x="266" y="8"/>
      <point x="376" y="-30"/>
    </contour>
    <contour>
      <point x="532" y="45" type="curve" smooth="yes"/>
      <point x="455" y="45"/>
      <point x="380" y="81"/>
      <point x="315" y="146" type="curve"/>
      <point x="315" y="695" type="line"/>
      <point x="416" y="790"/>
      <point x="473" y="802"/>
      <point x="522" y="802" type="curve" smooth="yes"/>
      <point x="662" y="802"/>
      <point x="780" y="668"/>
      <point x="780" y="437" type="curve" smooth="yes"/>
      <point x="780" y="177"/>
      <point x="650" y="45"/>
    </contour>
  </outline>
</glyph>
<glyph name="c" format="2">
  <advance width="910"/>
  <unicode hex="0063"/>
  <outline>
    <contour>
      <point x="841" y="349" type="line"/>
      <point x="806" y="126"/>
      <point x="638" y="-30"/>
      <point x="459" y="-30" type="curve" smooth="yes"/>
      <point x="244" y="-30"/>
      <point x="69" y="160"/>
      <point x="69" y="457" type="curve" smooth="yes"/>
      <point x="69" y="747"/>
      <point x="268" y="942"/>
      <point x="506" y="942" type="curve" smooth="yes"/>
      <point x="597" y="942"/>
      <point x="672" y="918"/>
      <point x="729" y="871" type="curve" smooth="yes"/>
      <point x="786" y="824"/>
      <point x="818" y="774"/>
      <point x="818" y="723" type="curve" smooth="yes"/>
      <point x="818" y="678"/>
      <point x="786" y="638"/>
      <point x="723" y="638" type="curve" smooth="yes"/>
      <point x="684" y="638"/>
      <point x="621" y="646"/>
      <point x="613" y="757" type="curve" smooth="yes"/>
      <point x="607" y="828"/>
      <point x="565" y="877"/>
      <point x="473" y="877" type="curve" smooth="yes"/>
      <point x="321" y="877"/>
      <point x="232" y="733"/>
      <point x="232" y="544" type="curve" smooth="yes"/>
      <point x="232" y="327"/>
      <point x="339" y="130"/>
      <point x="530" y="130" type="curve" smooth="yes"/>
      <point x="640" y="130"/>
      <point x="735" y="173"/>
      <point x="814" y="363" type="curve"/>
    </contour>
  </outline>
</glyph>
<glyph name="d" format="2">
  <advance width="1024"/>
  <unicode hex="0064"/>
  <outline>
    <contour>
      <point x="443" y="-30" type="curve" smooth="yes"/>
      <point x="550" y="-30"/>
      <point x="630" y="18"/>
      <point x="711" y="102" type="curve"/>
      <point x="711" y="-30" type="line"/>
      <point x="757" y="-30" type="line"/>
      <point x="1032" y="85" type="line"/>
      <point x="1021" y="120" type="line"/>
      <point x="967" y="100"/>
      <point x="935" y="97"/>
      <point x="910" y="116" type="curve" smooth="yes"/>
      <point x="881" y="139"/>
      <point x="879" y="165"/>
      <point x="879" y="363" type="curve" smooth="yes"/>
      <point x="879" y="1422" type="line"/>
      <point x="833" y="1422" type="line"/>
      <point x="558" y="1312" type="line"/>
      <point x="571" y="1277" type="line"/>
      <point x="625" y="1294"/>
      <point x="658" y="1300"/>
      <point x="680" y="1279" type="curve" smooth="yes"/>
      <point x="703" y="1255"/>
      <point x="711" y="1239"/>
      <point x="711" y="1036" type="curve" smooth="yes"/>
      <point x="711" y="867" type="line"/>
      <point x="658" y="920"/>
      <point x="591" y="944"/>
      <point x="512" y="944" type="curve" smooth="yes"/>
      <point x="227" y="942"/>
      <point x="67" y="658"/>
      <point x="67" y="420" type="curve" smooth="yes"/>
      <point x="67" y="162"/>
      <point x="240" y="-30"/>
    </contour>
    <contour>
      <point x="534" y="83" type="curve" smooth="yes"/>
      <point x="406" y="84"/>
      <point x="252" y="203"/>
      <point x="252" y="500" type="curve" smooth="yes"/>
      <point x="252" y="735"/>
      <point x="365" y="888"/>
      <point x="500" y="883" type="curve" smooth="yes"/>
      <point x="632" y="878"/>
      <point x="711" y="749"/>
      <point x="711" y="646" type="curve" smooth="yes"/>
      <point x="711" y="173" type="line"/>
      <point x="654" y="112"/>
      <point x="597" y="82"/>
    </contour>
  </outline>
</glyph>
<glyph name="e" format="2">
  <advance width="870"/>
  <unicode hex="0065"/>
  <anchor x="460" y="0" name="H"/>
  <anchor x="460" y="-92" name="L"/>
  <anchor x="513" y="0" name="O"/>
  <anchor x="938" y="828" name="R"/>
  <anchor x="469" y="966" name="U"/>
  <outline>
    <contour>
      <point x="774" y="487"/>
      <point x="796" y="512" type="curve"/>
      <point x="796" y="668"/>
      <point x="723" y="883"/>
      <point x="482" y="883" type="curve" smooth="yes"/>
      <point x="416" y="883"/>
      <point x="331" y="848"/>
      <point x="276" y="810" type="curve" smooth="yes"/>
      <point x="149" y="723"/>
      <point x="73" y="564"/>
      <point x="73" y="399" type="curve" smooth="yes"/>
      <point x="73" y="139"/>
      <point x="239" y="-27"/>
      <point x="427" y="-27" type="curve" smooth="yes"/>
      <point x="553" y="-27"/>
      <point x="627" y="0"/>
      <point x="791" y="179" type="curve"/>
      <point x="785" y="188"/>
      <point x="772" y="208"/>
      <point x="757" y="217" type="curve"/>
      <point x="620" y="103"/>
      <point x="561" y="92"/>
      <point x="483" y="92" type="curve" smooth="yes"/>
      <point x="314" y="92"/>
      <point x="211" y="264"/>
      <point x="211" y="457" type="curve" smooth="yes"/>
      <point x="211" y="645"/>
      <point x="309" y="786"/>
      <point x="456" y="786" type="curve" smooth="yes"/>
      <point x="616" y="786"/>
      <point x="645" y="632"/>
      <point x="645" y="566" type="curve" smooth="yes"/>
      <point x="645" y="540"/>
      <point x="638" y="533"/>
      <point x="610" y="533" type="curve" smooth="yes"/>
      <point x="169" y="533" type="line"/>
      <point x="167" y="450" type="line"/>
      <point x="695" y="450" type="line"/>
      <point x="735" y="466"/>
    </contour>
  </outline>
</glyph>
<glyph name="f" format="2">
  <advance width="682"/>
  <unicode hex="0066"/>
  <outline>
    <contour>
      <point x="81" y="0" type="line"/>
      <point x="632" y="0" type="line"/>
      <point x="632" y="37" type="line" name="hr04"/>
      <point x="550" y="37" type="line" smooth="yes"/>
      <point x="506" y="37"/>
      <point x="473" y="51"/>
      <point x="451" y="81" type="curve"/>
      <point x="430" y="102"/>
      <point x="422" y="158"/>
      <point x="422" y="242" type="curve" smooth="yes"/>
      <point x="422" y="843" type="line" name="hr03"/>
      <point x="658" y="843" type="line"/>
      <point x="658" y="916" type="line" name="hr02"/>
      <point x="422" y="916" type="line"/>
      <point x="422" y="981" type="line" smooth="yes"/>
      <point x="422" y="1239"/>
      <point x="431" y="1348"/>
      <point x="560" y="1348" type="curve" smooth="yes" name="hr01"/>
      <point x="699" y="1348"/>
      <point x="707" y="1167"/>
      <point x="810" y="1168" type="curve" smooth="yes"/>
      <point x="855" y="1169"/>
      <point x="891" y="1216"/>
      <point x="891" y="1251" type="curve" smooth="yes"/>
      <point x="891" y="1342"/>
      <point x="755" y="1422"/>
      <point x="638" y="1422" type="curve" smooth="yes"/>
      <point x="575" y="1422"/>
      <point x="254" y="1391"/>
      <point x="254" y="977" type="curve" smooth="yes"/>
      <point x="254" y="916" type="line" name="hr07"/>
      <point x="75" y="916" type="line"/>
      <point x="75" y="843" type="line" name="hr06"/>
      <point x="254" y="843" type="line"/>
      <point x="254" y="242" type="line" smooth="yes" name="hr05"/>
      <point x="254" y="126"/>
      <point x="246" y="98"/>
      <point x="213" y="69" type="curve" smooth="yes"/>
      <point x="183" y="43"/>
      <point x="154" y="37"/>
      <point x="122" y="37" type="curve" smooth="yes"/>
      <point x="81" y="37" type="line"/>
    </contour>
  </outline>
</glyph>
<glyph name="g" format="2">
  <advance width="1024"/>
  <unicode hex="0067"/>
  <outline>
    <contour>
      <point x="463" y="-443" type="curve" smooth="yes"/>
      <point x="755" y="-443"/>
      <point x="975" y="-268"/>
      <point x="975" y="-85" type="curve" smooth="yes"/>
      <point x="975" y="128"/>
      <point x="727" y="130"/>
      <point x="656" y="132" type="curve" smooth="yes"/>
      <point x="359" y="140"/>
      <point x="325" y="144"/>
      <point x="299" y="167" type="curve" smooth="yes"/>
      <point x="258" y="205"/>
      <point x="305" y="276"/>
      <point x="359" y="315" type="curve"/>
      <point x="406" y="301"/>
      <point x="453" y="296"/>
      <point x="498" y="296" type="curve" smooth="yes"/>
      <point x="727" y="296"/>
      <point x="860" y="437"/>
      <point x="859" y="605" type="curve" smooth="yes"/>
      <point x="858" y="680"/>
      <point x="839" y="741"/>
      <point x="804" y="788" type="curve"/>
      <point x="922" y="788" type="line"/>
      <point x="922" y="788"/>
      <point x="965" y="786"/>
      <point x="977" y="796" type="curve" smooth="yes"/>
      <point x="985" y="804"/>
      <point x="987" y="827"/>
      <point x="987" y="835" type="curve" smooth="yes"/>
      <point x="987" y="861"/>
      <point x="983" y="873"/>
      <point x="973" y="875" type="curve" smooth="yes"/>
      <point x="936" y="883"/>
      <point x="916" y="873"/>
      <point x="833" y="873" type="curve" smooth="yes"/>
      <point x="707" y="873"/>
      <point x="658" y="942"/>
      <point x="500" y="942" type="curve" smooth="yes"/>
      <point x="272" y="942"/>
      <point x="136" y="784"/>
      <point x="136" y="613" type="curve" smooth="yes"/>
      <point x="136" y="502"/>
      <point x="193" y="386"/>
      <point x="309" y="335" type="curve" name="hr01"/>
      <point x="171" y="217"/>
      <point x="150" y="165"/>
      <point x="150" y="118" type="curve" smooth="yes"/>
      <point x="150" y="71"/>
      <point x="183" y="47"/>
      <point x="244" y="8" type="curve"/>
      <point x="100" y="-136"/>
      <point x="61" y="-199"/>
      <point x="61" y="-252" type="curve" smooth="yes"/>
      <point x="61" y="-345"/>
      <point x="260" y="-443"/>
    </contour>
    <contour>
      <point x="552" y="-321" type="curve" smooth="yes"/>
      <point x="347" y="-321"/>
      <point x="205" y="-260"/>
      <point x="205" y="-175" type="curve" smooth="yes" name="hr02"/>
      <point x="205" y="-112"/>
      <point x="240" y="-67"/>
      <point x="299" y="0" type="curve"/>
      <point x="380" y="-12"/>
      <point x="497" y="-15"/>
      <point x="646" y="-22" type="curve" smooth="yes"/>
      <point x="857" y="-31"/>
      <point x="902" y="-57"/>
      <point x="902" y="-122" type="curve" smooth="yes"/>
      <point x="902" y="-219"/>
      <point x="790" y="-321"/>
    </contour>
    <contour>
      <point x="510" y="345" type="curve" smooth="yes"/>
      <point x="382" y="345"/>
      <point x="309" y="473"/>
      <point x="309" y="656" type="curve" smooth="yes"/>
      <point x="309" y="824"/>
      <point x="388" y="894"/>
      <point x="483" y="894" type="curve" smooth="yes"/>
      <point x="607" y="894"/>
      <point x="682" y="766"/>
      <point x="682" y="579" type="curve" smooth="yes"/>
      <point x="682" y="414"/>
      <point x="607" y="345"/>
    </contour>
  </outline>
</glyph>
<glyph name="h" format="2">
  <advance width="1024"/>
  <unicode hex="0068"/>
  <outline>
    <contour>
      <point x="1015" y="0" type="line"/>
      <point x="562" y="0" type="line"/>
      <point x="562" y="37" type="line"/>
      <point x="678" y="37"/>
      <point x="709" y="63"/>
      <point x="709" y="187" type="curve" smooth="yes" name="hr01"/>
      <point x="709" y="530" type="line" smooth="yes"/>
      <point x="709" y="648"/>
      <point x="721" y="822"/>
      <point x="562" y="822" type="curve" smooth="yes" name="hr02"/>
      <point x="500" y="822"/>
      <point x="433" y="804"/>
      <point x="335" y="690" type="curve"/>
      <point x="335" y="187" type="line" smooth="yes"/>
      <point x="335" y="64"/>
      <point x="351" y="37"/>
      <point x="481" y="37" type="curve"/>
      <point x="481" y="0" type="line"/>
      <point x="28" y="0" type="line"/>
      <point x="28" y="37" type="line"/>
      <point x="147" y="37"/>
      <point x="167" y="76"/>
      <point x="167" y="187" type="curve" smooth="yes"/>
      <point x="167" y="1155" type="line" smooth="yes"/>
      <point x="167" y="1251"/>
      <point x="153" y="1292"/>
      <point x="100" y="1292" type="curve" smooth="yes"/>
      <point x="82" y="1292"/>
      <point x="58" y="1289"/>
      <point x="28" y="1277" type="curve"/>
      <point x="12" y="1312" type="line"/>
      <point x="288" y="1422" type="line"/>
      <point x="335" y="1422" type="line"/>
      <point x="335" y="753" type="line"/>
      <point x="441" y="912"/>
      <point x="542" y="942"/>
      <point x="638" y="942" type="curve" smooth="yes"/>
      <point x="871" y="942"/>
      <point x="877" y="709"/>
      <point x="877" y="530" type="curve" smooth="yes" name="hr03"/>
      <point x="877" y="187" type="line" smooth="yes"/>
      <point x="877" y="71"/>
      <point x="893" y="37"/>
      <point x="1015" y="37" type="curve" name="hr04"/>
    </contour>
  </outline>
</glyph>
<glyph name="i" format="2">
  <advance width="569"/>
  <unicode hex="0069"/>
  <outline>
    <contour>
      <point x="77" y="0" type="line"/>
      <point x="524" y="0" type="line"/>
      <point x="524" y="37" type="line"/>
      <point x="410" y="37"/>
      <point x="384" y="62"/>
      <point x="384" y="187" type="curve" smooth="yes"/>
      <point x="384" y="942" type="line"/>
      <point x="341" y="942" type="line"/>
      <point x="63" y="831" type="line"/>
      <point x="77" y="796" type="line"/>
      <point x="107" y="806"/>
      <point x="129" y="812"/>
      <point x="148" y="812" type="curve" smooth="yes"/>
      <point x="201" y="812"/>
      <point x="217" y="764"/>
      <point x="217" y="678" type="curve" smooth="yes"/>
      <point x="217" y="187" type="line" smooth="yes" name="hr01"/>
      <point x="217" y="65"/>
      <point x="191" y="37"/>
      <point x="77" y="37" type="curve"/>
    </contour>
    <contour>
      <point x="301" y="1125" type="curve" smooth="yes"/>
      <point x="359" y="1125"/>
      <point x="402" y="1170"/>
      <point x="402" y="1227" type="curve" smooth="yes"/>
      <point x="402" y="1283"/>
      <point x="357" y="1328"/>
      <point x="301" y="1328" type="curve" smooth="yes"/>
      <point x="246" y="1328"/>
      <point x="199" y="1287"/>
      <point x="199" y="1227" type="curve" smooth="yes"/>
      <point x="199" y="1168"/>
      <point x="242" y="1125"/>
    </contour>
  </outline>
</glyph>
<glyph name="j" format="2">
  <advance width="569"/>
  <unicode hex="006A"/>
  <outline>
    <contour>
      <point x="22" y="-443" type="curve" smooth="yes"/>
      <point x="231" y="-443"/>
      <point x="384" y="-298"/>
      <point x="384" y="20" type="curve" smooth="yes" name="hr01"/>
      <point x="384" y="942" type="line"/>
      <point x="341" y="942" type="line"/>
      <point x="63" y="831" type="line"/>
      <point x="75" y="796" type="line"/>
      <point x="132" y="816"/>
      <point x="162" y="818"/>
      <point x="187" y="798" type="curve" smooth="yes"/>
      <point x="209" y="781"/>
      <point x="217" y="731"/>
      <point x="217" y="558" type="curve" smooth="yes"/>
      <point x="217" y="-95" type="line" smooth="yes"/>
      <point x="217" y="-219"/>
      <point x="221" y="-363"/>
      <point x="124" y="-363" type="curve" smooth="yes" name="hr02"/>
      <point x="102" y="-363"/>
      <point x="73" y="-349"/>
      <point x="43" y="-319" type="curve" smooth="yes"/>
      <point x="0" y="-276"/>
      <point x="-28" y="-256"/>
      <point x="-75" y="-256" type="curve" smooth="yes"/>
      <point x="-120" y="-256"/>
      <point x="-158" y="-294"/>
      <point x="-158" y="-343" type="curve"/>
      <point x="-154" y="-384"/>
      <point x="-106" y="-443"/>
    </contour>
    <contour>
      <point x="297" y="1125" type="curve" smooth="yes"/>
      <point x="357" y="1125"/>
      <point x="400" y="1172"/>
      <point x="400" y="1227" type="curve" smooth="yes"/>
      <point x="400" y="1283"/>
      <point x="349" y="1330"/>
      <point x="297" y="1330" type="curve" smooth="yes"/>
      <point x="242" y="1330"/>
      <point x="195" y="1283"/>
      <point x="195" y="1227" type="curve" smooth="yes"/>
      <point x="195" y="1168"/>
      <point x="238" y="1125"/>
    </contour>
  </outline>
</glyph>
<glyph name="k" format="2">
  <advance width="1024"/>
  <unicode hex="006B"/>
  <outline>
    <contour>
      <point x="1036" y="0" type="line"/>
      <point x="591" y="0" type="line"/>
      <point x="591" y="37" type="line"/>
      <point x="630" y="37"/>
      <point x="646" y="43"/>
      <point x="652" y="61" type="curve" smooth="yes"/>
      <point x="660" y="83"/>
      <point x="656" y="102"/>
      <point x="617" y="152" type="curve" smooth="yes"/>
      <point x="337" y="506" type="line"/>
      <point x="337" y="207" type="line" smooth="yes"/>
      <point x="337" y="120"/>
      <point x="341" y="92"/>
      <point x="359" y="71" type="curve" smooth="yes"/>
      <point x="382" y="43"/>
      <point x="398" y="37"/>
      <point x="483" y="37" type="curve"/>
      <point x="483" y="0" type="line"/>
      <point x="14" y="0" type="line"/>
      <point x="14" y="37" type="line"/>
      <point x="77" y="37"/>
      <point x="118" y="43"/>
      <point x="140" y="67" type="curve" smooth="yes"/>
      <point x="158" y="87"/>
      <point x="165" y="128"/>
      <point x="165" y="201" type="curve" smooth="yes"/>
      <point x="165" y="1034" type="line" smooth="yes"/>
      <point x="165" y="1245"/>
      <point x="161" y="1259"/>
      <point x="138" y="1279" type="curve" smooth="yes"/>
      <point x="122" y="1292"/>
      <point x="99" y="1302"/>
      <point x="33" y="1277" type="curve"/>
      <point x="14" y="1312" type="line"/>
      <point x="290" y="1422" type="line"/>
      <point x="337" y="1422" type="line"/>
      <point x="337" y="528" type="line"/>
      <point x="567" y="723" type="line" smooth="yes"/>
      <point x="654" y="796"/>
      <point x="662" y="814"/>
      <point x="662" y="833" type="curve" smooth="yes"/>
      <point x="662" y="861"/>
      <point x="642" y="881"/>
      <point x="591" y="885" type="curve"/>
      <point x="591" y="916" type="line"/>
      <point x="989" y="916" type="line" name="hr01"/>
      <point x="989" y="885" type="line"/>
      <point x="934" y="883"/>
      <point x="890" y="875"/>
      <point x="853" y="859" type="curve" smooth="yes"/>
      <point x="817" y="844"/>
      <point x="779" y="817"/>
      <point x="733" y="776" type="curve" smooth="yes"/>
      <point x="493" y="562" type="line"/>
      <point x="733" y="262" type="line" smooth="yes"/>
      <point x="889" y="67"/>
      <point x="883" y="83"/>
      <point x="950" y="45" type="curve" smooth="yes"/>
      <point x="963" y="38"/>
      <point x="993" y="37"/>
      <point x="1036" y="37" type="curve" name="hr02"/>
    </contour>
  </outline>
</glyph>
<glyph name="l" format="2">
  <advance width="569"/>
  <unicode hex="006C"/>
  <outline>
    <contour>
      <point x="77" y="0" type="line"/>
      <point x="526" y="0" type="line"/>
      <point x="526" y="37" type="line" name="hr04"/>
      <point x="447" y="37"/>
      <point x="422" y="49"/>
      <point x="404" y="73" type="curve" smooth="yes"/>
      <point x="386" y="97"/>
      <point x="378" y="126"/>
      <point x="378" y="207" type="curve" smooth="yes"/>
      <point x="378" y="1422" type="line" name="hr03"/>
      <point x="335" y="1422" type="line"/>
      <point x="59" y="1312" type="line"/>
      <point x="77" y="1277" type="line" name="hr02"/>
      <point x="134" y="1298"/>
      <point x="158" y="1294"/>
      <point x="183" y="1279" type="curve"/>
      <point x="203" y="1259"/>
      <point x="211" y="1247"/>
      <point x="211" y="1038" type="curve" smooth="yes"/>
      <point x="211" y="207" type="line" smooth="yes" name="hr01"/>
      <point x="211" y="122"/>
      <point x="199" y="89"/>
      <point x="183" y="69" type="curve" smooth="yes"/>
      <point x="161" y="41"/>
      <point x="138" y="37"/>
      <point x="77" y="37" type="curve"/>
    </contour>
  </outline>
</glyph>
<glyph name="m" format="2">
  <advance width="1594"/>
  <unicode hex="006D"/>
  <outline>
    <contour>
      <point x="1586" y="0" type="line"/>
      <point x="1133" y="0" type="line"/>
      <point x="1133" y="37" type="line"/>
      <point x="1277" y="37"/>
      <point x="1281" y="83"/>
      <point x="1281" y="207" type="curve" smooth="yes" name="hr01"/>
      <point x="1281" y="603" type="line" smooth="yes"/>
      <point x="1281" y="766"/>
      <point x="1231" y="824"/>
      <point x="1129" y="824" type="curve" smooth="yes"/>
      <point x="1070" y="824"/>
      <point x="991" y="798"/>
      <point x="892" y="699" type="curve"/>
      <point x="892" y="207" type="line" smooth="yes"/>
      <point x="892" y="77"/>
      <point x="900" y="37"/>
      <point x="1040" y="37" type="curve"/>
      <point x="1040" y="0" type="line"/>
      <point x="575" y="0" type="line"/>
      <point x="575" y="37" type="line"/>
      <point x="731" y="37"/>
      <point x="725" y="93"/>
      <point x="725" y="207" type="curve" smooth="yes"/>
      <point x="725" y="603" type="line" smooth="yes"/>
      <point x="725" y="764"/>
      <point x="666" y="826"/>
      <point x="569" y="826" type="curve" smooth="yes"/>
      <point x="473" y="826"/>
      <point x="390" y="759"/>
      <point x="335" y="699" type="curve"/>
      <point x="335" y="207" type="line" smooth="yes"/>
      <point x="335" y="53"/>
      <point x="364" y="37"/>
      <point x="483" y="37" type="curve" name="hr02"/>
      <point x="483" y="0" type="line"/>
      <point x="30" y="0" type="line"/>
      <point x="30" y="37" type="line"/>
      <point x="146" y="37"/>
      <point x="167" y="63"/>
      <point x="167" y="207" type="curve" smooth="yes" name="hr03"/>
      <point x="167" y="558" type="line" smooth="yes"/>
      <point x="167" y="760"/>
      <point x="179" y="849"/>
      <point x="30" y="796" type="curve" name="hr04"/>
      <point x="14" y="831" type="line"/>
      <point x="292" y="942" type="line"/>
      <point x="335" y="942" type="line" name="hr05"/>
      <point x="335" y="749" type="line"/>
      <point x="483" y="910"/>
      <point x="561" y="942"/>
      <point x="652" y="942" type="curve" smooth="yes"/>
      <point x="760" y="942"/>
      <point x="855" y="883"/>
      <point x="885" y="749" type="curve"/>
      <point x="1021" y="904"/>
      <point x="1103" y="942"/>
      <point x="1206" y="942" type="curve" smooth="yes"/>
      <point x="1354" y="942"/>
      <point x="1448" y="849"/>
      <point x="1448" y="603" type="curve" smooth="yes"/>
      <point x="1448" y="207" type="line" smooth="yes"/>
      <point x="1448" y="67"/>
      <point x="1476" y="37"/>
      <point x="1586" y="37" type="curve" name="hr06"/>
    </contour>
  </outline>
</glyph>
<glyph name="n" format="2">
  <advance width="1024"/>
  <unicode hex="006E"/>
  <outline>
    <contour>
      <point x="1021" y="0" type="line"/>
      <point x="562" y="0" type="line"/>
      <point x="562" y="37" type="line"/>
      <point x="697" y="37"/>
      <point x="711" y="65"/>
      <point x="711" y="207" type="curve" smooth="yes"/>
      <point x="711" y="581" type="line" smooth="yes"/>
      <point x="711" y="747"/>
      <point x="676" y="820"/>
      <point x="567" y="820" type="curve" smooth="yes"/>
      <point x="491" y="820"/>
      <point x="410" y="776"/>
      <point x="331" y="690" type="curve"/>
      <point x="331" y="207" type="line" smooth="yes"/>
      <point x="331" y="63"/>
      <point x="349" y="37"/>
      <point x="481" y="37" type="curve" name="hr01"/>
      <point x="481" y="0" type="line"/>
      <point x="26" y="0" type="line"/>
      <point x="26" y="37" type="line"/>
      <point x="142" y="37"/>
      <point x="164" y="67"/>
      <point x="164" y="207" type="curve" smooth="yes" name="hr02"/>
      <point x="164" y="548" type="line" smooth="yes"/>
      <point x="164" y="766"/>
      <point x="154" y="781"/>
      <point x="134" y="798" type="curve" smooth="yes"/>
      <point x="111" y="818"/>
      <point x="75" y="816"/>
      <point x="26" y="796" type="curve" name="hr03"/>
      <point x="10" y="831" type="line"/>
      <point x="290" y="942" type="line"/>
      <point x="331" y="942" type="line" name="hr04"/>
      <point x="331" y="751" type="line"/>
      <point x="439" y="879"/>
      <point x="542" y="942"/>
      <point x="638" y="942" type="curve" smooth="yes"/>
      <point x="818" y="942"/>
      <point x="879" y="806"/>
      <point x="879" y="599" type="curve" smooth="yes"/>
      <point x="879" y="207" type="line" smooth="yes"/>
      <point x="879" y="71"/>
      <point x="898" y="37"/>
      <point x="1021" y="37" type="curve"/>
    </contour>
  </outline>
</glyph>
<glyph name="o" format="2">
  <advance width="1024"/>
  <unicode hex="006F"/>
  <outline>
    <contour>
      <point x="954" y="475" type="line" smooth="yes"/>
      <point x="954" y="238"/>
      <point x="802" y="-30"/>
      <point x="502" y="-30" type="curve" smooth="yes"/>
      <point x="246" y="-30"/>
      <point x="69" y="195"/>
      <point x="69" y="449" type="curve" smooth="yes"/>
      <point x="69" y="695"/>
      <point x="236" y="942"/>
      <point x="512" y="942" type="curve" smooth="yes"/>
      <point x="774" y="942"/>
      <point x="954" y="737"/>
      <point x="954" y="475" type="curve" smooth="yes"/>
    </contour>
    <contour>
      <point x="766" y="398" type="line" smooth="yes"/>
      <point x="766" y="670"/>
      <point x="658" y="879"/>
      <point x="481" y="879" type="curve" smooth="yes"/>
      <point x="376" y="879"/>
      <point x="254" y="798"/>
      <point x="254" y="532" type="curve" smooth="yes"/>
      <point x="254" y="270"/>
      <point x="368" y="43"/>
      <point x="544" y="43" type="curve" smooth="yes"/>
      <point x="676" y="43"/>
      <point x="766" y="136"/>
      <point x="766" y="398" type="curve" smooth="yes"/>
    </contour>
  </outline>
</glyph>
<glyph name="p" format="2">
  <advance width="1024"/>
  <unicode hex="0070"/>
  <outline>
    <contour>
      <point x="956" y="493" type="line" smooth="yes"/>
      <point x="956" y="205"/>
      <point x="786" y="-30"/>
      <point x="536" y="-30" type="curve" smooth="yes"/>
      <point x="477" y="-30"/>
      <point x="404" y="-24"/>
      <point x="317" y="53" type="curve"/>
      <point x="317" y="-225" type="line" smooth="yes"/>
      <point x="317" y="-368"/>
      <point x="327" y="-396"/>
      <point x="473" y="-402" type="curve"/>
      <point x="473" y="-439" type="line"/>
      <point x="-12" y="-439" type="line"/>
      <point x="-12" y="-402" type="line"/>
      <point x="138" y="-396"/>
      <point x="148" y="-372"/>
      <point x="148" y="-221" type="curve" smooth="yes"/>
      <point x="148" y="646" type="line" smooth="yes"/>
      <point x="148" y="747"/>
      <point x="148" y="772"/>
      <point x="114" y="796" type="curve" smooth="yes"/>
      <point x="95" y="810"/>
      <point x="65" y="816"/>
      <point x="6" y="792" type="curve"/>
      <point x="-6" y="826" type="line"/>
      <point x="280" y="940" type="line"/>
      <point x="317" y="940" type="line"/>
      <point x="317" y="725" type="line"/>
      <point x="412" y="887"/>
      <point x="502" y="942"/>
      <point x="613" y="942" type="curve" smooth="yes"/>
      <point x="816" y="942"/>
      <point x="956" y="747"/>
      <point x="956" y="493" type="curve" smooth="yes"/>
    </contour>
    <contour>
      <point x="796" y="398" type="line" smooth="yes"/>
      <point x="796" y="694"/>
      <point x="676" y="820"/>
      <point x="532" y="820" type="curve" smooth="yes"/>
      <point x="453" y="820"/>
      <point x="400" y="757"/>
      <point x="317" y="666" type="curve"/>
      <point x="317" y="323" type="line" smooth="yes"/>
      <point x="317" y="250"/>
      <point x="321" y="203"/>
      <point x="327" y="177" type="curve" smooth="yes"/>
      <point x="344" y="106"/>
      <point x="414" y="32"/>
      <point x="532" y="32" type="curve" smooth="yes"/>
      <point x="688" y="32"/>
      <point x="796" y="171"/>
      <point x="796" y="398" type="curve" smooth="yes"/>
    </contour>
  </outline>
</glyph>
<glyph name="q" format="2">
  <advance width="1024"/>
  <unicode hex="0071"/>
  <outline>
    <contour>
      <point x="1028" y="-439" type="line"/>
      <point x="562" y="-439" type="line"/>
      <point x="562" y="-402" type="line"/>
      <point x="678" y="-402"/>
      <point x="711" y="-388"/>
      <point x="711" y="-236" type="curve" smooth="yes"/>
      <point x="711" y="160" type="line"/>
      <point x="593" y="18"/>
      <point x="512" y="-30"/>
      <point x="410" y="-30" type="curve" smooth="yes"/>
      <point x="242" y="-30"/>
      <point x="67" y="134"/>
      <point x="67" y="418" type="curve" smooth="yes"/>
      <point x="67" y="723"/>
      <point x="272" y="942"/>
      <point x="540" y="942" type="curve" smooth="yes"/>
      <point x="615" y="942"/>
      <point x="682" y="926"/>
      <point x="729" y="879" type="curve"/>
      <point x="768" y="898"/>
      <point x="810" y="918"/>
      <point x="843" y="942" type="curve"/>
      <point x="879" y="942" type="line"/>
      <point x="879" y="-236" type="line" smooth="yes"/>
      <point x="879" y="-376"/>
      <point x="904" y="-402"/>
      <point x="1028" y="-402" type="curve"/>
    </contour>
    <contour>
      <point x="711" y="221" type="line"/>
      <point x="711" y="652" type="line" smooth="yes"/>
      <point x="711" y="784"/>
      <point x="644" y="873"/>
      <point x="508" y="873" type="curve" smooth="yes"/>
      <point x="361" y="873"/>
      <point x="236" y="749"/>
      <point x="236" y="491" type="curve" smooth="yes"/>
      <point x="236" y="236"/>
      <point x="366" y="112"/>
      <point x="514" y="112" type="curve" smooth="yes"/>
      <point x="601" y="112"/>
      <point x="648" y="150"/>
      <point x="711" y="221" type="curve"/>
    </contour>
  </outline>
</glyph>
<glyph name="r" format="2">
  <advance width="746"/>
  <unicode hex="0072"/>
  <anchor x="248" y="0" name="H"/>
  <anchor x="248" y="-92" name="L"/>
  <anchor x="414" y="966" name="U"/>
  <outline>
    <contour>
      <point x="731" y="835"/>
      <point x="708" y="849" type="curve" smooth="yes"/>
      <point x="664" y="874"/>
      <point x="616" y="883"/>
      <point x="576" y="883" type="curve" smooth="yes"/>
      <point x="471" y="883"/>
      <point x="381" y="778"/>
      <point x="315" y="642" type="curve"/>
      <point x="303" y="851" type="line"/>
      <point x="271" y="883" type="line"/>
      <point x="210" y="849"/>
      <point x="129" y="828"/>
      <point x="50" y="809" type="curve"/>
      <point x="50" y="772" type="line"/>
      <point x="118" y="769"/>
      <point x="141" y="764"/>
      <point x="158" y="747" type="curve" smooth="yes"/>
      <point x="169" y="736"/>
      <point x="179" y="712"/>
      <point x="179" y="631" type="curve" smooth="yes"/>
      <point x="179" y="95" type="line" smooth="yes"/>
      <point x="179" y="75"/>
      <point x="131" y="57"/>
      <point x="50" y="39" type="curve"/>
      <point x="50" y="0" type="line"/>
      <point x="472" y="0" type="line"/>
      <point x="472" y="39" type="line"/>
      <point x="357" y="56"/>
      <point x="317" y="77"/>
      <point x="317" y="95" type="curve" smooth="yes"/>
      <point x="317" y="456" type="line"/>
      <point x="376" y="665"/>
      <point x="472" y="754"/>
      <point x="527" y="754" type="curve" smooth="yes"/>
      <point x="573" y="754"/>
      <point x="614" y="721"/>
      <point x="629" y="621" type="curve"/>
      <point x="668" y="621" type="line"/>
      <point x="699" y="688"/>
    </contour>
  </outline>
</glyph>
<glyph name="s" format="2">
  <advance width="727"/>
  <unicode hex="0073"/>
  <anchor x="354" y="0" name="H"/>
  <anchor x="365" y="-92" name="L"/>
  <anchor x="365" y="966" name="U"/>
  <outline>
    <contour>
      <point x="644" y="0"/>
      <point x="644" y="260" type="curve" smooth="yes"/>
      <point x="644" y="397"/>
      <point x="525" y="459"/>
      <point x="418" y="514" type="curve" smooth="yes"/>
      <point x="315" y="567"/>
      <point x="215" y="610"/>
      <point x="215" y="690" type="curve" smooth="yes"/>
      <point x="215" y="740"/>
      <point x="264" y="800"/>
      <point x="345" y="800" type="curve" smooth="yes"/>
      <point x="404" y="800"/>
      <point x="471" y="769"/>
      <point x="529" y="681" type="curve"/>
      <point x="564" y="674" type="line"/>
      <point x="580" y="693"/>
      <point x="625" y="798"/>
      <point x="610" y="812" type="curve" smooth="yes"/>
      <point x="562" y="855"/>
      <point x="446" y="883"/>
      <point x="368" y="883" type="curve" smooth="yes"/>
      <point x="230" y="883"/>
      <point x="95" y="796"/>
      <point x="95" y="644" type="curve" smooth="yes"/>
      <point x="95" y="527"/>
      <point x="194" y="466"/>
      <point x="296" y="413" type="curve" smooth="yes"/>
      <point x="408" y="354"/>
      <point x="524" y="307"/>
      <point x="524" y="208" type="curve" smooth="yes"/>
      <point x="524" y="122"/>
      <point x="461" y="64"/>
      <point x="373" y="64" type="curve" smooth="yes"/>
      <point x="246" y="64"/>
      <point x="149" y="147"/>
      <point x="143" y="250" type="curve"/>
      <point x="103" y="260" type="line"/>
      <point x="86" y="205"/>
      <point x="81" y="48"/>
      <point x="97" y="39" type="curve" smooth="yes"/>
      <point x="179" y="-6"/>
      <point x="269" y="-27"/>
      <point x="327" y="-27" type="curve" smooth="yes"/>
      <point x="399" y="-27"/>
    </contour>
  </outline>
</glyph>
<glyph name="t" format="2">
  <advance width="569"/>
  <unicode hex="0074"/>
  <outline>
    <contour>
      <point x="571" y="167" type="line"/>
      <point x="528" y="32"/>
      <point x="424" y="-30"/>
      <point x="343" y="-30" type="curve" smooth="yes"/>
      <point x="256" y="-30"/>
      <point x="162" y="8"/>
      <point x="162" y="213" type="curve" smooth="yes"/>
      <point x="162" y="847" type="line"/>
      <point x="16" y="847" type="line" name="hr01"/>
      <point x="16" y="879" type="line"/>
      <point x="69" y="898"/>
      <point x="134" y="954"/>
      <point x="185" y="1015" type="curve" smooth="yes"/>
      <point x="222" y="1058"/>
      <point x="242" y="1086"/>
      <point x="299" y="1218" type="curve"/>
      <point x="329" y="1218" type="line" name="hr02"/>
      <point x="329" y="916" type="line"/>
      <point x="544" y="916" type="line" name="hr03"/>
      <point x="544" y="847" type="line"/>
      <point x="329" y="847" type="line" name="hr04"/>
      <point x="329" y="236" type="line" smooth="yes"/>
      <point x="329" y="118"/>
      <point x="368" y="87"/>
      <point x="420" y="85" type="curve" smooth="yes"/>
      <point x="469" y="83"/>
      <point x="508" y="114"/>
      <point x="532" y="167" type="curve"/>
    </contour>
  </outline>
</glyph>
<glyph name="u" format="2">
  <advance width="1024"/>
  <unicode hex="0075"/>
  <outline>
    <contour>
      <point x="1026" y="85" type="line"/>
      <point x="749" y="-30" type="line"/>
      <point x="703" y="-30" type="line"/>
      <point x="703" y="165" type="line"/>
      <point x="550" y="4"/>
      <point x="481" y="-30"/>
      <point x="392" y="-30" type="curve" smooth="yes"/>
      <point x="179" y="-30"/>
      <point x="156" y="181"/>
      <point x="156" y="327" type="curve" smooth="yes"/>
      <point x="156" y="737" type="line" smooth="yes"/>
      <point x="156" y="857"/>
      <point x="115" y="879"/>
      <point x="0" y="879" type="curve" name="hr01"/>
      <point x="0" y="916" type="line"/>
      <point x="323" y="916" type="line"/>
      <point x="323" y="303" type="line" smooth="yes"/>
      <point x="323" y="199"/>
      <point x="343" y="95"/>
      <point x="475" y="95" type="curve" smooth="yes"/>
      <point x="528" y="95"/>
      <point x="601" y="122"/>
      <point x="703" y="225" type="curve"/>
      <point x="703" y="745" type="line" smooth="yes"/>
      <point x="703" y="856"/>
      <point x="660" y="875"/>
      <point x="556" y="879" type="curve" name="hr02"/>
      <point x="556" y="916" type="line"/>
      <point x="871" y="916" type="line"/>
      <point x="871" y="242" type="line" smooth="yes"/>
      <point x="871" y="134"/>
      <point x="889" y="104"/>
      <point x="932" y="104" type="curve" smooth="yes"/>
      <point x="951" y="105"/>
      <point x="983" y="108"/>
      <point x="1013" y="120" type="curve"/>
    </contour>
  </outline>
</glyph>
<glyph name="v" format="2">
  <advance width="1024"/>
  <unicode hex="0076"/>
  <outline>
    <contour>
      <point x="1007" y="879" type="line"/>
      <point x="971" y="877"/>
      <point x="950" y="871"/>
      <point x="932" y="859" type="curve"/>
      <point x="910" y="837"/>
      <point x="890" y="805"/>
      <point x="871" y="759" type="curve" smooth="yes"/>
      <point x="546" y="-30" type="line"/>
      <point x="504" y="-30" type="line"/>
      <point x="175" y="747" type="line" smooth="yes"/>
      <point x="147" y="814"/>
      <point x="122" y="839"/>
      <point x="85" y="863" type="curve"/>
      <point x="73" y="869"/>
      <point x="51" y="873"/>
      <point x="16" y="879" type="curve"/>
      <point x="16" y="916" type="line"/>
      <point x="449" y="916" type="line"/>
      <point x="449" y="879" type="line"/>
      <point x="420" y="879" type="line" smooth="yes"/>
      <point x="394" y="879"/>
      <point x="373" y="874"/>
      <point x="361" y="861" type="curve" smooth="yes"/>
      <point x="335" y="833"/>
      <point x="332" y="793"/>
      <point x="361" y="725" type="curve" smooth="yes"/>
      <point x="573" y="221" type="line"/>
      <point x="788" y="747" type="line" smooth="yes"/>
      <point x="811" y="802"/>
      <point x="819" y="833"/>
      <point x="804" y="855" type="curve" smooth="yes"/>
      <point x="796" y="867"/>
      <point x="780" y="879"/>
      <point x="707" y="879" type="curve"/>
      <point x="707" y="916" type="line"/>
      <point x="1007" y="916" type="line"/>
    </contour>
  </outline>
</glyph>
<glyph name="w" format="2">
  <advance width="1480"/>
  <unicode hex="0077"/>
  <outline>
    <contour>
      <point x="1462" y="879" type="line"/>
      <point x="1403" y="871"/>
      <point x="1359" y="832"/>
      <point x="1332" y="762" type="curve" smooth="yes"/>
      <point x="1026" y="-30" type="line"/>
      <point x="985" y="-30" type="line"/>
      <point x="757" y="558" type="line"/>
      <point x="491" y="-30" type="line"/>
      <point x="453" y="-30" type="line"/>
      <point x="158" y="741" type="line" smooth="yes"/>
      <point x="139" y="790"/>
      <point x="120" y="822"/>
      <point x="100" y="839" type="curve"/>
      <point x="85" y="857"/>
      <point x="53" y="871"/>
      <point x="12" y="879" type="curve"/>
      <point x="12" y="916" type="line"/>
      <point x="398" y="916" type="line"/>
      <point x="398" y="879" type="line"/>
      <point x="363" y="877"/>
      <point x="339" y="871"/>
      <point x="327" y="861" type="curve"/>
      <point x="305" y="839"/>
      <point x="304" y="801"/>
      <point x="327" y="741" type="curve" smooth="yes"/>
      <point x="524" y="215" type="line"/>
      <point x="721" y="644" type="line"/>
      <point x="670" y="780" type="line" smooth="yes"/>
      <point x="655" y="820"/>
      <point x="633" y="847"/>
      <point x="607" y="863" type="curve" smooth="yes"/>
      <point x="593" y="871"/>
      <point x="565" y="877"/>
      <point x="524" y="879" type="curve"/>
      <point x="524" y="916" type="line"/>
      <point x="961" y="916" type="line"/>
      <point x="961" y="879" type="line"/>
      <point x="912" y="877"/>
      <point x="878" y="871"/>
      <point x="859" y="855" type="curve" smooth="yes"/>
      <point x="843" y="842"/>
      <point x="827" y="796"/>
      <point x="847" y="762" type="curve"/>
      <point x="1056" y="236" type="line"/>
      <point x="1247" y="741" type="line" smooth="yes"/>
      <point x="1261" y="778"/>
      <point x="1269" y="808"/>
      <point x="1269" y="827" type="curve" smooth="yes"/>
      <point x="1269" y="843"/>
      <point x="1257" y="879"/>
      <point x="1172" y="879" type="curve"/>
      <point x="1172" y="916" type="line"/>
      <point x="1462" y="916" type="line"/>
    </contour>
  </outline>
</glyph>
<glyph name="x" format="2">
  <advance width="1024"/>
  <unicode hex="0078"/>
  <outline>
    <contour>
      <point x="35" y="0" type="line"/>
      <point x="335" y="0" type="line"/>
      <point x="335" y="37" type="line"/>
      <point x="232" y="41"/>
      <point x="233" y="104"/>
      <point x="260" y="140" type="curve" smooth="yes"/>
      <point x="459" y="406" type="line"/>
      <point x="648" y="126" type="line" smooth="yes"/>
      <point x="665" y="101"/>
      <point x="668" y="37"/>
      <point x="567" y="37" type="curve"/>
      <point x="567" y="0" type="line"/>
      <point x="1001" y="0" type="line"/>
      <point x="1001" y="37" type="line"/>
      <point x="961" y="39"/>
      <point x="918" y="51"/>
      <point x="906" y="63" type="curve" smooth="yes"/>
      <point x="851" y="118"/>
      <point x="841" y="130"/>
      <point x="786" y="209" type="curve" smooth="yes"/>
      <point x="558" y="536" type="line"/>
      <point x="682" y="705" type="line" smooth="yes"/>
      <point x="777" y="835"/>
      <point x="820" y="875"/>
      <point x="902" y="879" type="curve"/>
      <point x="902" y="916" type="line"/>
      <point x="593" y="916" type="line"/>
      <point x="593" y="879" type="line"/>
      <point x="674" y="879"/>
      <point x="674" y="827"/>
      <point x="654" y="798" type="curve" smooth="yes"/>
      <point x="518" y="601" type="line"/>
      <point x="388" y="806" type="line" smooth="yes"/>
      <point x="373" y="829"/>
      <point x="380" y="883"/>
      <point x="459" y="879" type="curve"/>
      <point x="459" y="916" type="line"/>
      <point x="28" y="916" type="line"/>
      <point x="28" y="879" type="line"/>
      <point x="114" y="875"/>
      <point x="144" y="863"/>
      <point x="244" y="717" type="curve" smooth="yes"/>
      <point x="418" y="465" type="line"/>
      <point x="225" y="209" type="line" smooth="yes"/>
      <point x="122" y="73"/>
      <point x="89" y="41"/>
      <point x="35" y="37" type="curve"/>
    </contour>
  </outline>
</glyph>
<glyph name="y" format="2">
  <advance width="1024"/>
  <unicode hex="0079"/>
  <outline>
    <contour>
      <point x="195" y="-443" type="curve" smooth="yes"/>
      <point x="309" y="-443"/>
      <point x="434" y="-347"/>
      <point x="504" y="-173" type="curve" smooth="yes"/>
      <point x="877" y="741" type="line" smooth="yes"/>
      <point x="926" y="861"/>
      <point x="954" y="875"/>
      <point x="1013" y="879" type="curve"/>
      <point x="1013" y="916" type="line"/>
      <point x="715" y="916" type="line"/>
      <point x="715" y="879" type="line"/>
      <point x="782" y="879"/>
      <point x="792" y="867"/>
      <point x="800" y="857" type="curve" smooth="yes"/>
      <point x="816" y="836"/>
      <point x="808" y="786"/>
      <point x="788" y="749" type="curve"/>
      <point x="583" y="242" type="line"/>
      <point x="361" y="703" type="line" smooth="yes"/>
      <point x="338" y="750"/>
      <point x="327" y="784"/>
      <point x="327" y="812" type="curve" smooth="yes"/>
      <point x="327" y="855"/>
      <point x="368" y="879"/>
      <point x="418" y="879" type="curve" smooth="yes"/>
      <point x="439" y="879" type="line"/>
      <point x="439" y="916" type="line"/>
      <point x="12" y="916" type="line"/>
      <point x="12" y="879" type="line"/>
      <point x="110" y="871"/>
      <point x="153" y="775"/>
      <point x="175" y="727" type="curve" smooth="yes"/>
      <point x="504" y="37" type="line"/>
      <point x="439" y="-122" type="line" smooth="yes"/>
      <point x="392" y="-239"/>
      <point x="343" y="-274"/>
      <point x="301" y="-274" type="curve" smooth="yes" name="hr01"/>
      <point x="286" y="-274"/>
      <point x="205" y="-238"/>
      <point x="162" y="-238" type="curve" smooth="yes"/>
      <point x="95" y="-238"/>
      <point x="59" y="-276"/>
      <point x="59" y="-329" type="curve" smooth="yes"/>
      <point x="59" y="-392"/>
      <point x="116" y="-443"/>
    </contour>
  </outline>
</glyph>
<glyph name="z" format="2">
  <advance width="910"/>
  <unicode hex="007A"/>
  <outline>
    <contour>
      <point x="41" y="0" type="line"/>
      <point x="849" y="0" type="line"/>
      <point x="861" y="280" type="line"/>
      <point x="826" y="280" type="line" name="hr01"/>
      <point x="806" y="110"/>
      <point x="780" y="106"/>
      <point x="737" y="85" type="curve" smooth="yes"/>
      <point x="713" y="73"/>
      <point x="666" y="67"/>
      <point x="597" y="67" type="curve" smooth="yes"/>
      <point x="262" y="67" type="line"/>
      <point x="877" y="879" type="line"/>
      <point x="877" y="916" type="line"/>
      <point x="108" y="916" type="line"/>
      <point x="102" y="662" type="line"/>
      <point x="142" y="662" type="line" name="hr02"/>
      <point x="152" y="770"/>
      <point x="181" y="816"/>
      <point x="221" y="833" type="curve" smooth="yes"/>
      <point x="244" y="841"/>
      <point x="286" y="847"/>
      <point x="349" y="847" type="curve" smooth="yes"/>
      <point x="650" y="847" type="line"/>
      <point x="41" y="37" type="line"/>
    </contour>
  </outline>
</glyph>
<glyph name="braceleft" format="2">
  <advance width="1089"/>
  <unicode hex="007B"/>
  <outline>
    <contour>
      <point x="840" y="-491" type="line"/>
      <point x="627" y="-469"/>
      <point x="447" y="-287"/>
      <point x="447" y="-64" type="curve" smooth="yes"/>
      <point x="447" y="55"/>
      <point x="497" y="176"/>
      <point x="497" y="274" type="curve" smooth="yes" name="hr01"/>
      <point x="497" y="416"/>
      <point x="350" y="504"/>
      <point x="243" y="517" type="curve"/>
      <point x="243" y="574" type="line"/>
      <point x="348" y="587"/>
      <point x="497" y="674"/>
      <point x="497" y="813" type="curve" smooth="yes"/>
      <point x="497" y="915"/>
      <point x="447" y="1045"/>
      <point x="447" y="1170" type="curve" smooth="yes" name="hr02"/>
      <point x="447" y="1386"/>
      <point x="634" y="1560"/>
      <point x="840" y="1582" type="curve"/>
      <point x="840" y="1543" type="line"/>
      <point x="693" y="1506"/>
      <point x="581" y="1411"/>
      <point x="581" y="1249" type="curve" smooth="yes"/>
      <point x="581" y="1143"/>
      <point x="630" y="1047"/>
      <point x="630" y="940" type="curve" smooth="yes" name="hr03"/>
      <point x="630" y="743"/>
      <point x="533" y="610"/>
      <point x="357" y="546" type="curve"/>
      <point x="534" y="482"/>
      <point x="630" y="347"/>
      <point x="630" y="147" type="curve" smooth="yes"/>
      <point x="630" y="42"/>
      <point x="581" y="-54"/>
      <point x="581" y="-158" type="curve" smooth="yes" name="hr04"/>
      <point x="581" y="-320"/>
      <point x="693" y="-414"/>
      <point x="840" y="-451" type="curve"/>
    </contour>
  </outline>
</glyph>
<glyph name="bar" format="2">
  <advance width="460"/>
  <unicode hex="007C"/>
  <outline>
    <contour>
      <point x="272" y="-431"/>
      <point x="294" y="-412" type="curve"/>
      <point x="294" y="1516" type="line"/>
      <point x="261" y="1536" type="line"/>
      <point x="225" y="1527"/>
      <point x="199" y="1511"/>
      <point x="165" y="1491" type="curve"/>
      <point x="165" y="-438" type="line"/>
      <point x="197" y="-460" type="line"/>
      <point x="228" y="-449"/>
    </contour>
  </outline>
</glyph>
<glyph name="braceright" format="2">
  <advance width="1089"/>
  <unicode hex="007D"/>
  <outline>
    <contour>
      <point x="839" y="517" type="line"/>
      <point x="732" y="504"/>
      <point x="585" y="416"/>
      <point x="585" y="274" type="curve" smooth="yes"/>
      <point x="585" y="176"/>
      <point x="636" y="55"/>
      <point x="636" y="-64" type="curve" smooth="yes" name="hr01"/>
      <point x="636" y="-287"/>
      <point x="456" y="-469"/>
      <point x="243" y="-491" type="curve"/>
      <point x="243" y="-451" type="line"/>
      <point x="390" y="-414"/>
      <point x="501" y="-320"/>
      <point x="501" y="-158" type="curve" smooth="yes"/>
      <point x="501" y="-54"/>
      <point x="453" y="42"/>
      <point x="453" y="147" type="curve" smooth="yes" name="hr02"/>
      <point x="453" y="347"/>
      <point x="548" y="482"/>
      <point x="725" y="546" type="curve"/>
      <point x="549" y="610"/>
      <point x="453" y="743"/>
      <point x="453" y="940" type="curve" smooth="yes"/>
      <point x="453" y="1047"/>
      <point x="501" y="1143"/>
      <point x="501" y="1249" type="curve" smooth="yes" name="hr03"/>
      <point x="501" y="1409"/>
      <point x="389" y="1507"/>
      <point x="243" y="1543" type="curve"/>
      <point x="243" y="1582" type="line"/>
      <point x="449" y="1560"/>
      <point x="636" y="1386"/>
      <point x="636" y="1170" type="curve" smooth="yes"/>
      <point x="636" y="1045"/>
      <point x="585" y="915"/>
      <point x="585" y="813" type="curve" smooth="yes" name="hr04"/>
      <point x="585" y="674"/>
      <point x="734" y="587"/>
      <point x="839" y="574" type="curve"/>
    </contour>
  </outline>
</glyph>
<glyph name="asciitilde" format="2">
  <advance width="919"/>
  <unicode hex="007E"/>
  <outline>
    <contour>
      <point x="823" y="591"/>
      <point x="874" y="712" type="curve"/>
      <point x="825" y="735" type="line"/>
      <point x="774" y="634"/>
      <point x="721" y="587"/>
      <point x="663" y="587" type="curve" smooth="yes"/>
      <point x="564" y="587"/>
      <point x="437" y="735"/>
      <point x="323" y="735" type="curve" smooth="yes"/>
      <point x="207" y="735"/>
      <point x="97" y="582"/>
      <point x="45" y="461" type="curve"/>
      <point x="93" y="437" type="line"/>
      <point x="145" y="539"/>
      <point x="194" y="586"/>
      <point x="253" y="586" type="curve" smooth="yes"/>
      <point x="359" y="586"/>
      <point x="492" y="438"/>
      <point x="595" y="438" type="curve" smooth="yes"/>
      <point x="712" y="438"/>
    </contour>
  </outline>
</glyph>
<glyph name="exclamdown" format="2">
  <advance width="512"/>
  <unicode hex="00A1"/>
  <outline>
    <contour>
      <point x="359" y="697"/>
      <point x="359" y="780" type="curve"/>
      <point x="359" y="846"/>
      <point x="333" y="884"/>
      <point x="269" y="884" type="curve" smooth="yes"/>
      <point x="195" y="884"/>
      <point x="141" y="817"/>
      <point x="141" y="735" type="curve" smooth="yes"/>
      <point x="141" y="667"/>
      <point x="171" y="629"/>
      <point x="233" y="629" type="curve" smooth="yes"/>
      <point x="301" y="629"/>
    </contour>
    <contour>
      <point x="293" y="-474"/>
      <point x="341" y="-444" type="curve"/>
      <point x="296" y="506" type="line"/>
      <point x="271" y="523" type="line"/>
      <point x="239" y="514"/>
      <point x="226" y="506"/>
      <point x="201" y="487" type="curve"/>
      <point x="158" y="-499" type="line"/>
      <point x="197" y="-519" type="line"/>
      <point x="239" y="-505"/>
    </contour>
  </outline>
</glyph>
<glyph name="currency" format="2">
  <advance width="1182"/>
  <unicode hex="00A4"/>
  <outline>
    <contour>
      <point x="1123" y="386" type="line"/>
      <point x="1052" y="315" type="line"/>
      <point x="849" y="518" type="line"/>
      <point x="778" y="457"/>
      <point x="686" y="426"/>
      <point x="595" y="426" type="curve" smooth="yes"/>
      <point x="496" y="426"/>
      <point x="406" y="455"/>
      <point x="333" y="518" type="curve"/>
      <point x="130" y="315" type="line"/>
      <point x="59" y="386" type="line"/>
      <point x="262" y="589" type="line"/>
      <point x="205" y="660"/>
      <point x="175" y="749"/>
      <point x="175" y="841" type="curve" smooth="yes"/>
      <point x="175" y="932"/>
      <point x="203" y="1032"/>
      <point x="266" y="1101" type="curve"/>
      <point x="59" y="1308" type="line"/>
      <point x="130" y="1379" type="line"/>
      <point x="337" y="1172" type="line"/>
      <point x="408" y="1229"/>
      <point x="502" y="1259"/>
      <point x="595" y="1259" type="curve" smooth="yes"/>
      <point x="686" y="1259"/>
      <point x="776" y="1227"/>
      <point x="843" y="1170" type="curve"/>
      <point x="1052" y="1379" type="line"/>
      <point x="1123" y="1308" type="line"/>
      <point x="918" y="1103" type="line"/>
      <point x="973" y="1034"/>
      <point x="1007" y="936"/>
      <point x="1007" y="843" type="curve" smooth="yes"/>
      <point x="1007" y="751"/>
      <point x="979" y="660"/>
      <point x="920" y="589" type="curve"/>
    </contour>
    <contour>
      <point x="894" y="843" type="line" smooth="yes"/>
      <point x="894" y="1007"/>
      <point x="760" y="1147"/>
      <point x="595" y="1147" type="curve" smooth="yes"/>
      <point x="424" y="1147"/>
      <point x="288" y="1013"/>
      <point x="288" y="841" type="curve" smooth="yes"/>
      <point x="288" y="672"/>
      <point x="426" y="538"/>
      <point x="595" y="538" type="curve" smooth="yes"/>
      <point x="762" y="538"/>
      <point x="894" y="678"/>
      <point x="894" y="843" type="curve" smooth="yes"/>
    </contour>
  </outline>
</glyph>
<glyph name="dieresis" format="2">
  <advance width="736"/>
  <unicode hex="00A8"/>
  <anchor x="368" y="1297" name="U"/>
  <outline>
    <contour>
      <point x="276" y="1091"/>
      <point x="276" y="1160" type="curve"/>
      <point x="276" y="1217"/>
      <point x="250" y="1247"/>
      <point x="197" y="1247" type="curve" smooth="yes"/>
      <point x="139" y="1247"/>
      <point x="92" y="1192"/>
      <point x="92" y="1122" type="curve" smooth="yes"/>
      <point x="92" y="1066"/>
      <point x="115" y="1034"/>
      <point x="169" y="1034" type="curve" smooth="yes"/>
      <point x="230" y="1034"/>
    </contour>
    <contour>
      <point x="644" y="1091"/>
      <point x="644" y="1160" type="curve"/>
      <point x="644" y="1217"/>
      <point x="618" y="1247"/>
      <point x="565" y="1247" type="curve" smooth="yes"/>
      <point x="507" y="1247"/>
      <point x="460" y="1192"/>
      <point x="460" y="1122" type="curve" smooth="yes"/>
      <point x="460" y="1066"/>
      <point x="483" y="1034"/>
      <point x="537" y="1034" type="curve" smooth="yes"/>
      <point x="598" y="1034"/>
    </contour>
  </outline>
</glyph>
<glyph name="copyright" format="2">
  <advance width="1343"/>
  <unicode hex="00A9"/>
  <outline>
    <contour>
      <point x="670" y="-27" type="curve" smooth="yes"/>
      <point x="1006" y="-27"/>
      <point x="1251" y="244"/>
      <point x="1251" y="580" type="curve" smooth="yes"/>
      <point x="1251" y="915"/>
      <point x="1006" y="1186"/>
      <point x="670" y="1186" type="curve" smooth="yes"/>
      <point x="335" y="1186"/>
      <point x="92" y="915"/>
      <point x="92" y="580" type="curve" smooth="yes"/>
      <point x="92" y="244"/>
      <point x="335" y="-27"/>
    </contour>
    <contour>
      <point x="650" y="199" type="curve" smooth="yes"/>
      <point x="738" y="199"/>
      <point x="827" y="233"/>
      <point x="936" y="339" type="curve"/>
      <point x="911" y="365" type="line"/>
      <point x="817" y="296"/>
      <point x="770" y="280"/>
      <point x="717" y="280" type="curve" smooth="yes"/>
      <point x="614" y="280"/>
      <point x="449" y="380"/>
      <point x="449" y="576" type="curve" smooth="yes"/>
      <point x="449" y="816"/>
      <point x="593" y="885"/>
      <point x="672" y="885" type="curve" smooth="yes"/>
      <point x="747" y="885"/>
      <point x="800" y="850"/>
      <point x="844" y="816" type="curve"/>
      <point x="866" y="812" type="line"/>
      <point x="887" y="828"/>
      <point x="934" y="895"/>
      <point x="925" y="902" type="curve"/>
      <point x="879" y="934"/>
      <point x="810" y="960"/>
      <point x="717" y="960" type="curve" smooth="yes"/>
      <point x="506" y="960"/>
      <point x="329" y="800"/>
      <point x="329" y="553" type="curve" smooth="yes"/>
      <point x="329" y="331"/>
      <point x="492" y="199"/>
    </contour>
    <contour>
      <point x="670" y="51" type="curve" smooth="yes"/>
      <point x="380" y="51"/>
      <point x="171" y="287"/>
      <point x="171" y="580" type="curve" smooth="yes"/>
      <point x="171" y="870"/>
      <point x="380" y="1107"/>
      <point x="670" y="1107" type="curve" smooth="yes"/>
      <point x="963" y="1107"/>
      <point x="1172" y="870"/>
      <point x="1172" y="580" type="curve" smooth="yes"/>
      <point x="1172" y="287"/>
      <point x="963" y="51"/>
    </contour>
  </outline>
</glyph>
<glyph name="ordfeminine" format="2">
  <advance width="482"/>
  <unicode hex="00AA"/>
  <outline>
    <contour>
      <point x="416" y="668"/>
      <point x="472" y="706" type="curve"/>
      <point x="467" y="729" type="line"/>
      <point x="433" y="715"/>
      <point x="414" y="715"/>
      <point x="408" y="719" type="curve" smooth="yes"/>
      <point x="401" y="727"/>
      <point x="395" y="740"/>
      <point x="395" y="774" type="curve" smooth="yes"/>
      <point x="395" y="954" type="line" smooth="yes"/>
      <point x="395" y="1091"/>
      <point x="363" y="1136"/>
      <point x="275" y="1136" type="curve" smooth="yes"/>
      <point x="210" y="1136"/>
      <point x="71" y="1066"/>
      <point x="60" y="989" type="curve"/>
      <point x="68" y="970" type="line"/>
      <point x="84" y="966"/>
      <point x="167" y="985"/>
      <point x="163" y="996" type="curve" smooth="yes"/>
      <point x="145" y="1047"/>
      <point x="195" y="1083"/>
      <point x="231" y="1083" type="curve" smooth="yes"/>
      <point x="298" y="1083"/>
      <point x="310" y="1042"/>
      <point x="310" y="966" type="curve" smooth="yes"/>
      <point x="310" y="778" type="line" smooth="yes"/>
      <point x="310" y="691"/>
      <point x="337" y="654"/>
      <point x="359" y="654" type="curve" smooth="yes"/>
      <point x="379" y="654"/>
    </contour>
    <contour>
      <point x="271" y="902" type="curve"/>
      <point x="380" y="931" type="line"/>
      <point x="377" y="968" type="line"/>
      <point x="226" y="929" type="line" smooth="yes"/>
      <point x="102" y="895"/>
      <point x="45" y="834"/>
      <point x="45" y="759" type="curve" smooth="yes"/>
      <point x="45" y="681"/>
      <point x="103" y="654"/>
      <point x="152" y="654" type="curve" smooth="yes"/>
      <point x="197" y="654"/>
      <point x="265" y="679"/>
      <point x="329" y="746" type="curve"/>
      <point x="323" y="783" type="line"/>
      <point x="273" y="738"/>
      <point x="224" y="717"/>
      <point x="183" y="717" type="curve" smooth="yes"/>
      <point x="165" y="717"/>
      <point x="135" y="729"/>
      <point x="135" y="780" type="curve" smooth="yes"/>
      <point x="135" y="832"/>
      <point x="163" y="872"/>
    </contour>
    <contour>
      <point x="46" y="539" type="line"/>
      <point x="446" y="539" type="line"/>
      <point x="446" y="606" type="line"/>
      <point x="46" y="606" type="line"/>
    </contour>
  </outline>
</glyph>
<glyph name="guillemotleft" format="2">
  <advance width="914"/>
  <unicode hex="00AB"/>
  <outline>
    <contour>
      <point x="414" y="395" type="curve"/>
      <point x="746" y="15" type="line"/>
      <point x="785" y="43" type="line"/>
      <point x="573" y="429" type="line"/>
      <point x="570" y="427"/>
      <point x="785" y="812"/>
      <point x="784" y="812" type="curve"/>
      <point x="746" y="839" type="line"/>
      <point x="415" y="462" type="line"/>
      <point x="414" y="460"/>
      <point x="414" y="395"/>
    </contour>
    <contour>
      <point x="73" y="395" type="curve"/>
      <point x="405" y="15" type="line"/>
      <point x="445" y="43" type="line"/>
      <point x="232" y="429" type="line"/>
      <point x="230" y="427"/>
      <point x="445" y="812"/>
      <point x="444" y="812" type="curve"/>
      <point x="405" y="839" type="line"/>
      <point x="75" y="462" type="line"/>
      <point x="73" y="460"/>
      <point x="73" y="395"/>
    </contour>
  </outline>
</glyph>
<glyph name="sfthyphen" format="2">
  <advance width="635"/>
  <unicode hex="00AD"/>
  <outline>
    <contour>
      <point x="144" y="505" type="curve" smooth="yes"/>
      <point x="490" y="505" type="line" smooth="yes"/>
      <point x="510" y="505"/>
      <point x="517" y="507"/>
      <point x="517" y="551" type="curve" smooth="yes"/>
      <point x="517" y="591"/>
      <point x="509" y="594"/>
      <point x="488" y="594" type="curve" smooth="yes"/>
      <point x="147" y="594" type="line" smooth="yes"/>
      <point x="124" y="594"/>
      <point x="118" y="591"/>
      <point x="118" y="551" type="curve" smooth="yes"/>
      <point x="118" y="508"/>
      <point x="123" y="505"/>
    </contour>
  </outline>
</glyph>
<glyph name="registered" format="2">
  <advance width="671"/>
  <unicode hex="00AE"/>
  <outline>
    <contour>
      <point x="640" y="821"/>
      <point x="640" y="997" type="curve"/>
      <point x="640" y="1173"/>
      <point x="511" y="1315"/>
      <point x="334" y="1315" type="curve" smooth="yes"/>
      <point x="159" y="1315"/>
      <point x="32" y="1173"/>
      <point x="32" y="997" type="curve" smooth="yes"/>
      <point x="32" y="821"/>
      <point x="159" y="678"/>
      <point x="334" y="678" type="curve" smooth="yes"/>
      <point x="511" y="678"/>
    </contour>
    <contour>
      <point x="586" y="1142"/>
      <point x="586" y="997" type="curve"/>
      <point x="586" y="851"/>
      <point x="481" y="733"/>
      <point x="334" y="733" type="curve" smooth="yes"/>
      <point x="190" y="733"/>
      <point x="85" y="851"/>
      <point x="85" y="997" type="curve" smooth="yes"/>
      <point x="85" y="1142"/>
      <point x="190" y="1261"/>
      <point x="334" y="1261" type="curve" smooth="yes"/>
      <point x="481" y="1261"/>
    </contour>
    <contour>
      <point x="459" y="1026"/>
      <point x="459" y="1100" type="curve"/>
      <point x="459" y="1150"/>
      <point x="411" y="1187"/>
      <point x="319" y="1187" type="curve" smooth="yes"/>
      <point x="268" y="1187"/>
      <point x="230" y="1179"/>
      <point x="195" y="1171" type="curve"/>
      <point x="196" y="1144" type="line"/>
      <point x="236" y="1150"/>
      <point x="275" y="1155"/>
      <point x="309" y="1155" type="curve" smooth="yes"/>
      <point x="379" y="1155"/>
      <point x="402" y="1127"/>
      <point x="402" y="1092" type="curve" smooth="yes"/>
      <point x="402" y="1045"/>
      <point x="374" y="1018"/>
      <point x="312" y="1018" type="curve" smooth="yes"/>
      <point x="301" y="1018"/>
      <point x="293" y="1019"/>
      <point x="280" y="1022" type="curve"/>
      <point x="282" y="989" type="line"/>
      <point x="294" y="986"/>
      <point x="306" y="984"/>
      <point x="316" y="984" type="curve" smooth="yes"/>
      <point x="394" y="984"/>
    </contour>
    <contour>
      <point x="486" y="818"/>
      <point x="511" y="826" type="curve"/>
      <point x="509" y="845" type="line"/>
      <point x="483" y="843"/>
      <point x="470" y="846"/>
      <point x="461" y="859" type="curve" smooth="yes"/>
      <point x="353" y="1010" type="line"/>
      <point x="313" y="992" type="line"/>
      <point x="414" y="827" type="line" smooth="yes"/>
      <point x="419" y="819"/>
      <point x="432" y="810"/>
      <point x="443" y="810" type="curve" smooth="yes"/>
      <point x="457" y="810"/>
    </contour>
    <contour>
      <point x="196" y="816" type="line"/>
      <point x="327" y="816" type="line"/>
      <point x="327" y="832" type="line"/>
      <point x="299" y="838"/>
      <point x="287" y="845"/>
      <point x="287" y="850" type="curve" smooth="yes"/>
      <point x="287" y="1167" type="line"/>
      <point x="237" y="1167" type="line"/>
      <point x="237" y="850" type="line" smooth="yes"/>
      <point x="237" y="844"/>
      <point x="222" y="838"/>
      <point x="196" y="832" type="curve"/>
    </contour>
  </outline>
</glyph>
<glyph name="acute" format="2">
  <advance width="600"/>
  <unicode hex="00B4"/>
  <anchor x="300" y="1297" name="U"/>
  <outline>
    <contour>
      <point x="252" y="963" type="curve"/>
      <point x="569" y="1312" type="line"/>
      <point x="548" y="1348" type="line"/>
      <point x="520" y="1356"/>
      <point x="444" y="1368"/>
      <point x="414" y="1369" type="curve"/>
      <point x="199" y="989" type="line"/>
      <point x="214" y="977"/>
      <point x="230" y="967"/>
    </contour>
  </outline>
</glyph>
<glyph name="paragraph" format="2">
  <advance width="928"/>
  <unicode hex="00B6"/>
  <outline>
    <contour>
      <point x="932" y="1300" type="line"/>
      <point x="800" y="1300" type="line"/>
      <point x="800" y="-443" type="line"/>
      <point x="725" y="-443" type="line"/>
      <point x="725" y="1300" type="line"/>
      <point x="540" y="1300" type="line"/>
      <point x="540" y="-443" type="line"/>
      <point x="467" y="-443" type="line"/>
      <point x="467" y="603" type="line"/>
      <point x="236" y="609"/>
      <point x="-14" y="668"/>
      <point x="-14" y="981" type="curve" smooth="yes" name="hr01"/>
      <point x="-14" y="1271"/>
      <point x="223" y="1355"/>
      <point x="437" y="1355" type="curve" smooth="yes"/>
      <point x="932" y="1355" type="line"/>
    </contour>
  </outline>
</glyph>
<glyph name="periodcentered" format="2">
  <advance width="378"/>
  <unicode hex="00B7"/>
  <outline>
    <contour>
      <point x="281" y="748" type="line" smooth="yes"/>
      <point x="281" y="672"/>
      <point x="239" y="622"/>
      <point x="188" y="622" type="curve" smooth="yes"/>
      <point x="136" y="622"/>
      <point x="96" y="674"/>
      <point x="96" y="748" type="curve" smooth="yes"/>
      <point x="96" y="828"/>
      <point x="143" y="870"/>
      <point x="188" y="870" type="curve" smooth="yes"/>
      <point x="233" y="870"/>
      <point x="281" y="824"/>
      <point x="281" y="748" type="curve" smooth="yes"/>
    </contour>
  </outline>
</glyph>
<glyph name="onehalf" format="2">
  <advance width="1104"/>
  <unicode hex="00BD"/>
  <outline>
    <contour>
      <point x="291" y="2" type="curve"/>
      <point x="989" y="1110" type="line"/>
      <point x="966" y="1136" type="line"/>
      <point x="939" y="1130"/>
      <point x="908" y="1116"/>
      <point x="884" y="1106" type="curve"/>
      <point x="183" y="0" type="line"/>
      <point x="206" y="-27" type="line"/>
      <point x="239" y="-19"/>
      <point x="263" y="-11"/>
    </contour>
    <contour>
      <point x="89" y="586" type="line"/>
      <point x="434" y="586" type="line"/>
      <point x="434" y="617" type="line"/>
      <point x="331" y="628"/>
      <point x="312" y="644"/>
      <point x="312" y="656" type="curve" smooth="yes"/>
      <point x="312" y="1120" type="line"/>
      <point x="294" y="1136" type="line"/>
      <point x="249" y="1114"/>
      <point x="130" y="1074"/>
      <point x="73" y="1060" type="curve"/>
      <point x="84" y="1030" type="line"/>
      <point x="174" y="1047"/>
      <point x="203" y="1044"/>
      <point x="211" y="1036" type="curve" smooth="yes"/>
      <point x="220" y="1029"/>
      <point x="220" y="1017"/>
      <point x="220" y="993" type="curve" smooth="yes"/>
      <point x="220" y="656" type="line" smooth="yes"/>
      <point x="220" y="644"/>
      <point x="196" y="628"/>
      <point x="89" y="617" type="curve"/>
    </contour>
    <contour>
      <point x="1023" y="0" type="line"/>
      <point x="1030" y="126" type="line"/>
      <point x="997" y="131" type="line"/>
      <point x="997" y="131"/>
      <point x="991" y="60"/>
      <point x="944" y="60" type="curve" smooth="yes"/>
      <point x="744" y="60" type="line"/>
      <point x="954" y="273"/>
      <point x="1023" y="341"/>
      <point x="1023" y="420" type="curve" smooth="yes"/>
      <point x="1023" y="506"/>
      <point x="958" y="545"/>
      <point x="868" y="545" type="curve" smooth="yes"/>
      <point x="755" y="545"/>
      <point x="649" y="465"/>
      <point x="649" y="403" type="curve"/>
      <point x="663" y="391" type="line"/>
      <point x="694" y="393"/>
      <point x="721" y="400"/>
      <point x="745" y="412" type="curve"/>
      <point x="745" y="454"/>
      <point x="781" y="496"/>
      <point x="833" y="496" type="curve" smooth="yes"/>
      <point x="903" y="496"/>
      <point x="929" y="461"/>
      <point x="929" y="407" type="curve" smooth="yes"/>
      <point x="929" y="340"/>
      <point x="880" y="276"/>
      <point x="635" y="32" type="curve"/>
      <point x="650" y="0" type="line"/>
    </contour>
  </outline>
</glyph>
<glyph name="questiondown" format="2">
  <advance width="816"/>
  <unicode hex="00BF"/>
  <outline>
    <contour>
      <point x="539" y="697"/>
      <point x="539" y="780" type="curve" smooth="yes"/>
      <point x="539" y="846"/>
      <point x="510" y="883"/>
      <point x="446" y="883" type="curve" smooth="yes"/>
      <point x="375" y="883"/>
      <point x="320" y="817"/>
      <point x="320" y="735" type="curve" smooth="yes"/>
      <point x="320" y="667"/>
      <point x="348" y="629"/>
      <point x="410" y="629" type="curve" smooth="yes"/>
      <point x="480" y="629"/>
    </contour>
    <contour>
      <point x="410" y="506"/>
      <point x="390" y="487" type="curve"/>
      <point x="384" y="399" type="line"/>
      <point x="365" y="141"/>
      <point x="73" y="50"/>
      <point x="73" y="-226" type="curve" smooth="yes"/>
      <point x="73" y="-395"/>
      <point x="172" y="-514"/>
      <point x="354" y="-514" type="curve" smooth="yes"/>
      <point x="559" y="-514"/>
      <point x="742" y="-388"/>
      <point x="742" y="-214" type="curve" smooth="yes"/>
      <point x="742" y="-205"/>
      <point x="742" y="-194"/>
      <point x="740" y="-184" type="curve"/>
      <point x="715" y="-156" type="line"/>
      <point x="661" y="-160"/>
      <point x="620" y="-169"/>
      <point x="578" y="-192" type="curve"/>
      <point x="586" y="-208"/>
      <point x="591" y="-226"/>
      <point x="591" y="-244" type="curve" smooth="yes"/>
      <point x="591" y="-341"/>
      <point x="514" y="-427"/>
      <point x="425" y="-427" type="curve" smooth="yes"/>
      <point x="298" y="-427"/>
      <point x="226" y="-335"/>
      <point x="226" y="-184" type="curve" smooth="yes"/>
      <point x="226" y="-9"/>
      <point x="501" y="188"/>
      <point x="487" y="399" type="curve"/>
      <point x="482" y="506" type="line"/>
      <point x="458" y="525" type="line"/>
      <point x="425" y="516"/>
    </contour>
  </outline>
</glyph>
<glyph name="multiply" format="2">
  <advance width="772"/>
  <unicode hex="00D7"/>
  <outline>
    <contour>
      <point x="661" y="247"/>
      <point x="686" y="257" type="curve"/>
      <point x="686" y="288" type="line"/>
      <point x="172" y="803" type="line"/>
      <point x="145" y="796"/>
      <point x="110" y="785"/>
      <point x="86" y="774" type="curve"/>
      <point x="87" y="743" type="line"/>
      <point x="601" y="229" type="line"/>
      <point x="623" y="234"/>
    </contour>
    <contour>
      <point x="85" y="288" type="line"/>
      <point x="85" y="257" type="line"/>
      <point x="110" y="247"/>
      <point x="148" y="234"/>
      <point x="171" y="229" type="curve"/>
      <point x="685" y="743" type="line"/>
      <point x="685" y="774" type="line"/>
      <point x="661" y="785"/>
      <point x="626" y="796"/>
      <point x="599" y="803" type="curve"/>
    </contour>
  </outline>
</glyph>
<glyph name="ae" format="2">
  <advance width="1303"/>
  <unicode hex="00E6"/>
  <anchor x="678" y="0" name="H"/>
  <anchor x="678" y="-92" name="L"/>
  <anchor x="938" y="0" name="O"/>
  <anchor x="1365" y="828" name="R"/>
  <anchor x="678" y="966" name="U"/>
  <outline>
    <contour>
      <point x="269" y="-27" type="curve" smooth="yes"/>
      <point x="346" y="-27"/>
      <point x="499" y="37"/>
      <point x="605" y="164" type="curve"/>
      <point x="656" y="43"/>
      <point x="759" y="-27"/>
      <point x="868" y="-27" type="curve" smooth="yes"/>
      <point x="983" y="-27"/>
      <point x="1075" y="3"/>
      <point x="1222" y="179" type="curve"/>
      <point x="1217" y="188"/>
      <point x="1204" y="208"/>
      <point x="1188" y="217" type="curve"/>
      <point x="1058" y="103"/>
      <point x="1004" y="93"/>
      <point x="927" y="93" type="curve" smooth="yes"/>
      <point x="791" y="93"/>
      <point x="712" y="242"/>
      <point x="712" y="384" type="curve" smooth="yes"/>
      <point x="712" y="407"/>
      <point x="713" y="429"/>
      <point x="713" y="449" type="curve"/>
      <point x="1127" y="449" type="line"/>
      <point x="1166" y="465"/>
      <point x="1206" y="487"/>
      <point x="1230" y="512" type="curve"/>
      <point x="1230" y="678"/>
      <point x="1166" y="883"/>
      <point x="942" y="883" type="curve" smooth="yes"/>
      <point x="870" y="883"/>
      <point x="768" y="851"/>
      <point x="689" y="750" type="curve"/>
      <point x="660" y="839"/>
      <point x="599" y="883"/>
      <point x="492" y="883" type="curve" smooth="yes"/>
      <point x="365" y="883"/>
      <point x="117" y="749"/>
      <point x="99" y="604" type="curve"/>
      <point x="112" y="571" type="line"/>
      <point x="142" y="563"/>
      <point x="276" y="598"/>
      <point x="268" y="621" type="curve"/>
      <point x="232" y="713"/>
      <point x="352" y="791"/>
      <point x="429" y="791" type="curve" smooth="yes"/>
      <point x="550" y="791"/>
      <point x="573" y="704"/>
      <point x="573" y="609" type="curve" smooth="yes"/>
      <point x="573" y="529" type="line"/>
      <point x="519" y="526"/>
      <point x="466" y="519"/>
      <point x="425" y="508" type="curve" smooth="yes"/>
      <point x="186" y="440"/>
      <point x="73" y="316"/>
      <point x="73" y="171" type="curve" smooth="yes"/>
      <point x="73" y="28"/>
      <point x="181" y="-27"/>
    </contour>
    <contour>
      <point x="323" y="92" type="curve" smooth="yes"/>
      <point x="291" y="92"/>
      <point x="224" y="113"/>
      <point x="224" y="210" type="curve" smooth="yes"/>
      <point x="224" y="327"/>
      <point x="333" y="400"/>
      <point x="467" y="430" type="curve" smooth="yes"/>
      <point x="501" y="438"/>
      <point x="537" y="443"/>
      <point x="573" y="446" type="curve"/>
      <point x="573" y="355" type="line" smooth="yes"/>
      <point x="573" y="297"/>
      <point x="575" y="267"/>
      <point x="586" y="224" type="curve"/>
      <point x="495" y="135"/>
      <point x="391" y="92"/>
    </contour>
    <contour>
      <point x="722" y="533" type="line"/>
      <point x="755" y="749"/>
      <point x="861" y="791"/>
      <point x="915" y="791" type="curve" smooth="yes"/>
      <point x="1030" y="791"/>
      <point x="1077" y="683"/>
      <point x="1077" y="566" type="curve" smooth="yes"/>
      <point x="1077" y="540"/>
      <point x="1068" y="533"/>
      <point x="1042" y="533" type="curve" smooth="yes"/>
    </contour>
  </outline>
</glyph>
<glyph name="hungarumlaut" format="2">
  <advance width="706"/>
  <unicode hex="02DD"/>
  <outline>
    <contour>
      <point x="393" y="963" type="curve"/>
      <point x="632" y="1309" type="line"/>
      <point x="612" y="1346" type="line"/>
      <point x="586" y="1356"/>
      <point x="533" y="1366"/>
      <point x="503" y="1369" type="curve"/>
      <point x="341" y="988" type="line"/>
      <point x="363" y="973"/>
      <point x="370" y="967"/>
    </contour>
    <contour>
      <point x="126" y="963" type="curve"/>
      <point x="365" y="1309" type="line"/>
      <point x="345" y="1346" type="line"/>
      <point x="320" y="1356"/>
      <point x="265" y="1366"/>
      <point x="235" y="1369" type="curve"/>
      <point x="73" y="988" type="line"/>
      <point x="97" y="973"/>
      <point x="105" y="967"/>
    </contour>
  </outline>
</glyph>
<glyph name="pi" format="2">
  <advance width="991"/>
  <unicode hex="03C0"/>
  <anchor x="530" y="-92" name="L"/>
  <anchor x="530" y="966" name="U"/>
  <outline>
    <contour>
      <point x="784" y="719" type="curve" smooth="yes"/>
      <point x="842" y="719"/>
      <point x="909" y="769"/>
      <point x="973" y="856" type="curve"/>
      <point x="947" y="883" type="line"/>
      <point x="909" y="856"/>
      <point x="865" y="855"/>
      <point x="814" y="855" type="curve" smooth="yes"/>
      <point x="648" y="855"/>
      <point x="511" y="855"/>
      <point x="231" y="855" type="curve" smooth="yes"/>
      <point x="154" y="855"/>
      <point x="89" y="790"/>
      <point x="18" y="704" type="curve"/>
      <point x="39" y="671" type="line"/>
      <point x="108" y="720"/>
      <point x="149" y="729"/>
      <point x="227" y="729" type="curve" smooth="yes"/>
      <point x="469" y="729"/>
      <point x="579" y="719"/>
    </contour>
    <contour>
      <point x="727" y="-28" type="curve" smooth="yes"/>
      <point x="782" y="-28"/>
      <point x="836" y="-3"/>
      <point x="962" y="101" type="curve"/>
      <point x="942" y="141" type="line"/>
      <point x="858" y="109"/>
      <point x="829" y="103"/>
      <point x="793" y="103" type="curve" smooth="yes"/>
      <point x="736" y="103"/>
      <point x="712" y="196"/>
      <point x="712" y="420" type="curve" smooth="yes"/>
      <point x="712" y="540"/>
      <point x="716" y="674"/>
      <point x="734" y="792" type="curve"/>
      <point x="636" y="782" type="line"/>
      <point x="609" y="484"/>
      <point x="599" y="331"/>
      <point x="599" y="245" type="curve" smooth="yes"/>
      <point x="599" y="77"/>
      <point x="642" y="-28"/>
    </contour>
    <contour>
      <point x="346" y="276" type="curve" smooth="yes"/>
      <point x="346" y="474"/>
      <point x="356" y="676"/>
      <point x="374" y="836" type="curve"/>
      <point x="374" y="836"/>
      <point x="308" y="825"/>
      <point x="280" y="814" type="curve"/>
      <point x="234" y="212"/>
      <point x="224" y="151"/>
      <point x="119" y="3" type="curve"/>
      <point x="119" y="3"/>
      <point x="139" y="-21"/>
      <point x="146" y="-29" type="curve"/>
      <point x="201" y="-13"/>
      <point x="322" y="23"/>
      <point x="356" y="46" type="curve"/>
      <point x="349" y="113"/>
      <point x="346" y="188"/>
    </contour>
  </outline>
</glyph>
<glyph name="uni1982" format="2">
  <advance width="1576"/>
  <unicode hex="1982"/>
  <outline>
    <contour>
      <point x="422" y="-17" type="curve" smooth="yes"/>
      <point x="477" y="-17"/>
      <point x="505" y="-13"/>
      <point x="543" y="-3" type="curve" smooth="yes"/>
      <point x="556" y="1"/>
      <point x="564" y="10"/>
      <point x="574" y="59" type="curve" smooth="yes"/>
      <point x="587" y="123"/>
      <point x="578" y="134"/>
      <point x="567" y="129" type="curve" smooth="yes"/>
      <point x="526" y="109"/>
      <point x="471" y="95"/>
      <point x="407" y="95" type="curve" smooth="yes"/>
      <point x="302" y="95"/>
      <point x="183" y="205"/>
      <point x="183" y="449" type="curve" smooth="yes"/>
      <point x="183" y="664"/>
      <point x="303" y="835"/>
      <point x="468" y="835" type="curve" smooth="yes"/>
      <point x="626" y="835"/>
      <point x="722" y="696"/>
      <point x="746" y="539" type="curve" smooth="yes"/>
      <point x="747" y="532"/>
      <point x="767" y="529"/>
      <point x="788" y="529" type="curve" smooth="yes"/>
      <point x="807" y="529"/>
      <point x="826" y="531"/>
      <point x="827" y="539" type="curve" smooth="yes"/>
      <point x="843" y="701"/>
      <point x="945" y="835"/>
      <point x="1103" y="835" type="curve" smooth="yes"/>
      <point x="1268" y="835"/>
      <point x="1388" y="664"/>
      <point x="1388" y="449" type="curve" smooth="yes"/>
      <point x="1388" y="205"/>
      <point x="1269" y="95"/>
      <point x="1164" y="95" type="curve" smooth="yes"/>
      <point x="1099" y="95"/>
      <point x="1058" y="109"/>
      <point x="1006" y="129" type="curve" smooth="yes"/>
      <point x="987" y="136"/>
      <point x="984" y="123"/>
      <point x="997" y="59" type="curve" smooth="yes"/>
      <point x="1008" y="8"/>
      <point x="1013" y="1"/>
      <point x="1027" y="-3" type="curve" smooth="yes"/>
      <point x="1066" y="-14"/>
      <point x="1094" y="-17"/>
      <point x="1149" y="-17" type="curve" smooth="yes"/>
      <point x="1318" y="-17"/>
      <point x="1491" y="156"/>
      <point x="1491" y="428" type="curve" smooth="yes"/>
      <point x="1491" y="753"/>
      <point x="1320" y="968"/>
      <point x="1125" y="968" type="curve" smooth="yes"/>
      <point x="946" y="968"/>
      <point x="834" y="862"/>
      <point x="785" y="710" type="curve"/>
      <point x="736" y="862"/>
      <point x="625" y="968"/>
      <point x="446" y="968" type="curve" smooth="yes"/>
      <point x="251" y="968"/>
      <point x="80" y="753"/>
      <point x="80" y="428" type="curve" smooth="yes"/>
      <point x="80" y="156"/>
      <point x="253" y="-17"/>
    </contour>
  </outline>
</glyph>
<glyph name="uni1984" format="2">
  <advance width="1675"/>
  <unicode hex="1984"/>
  <outline>
    <contour>
      <point x="441" y="-17" type="curve" smooth="yes"/>
      <point x="697" y="-17"/>
      <point x="753" y="64"/>
      <point x="920" y="474" type="curve" smooth="yes"/>
      <point x="1041" y="772"/>
      <point x="1107" y="866"/>
      <point x="1217" y="866" type="curve" smooth="yes"/>
      <point x="1370" y="866"/>
      <point x="1462" y="748"/>
      <point x="1462" y="473" type="curve" smooth="yes"/>
      <point x="1462" y="208"/>
      <point x="1390" y="64"/>
      <point x="1244" y="64" type="curve" smooth="yes"/>
      <point x="1168" y="64"/>
      <point x="1126" y="122"/>
      <point x="1111" y="161" type="curve" smooth="yes"/>
      <point x="1104" y="180"/>
      <point x="1093" y="183"/>
      <point x="1039" y="148" type="curve" smooth="yes"/>
      <point x="989" y="115"/>
      <point x="984" y="106"/>
      <point x="995" y="87" type="curve" smooth="yes"/>
      <point x="1037" y="16"/>
      <point x="1128" y="-17"/>
      <point x="1242" y="-17" type="curve" smooth="yes"/>
      <point x="1502" y="-17"/>
      <point x="1595" y="205"/>
      <point x="1595" y="473" type="curve" smooth="yes"/>
      <point x="1595" y="752"/>
      <point x="1483" y="968"/>
      <point x="1256" y="968" type="curve" smooth="yes"/>
      <point x="1029" y="968"/>
      <point x="925" y="833"/>
      <point x="789" y="476" type="curve" smooth="yes"/>
      <point x="677" y="182"/>
      <point x="616" y="64"/>
      <point x="479" y="64" type="curve" smooth="yes"/>
      <point x="349" y="64"/>
      <point x="213" y="203"/>
      <point x="213" y="478" type="curve" smooth="yes"/>
      <point x="213" y="743"/>
      <point x="303" y="887"/>
      <point x="431" y="887" type="curve" smooth="yes" name="hr01"/>
      <point x="507" y="887"/>
      <point x="549" y="830"/>
      <point x="564" y="791" type="curve" smooth="yes"/>
      <point x="571" y="772"/>
      <point x="582" y="769"/>
      <point x="636" y="804" type="curve" smooth="yes"/>
      <point x="686" y="837"/>
      <point x="691" y="846"/>
      <point x="680" y="865" type="curve" smooth="yes"/>
      <point x="638" y="936"/>
      <point x="547" y="968"/>
      <point x="433" y="968" type="curve" smooth="yes"/>
      <point x="218" y="968"/>
      <point x="80" y="746"/>
      <point x="80" y="478" type="curve" smooth="yes"/>
      <point x="80" y="199"/>
      <point x="210" y="-17"/>
    </contour>
    <contour>
      <point x="835" y="-610" type="curve" smooth="yes"/>
      <point x="1244" y="-610"/>
      <point x="1369" y="-481"/>
      <point x="1369" y="-367" type="curve" smooth="yes"/>
      <point x="1369" y="-283"/>
      <point x="1295" y="-133"/>
      <point x="936" y="-133" type="curve" smooth="yes"/>
      <point x="648" y="-133"/>
      <point x="517" y="-254"/>
      <point x="517" y="-351" type="curve" smooth="yes"/>
      <point x="517" y="-404"/>
      <point x="567" y="-441"/>
      <point x="643" y="-441" type="curve" smooth="yes"/>
      <point x="763" y="-441"/>
      <point x="828" y="-344"/>
      <point x="902" y="-344" type="curve" smooth="yes"/>
      <point x="942" y="-344"/>
      <point x="977" y="-367"/>
      <point x="977" y="-387" type="curve" smooth="yes" name="hr03"/>
      <point x="977" y="-433"/>
      <point x="861" y="-424"/>
      <point x="861" y="-432" type="curve" smooth="yes"/>
      <point x="861" y="-447"/>
      <point x="894" y="-452"/>
      <point x="923" y="-452" type="curve" smooth="yes" name="hr02"/>
      <point x="1003" y="-452"/>
      <point x="1048" y="-414"/>
      <point x="1048" y="-368" type="curve" smooth="yes"/>
      <point x="1048" y="-336"/>
      <point x="1006" y="-290"/>
      <point x="920" y="-290" type="curve" smooth="yes"/>
      <point x="807" y="-290"/>
      <point x="741" y="-360"/>
      <point x="676" y="-360" type="curve" smooth="yes"/>
      <point x="647" y="-360"/>
      <point x="623" y="-349"/>
      <point x="623" y="-320" type="curve" smooth="yes"/>
      <point x="623" y="-278"/>
      <point x="699" y="-208"/>
      <point x="932" y="-208" type="curve" smooth="yes"/>
      <point x="1149" y="-208"/>
      <point x="1251" y="-301"/>
      <point x="1251" y="-360" type="curve" smooth="yes"/>
      <point x="1251" y="-446"/>
      <point x="1132" y="-540"/>
      <point x="791" y="-540" type="curve" smooth="yes"/>
      <point x="608" y="-540"/>
      <point x="414" y="-490"/>
      <point x="329" y="-411" type="curve" smooth="yes"/>
      <point x="304" y="-388"/>
      <point x="285" y="-367"/>
      <point x="278" y="-369" type="curve" smooth="yes"/>
      <point x="271" y="-371"/>
      <point x="292" y="-411"/>
      <point x="304" y="-425" type="curve" smooth="yes"/>
      <point x="356" y="-485"/>
      <point x="498" y="-610"/>
    </contour>
  </outline>
</glyph>
<glyph name="uni1985" format="2">
  <advance width="1028"/>
  <unicode hex="1985"/>
  <outline>
    <contour>
      <point x="930" y="428" type="line" smooth="yes"/>
      <point x="930" y="199"/>
      <point x="832" y="43"/>
      <point x="706" y="-14" type="curve" smooth="yes"/>
      <point x="694" y="-19"/>
      <point x="681" y="-11"/>
      <point x="661" y="29" type="curve" smooth="yes"/>
      <point x="639" y="71"/>
      <point x="637" y="102"/>
      <point x="650" y="103" type="curve" smooth="yes"/>
      <point x="769" y="115"/>
      <point x="827" y="261"/>
      <point x="827" y="428" type="curve" smooth="yes"/>
      <point x="827" y="713"/>
      <point x="646" y="835"/>
      <point x="493" y="835" type="curve" smooth="yes"/>
      <point x="357" y="835"/>
      <point x="170" y="719"/>
      <point x="170" y="439" type="curve" smooth="yes"/>
      <point x="170" y="243"/>
      <point x="232" y="119"/>
      <point x="357" y="103" type="curve" smooth="yes"/>
      <point x="366" y="102"/>
      <point x="372" y="75"/>
      <point x="347" y="27" type="curve" smooth="yes"/>
      <point x="325" y="-17"/>
      <point x="312" y="-21"/>
      <point x="297" y="-14" type="curve" smooth="yes"/>
      <point x="183" y="37"/>
      <point x="67" y="158"/>
      <point x="67" y="428" type="curve" smooth="yes"/>
      <point x="67" y="753"/>
      <point x="221" y="968"/>
      <point x="493" y="968" type="curve" smooth="yes"/>
      <point x="781" y="968"/>
      <point x="930" y="744"/>
      <point x="930" y="428" type="curve" smooth="yes"/>
    </contour>
  </outline>
</glyph>
<glyph name="uni1986" format="2">
  <advance width="1037"/>
  <unicode hex="1986"/>
  <outline>
    <contour>
      <point x="328" y="-14" type="curve" smooth="yes"/>
      <point x="344" y="-20"/>
      <point x="356" y="-20"/>
      <point x="377" y="27" type="curve" smooth="yes"/>
      <point x="399" y="76"/>
      <point x="399" y="103"/>
      <point x="390" y="103" type="curve" smooth="yes"/>
      <point x="267" y="108"/>
      <point x="199" y="239"/>
      <point x="199" y="428" type="curve" smooth="yes"/>
      <point x="199" y="703"/>
      <point x="362" y="835"/>
      <point x="527" y="835" type="curve" smooth="yes"/>
      <point x="685" y="835"/>
      <point x="856" y="701"/>
      <point x="856" y="428" type="curve" smooth="yes"/>
      <point x="856" y="273"/>
      <point x="795" y="108"/>
      <point x="671" y="103" type="curve" smooth="yes"/>
      <point x="658" y="102"/>
      <point x="660" y="71"/>
      <point x="682" y="29" type="curve" smooth="yes"/>
      <point x="702" y="-11"/>
      <point x="715" y="-19"/>
      <point x="727" y="-14" type="curve" smooth="yes"/>
      <point x="853" y="43"/>
      <point x="958" y="179"/>
      <point x="958" y="428" type="curve" smooth="yes"/>
      <point x="958" y="744"/>
      <point x="803" y="968"/>
      <point x="527" y="968" type="curve" smooth="yes"/>
      <point x="367" y="968"/>
      <point x="258" y="906"/>
      <point x="197" y="803" type="curve"/>
      <point x="197" y="1103"/>
      <point x="230" y="1196"/>
      <point x="280" y="1263" type="curve" smooth="yes"/>
      <point x="335" y="1336"/>
      <point x="427" y="1375"/>
      <point x="545" y="1375" type="curve" smooth="yes"/>
      <point x="708" y="1375"/>
      <point x="804" y="1294"/>
      <point x="837" y="1221" type="curve" smooth="yes"/>
      <point x="857" y="1176"/>
      <point x="870" y="1163"/>
      <point x="875" y="1165" type="curve" smooth="yes"/>
      <point x="880" y="1167"/>
      <point x="881" y="1189"/>
      <point x="875" y="1222" type="curve" smooth="yes"/>
      <point x="850" y="1365"/>
      <point x="755" y="1498"/>
      <point x="512" y="1498" type="curve" smooth="yes"/>
      <point x="385" y="1498"/>
      <point x="254" y="1426"/>
      <point x="189" y="1314" type="curve" smooth="yes"/>
      <point x="104" y="1168"/>
      <point x="94" y="1062"/>
      <point x="94" y="637" type="curve" smooth="yes"/>
      <point x="94" y="437" type="line" smooth="yes"/>
      <point x="94" y="151"/>
      <point x="212" y="33"/>
    </contour>
  </outline>
</glyph>
<glyph name="uni1987" format="2">
  <advance width="992"/>
  <unicode hex="1987"/>
  <outline>
    <contour>
      <point x="479" y="-610" type="curve" smooth="yes"/>
      <point x="666" y="-610"/>
      <point x="912" y="-458"/>
      <point x="912" y="158" type="curve" smooth="yes"/>
      <point x="912" y="603"/>
      <point x="783" y="968"/>
      <point x="501" y="968" type="curve" smooth="yes"/>
      <point x="253" y="968"/>
      <point x="80" y="691"/>
      <point x="80" y="342" type="curve" smooth="yes"/>
      <point x="80" y="131"/>
      <point x="145" y="-17"/>
      <point x="224" y="-17" type="curve" smooth="yes"/>
      <point x="307" y="-17"/>
      <point x="357" y="162"/>
      <point x="450" y="162" type="curve" smooth="yes" name="hr02"/>
      <point x="514" y="162"/>
      <point x="536" y="108"/>
      <point x="536" y="79" type="curve" smooth="yes"/>
      <point x="536" y="27"/>
      <point x="507" y="-7"/>
      <point x="498" y="-11" type="curve" smooth="yes"/>
      <point x="484" y="-18"/>
      <point x="475" y="-24"/>
      <point x="474" y="-29" type="curve" smooth="yes"/>
      <point x="473" y="-36"/>
      <point x="493" y="-43"/>
      <point x="507" y="-43" type="curve" smooth="yes" name="hr01"/>
      <point x="527" y="-43"/>
      <point x="563" y="-40"/>
      <point x="587" y="-27" type="curve" smooth="yes"/>
      <point x="612" y="-13"/>
      <point x="652" y="42"/>
      <point x="652" y="107" type="curve" smooth="yes"/>
      <point x="652" y="188"/>
      <point x="608" y="261"/>
      <point x="502" y="261" type="curve" smooth="yes"/>
      <point x="374" y="261"/>
      <point x="295" y="139"/>
      <point x="260" y="139" type="curve" smooth="yes"/>
      <point x="227" y="139"/>
      <point x="194" y="214"/>
      <point x="194" y="401" type="curve" smooth="yes"/>
      <point x="194" y="707"/>
      <point x="331" y="887"/>
      <point x="493" y="887" type="curve" smooth="yes"/>
      <point x="655" y="887"/>
      <point x="776" y="604"/>
      <point x="776" y="117" type="curve" smooth="yes"/>
      <point x="776" y="-345"/>
      <point x="614" y="-530"/>
      <point x="456" y="-530" type="curve" smooth="yes"/>
      <point x="347" y="-530"/>
      <point x="225" y="-463"/>
      <point x="173" y="-368" type="curve" smooth="yes"/>
      <point x="153" y="-331"/>
      <point x="140" y="-314"/>
      <point x="134" y="-317" type="curve" smooth="yes"/>
      <point x="127" y="-321"/>
      <point x="130" y="-354"/>
      <point x="144" y="-389" type="curve" smooth="yes"/>
      <point x="191" y="-507"/>
      <point x="295" y="-610"/>
    </contour>
  </outline>
</glyph>
<glyph name="uni1988" format="2">
  <advance width="978"/>
  <unicode hex="1988"/>
  <outline>
    <contour>
      <point x="887" y="473" type="line" smooth="yes"/>
      <point x="887" y="223"/>
      <point x="765" y="-17"/>
      <point x="468" y="-17" type="curve" smooth="yes"/>
      <point x="171" y="-17"/>
      <point x="91" y="99"/>
      <point x="91" y="238" type="curve" smooth="yes"/>
      <point x="91" y="330"/>
      <point x="145" y="430"/>
      <point x="287" y="484" type="curve"/>
      <point x="135" y="511"/>
      <point x="96" y="601"/>
      <point x="96" y="706" type="curve" smooth="yes" name="hr01"/>
      <point x="96" y="812"/>
      <point x="204" y="968"/>
      <point x="468" y="968" type="curve" smooth="yes"/>
      <point x="758" y="968"/>
      <point x="887" y="757"/>
      <point x="887" y="473" type="curve" smooth="yes"/>
    </contour>
    <contour>
      <point x="753" y="473" type="line" smooth="yes"/>
      <point x="753" y="744"/>
      <point x="633" y="887"/>
      <point x="468" y="887" type="curve" smooth="yes"/>
      <point x="303" y="887"/>
      <point x="230" y="816"/>
      <point x="230" y="699" type="curve" smooth="yes"/>
      <point x="230" y="587"/>
      <point x="305" y="524"/>
      <point x="406" y="518" type="curve" smooth="yes"/>
      <point x="416" y="517"/>
      <point x="420" y="508"/>
      <point x="423" y="486" type="curve" smooth="yes"/>
      <point x="426" y="464"/>
      <point x="424" y="456"/>
      <point x="412" y="452" type="curve" smooth="yes"/>
      <point x="281" y="404"/>
      <point x="225" y="332"/>
      <point x="225" y="256" type="curve" smooth="yes" name="hr02"/>
      <point x="225" y="149"/>
      <point x="308" y="64"/>
      <point x="468" y="64" type="curve" smooth="yes"/>
      <point x="639" y="64"/>
      <point x="753" y="207"/>
      <point x="753" y="473" type="curve" smooth="yes"/>
    </contour>
  </outline>
</glyph>
